<?xml version="1.0" standalone="no"?>
<!DOCTYPE svg PUBLIC "-//W3C//DTD SVG 1.1//EN" "http://www.w3.org/Graphics/SVG/1.1/DTD/svg11.dtd" >
<svg>
<metadata>
Created by FontForge 20120731 at Thu Mar 14 15:24:55 2019
 By www-data
Copyright \(c\) 2013 by Jonas Hecksher, Playtype, e-Types AS. All rights reserved.
</metadata>
<defs>
<font id="BerlingskeSerif-Regular" horiz-adv-x="570" >
  <font-face 
    font-family="Berlingske Serif"
    font-weight="400"
    font-stretch="normal"
    units-per-em="1000"
    panose-1="2 0 5 3 8 0 0 2 0 4"
    ascent="800"
    descent="-200"
    x-height="510"
    cap-height="690"
    bbox="-360 -293 1772 994"
    underline-thickness="50"
    underline-position="-50"
    stemh="21"
    stemv="79"
    unicode-range="U+000D-FB06"
  />
<missing-glyph horiz-adv-x="545" 
d="M66 291h135v4c-28 11 -32 25 -32 59v70h31c75 0 114 34 114 94c0 57 -34 87 -110 87h-138v-4c21 -8 24 -20 24 -56v-194c0 -36 0 -47 -24 -56v-4zM476 325l-2 4c-7 -4 -15 -6 -23 -6c-17 0 -30 10 -30 30v145h49v25h-49v58h-4c-19 -25 -43 -50 -74 -69l-17 -10v-4h21
v-141c0 -49 25 -70 62 -70c33 0 53 19 67 38zM545 690v-690h-545v690h545zM185 441h-16v146h20c36 0 46 -28 46 -69c0 -43 -11 -77 -50 -77z" />
    <glyph glyph-name="f_b" unicode="fb" horiz-adv-x="944" 
d="M420 14v612c-30 0 -55 15 -55 45c0 24 15 40 32 51c-18 6 -37 9 -57 9c-69 0 -146 -29 -146 -157v-64h115v-34h-115v-345c0 -82 14 -109 83 -127v-4h-236v4c59 18 73 45 73 127v345h-101l10 34h91v50c0 148 116 190 217 190c59 0 97 -10 116 -31c18 9 34 19 50 32h4v-299
c23 23 86 70 176 70c121 0 222 -95 222 -232c0 -210 -170 -302 -302 -302c-57 0 -140 14 -177 26zM501 438v-406c21 -11 63 -23 101 -23c112 0 210 96 210 256c0 132 -85 213 -185 213c-59 0 -101 -23 -126 -40z" />
    <glyph glyph-name="f_f" unicode="ff" horiz-adv-x="614" 
d="M306 476h-115v-345c0 -82 14 -109 83 -127v-4h-238v4c59 18 73 45 73 127v345h-99l10 34h89v51c0 135 79 190 169 190c62 0 102 -31 102 -70c0 -29 -22 -51 -52 -51c-25 0 -48 16 -48 46c0 25 15 42 32 54c-10 3 -20 4 -28 4c-50 0 -93 -27 -93 -159v-65h115v-34z
M613 476h-115v-345c0 -82 14 -109 83 -127v-4h-238v4c59 18 73 45 73 127v345h-99l10 34h89v51c0 135 79 190 169 190c62 0 102 -31 102 -70c0 -29 -22 -51 -52 -51c-25 0 -48 16 -48 46c0 25 15 42 32 54c-10 3 -20 4 -28 4c-50 0 -93 -27 -93 -159v-65h115v-34z" />
    <glyph glyph-name="f_h" unicode="fh" horiz-adv-x="922" 
d="M748 126v225c0 81 -46 119 -111 119c-50 0 -100 -22 -136 -43v-301c0 -87 15 -106 73 -122v-4h-227v4c59 18 73 38 73 122v500c-26 0 -55 14 -55 45c0 24 15 40 32 51c-18 6 -36 9 -56 9c-71 0 -147 -29 -147 -157v-64h115v-34h-115v-345c0 -82 14 -109 83 -127v-4h-236
v4c59 18 73 45 73 127v345h-101l10 34h91v32c0 164 108 208 217 208c59 0 97 -10 116 -31c18 9 34 18 50 31h4v-309c28 23 104 81 177 81c81 0 149 -50 149 -177v-196c0 -107 9 -127 73 -145v-4h-225v4c59 18 73 38 73 122z" />
    <glyph glyph-name="f_i" unicode="fi" horiz-adv-x="600" 
d="M335 476h-141v-345c0 -82 14 -109 83 -127v-4h-236v4c59 18 73 45 73 127v345h-101l10 34h91v51c0 148 128 190 232 190c92 0 149 -25 149 -74c0 -30 -23 -51 -51 -51c-26 0 -49 16 -49 46c0 24 15 40 32 51c-19 6 -45 9 -70 9c-74 0 -163 -28 -163 -157v-65h155
c75 0 138 7 148 12h4v-399c0 -82 14 -101 73 -119v-4h-225v4c59 18 73 37 73 119v234c0 90 -13 119 -87 119z" />
    <glyph glyph-name="f_j" unicode="fj" horiz-adv-x="600" 
d="M422 -52v383c0 111 -6 145 -87 145h-141v-345c0 -82 14 -109 83 -127v-4h-236v4c59 18 73 45 73 127v345h-101l10 34h91v50c0 148 128 190 232 190c92 0 149 -25 149 -74c0 -30 -23 -51 -51 -51c-26 0 -49 16 -49 46c0 24 15 40 32 51c-18 7 -52 10 -78 10
c-76 0 -155 -35 -155 -158v-64h155c75 0 139 7 149 12h4v-535c0 -151 -87 -211 -154 -237l-3 5c48 30 77 104 77 193z" />
    <glyph glyph-name="f_k" unicode="fk" horiz-adv-x="893" 
d="M309 476h-115v-345c0 -82 14 -109 83 -127v-4h-236v4c59 18 73 45 73 127v345h-101l10 34h91v50c0 148 116 190 217 190c59 0 97 -10 116 -31c18 9 34 19 50 32h4v-628c0 -82 14 -101 73 -119v-4h-227v4c59 18 73 37 73 119v503c-30 0 -55 14 -55 45c0 24 15 40 32 51
c-17 6 -37 10 -64 10c-71 0 -139 -35 -139 -158v-64h115v-34zM657 106l-129 158l99 97c44 43 71 74 71 98c0 22 -22 36 -72 44v7h253v-4c-43 -10 -80 -26 -144 -84l-134 -122l160 -187c69 -81 111 -99 152 -109v-4h-98c-83 0 -81 11 -158 106z" />
    <glyph glyph-name="f_l" unicode="fl" horiz-adv-x="596" 
d="M309 476h-115v-345c0 -82 14 -109 83 -127v-4h-236v4c59 18 73 45 73 127v345h-101l10 34h91v50c0 148 116 190 217 190c59 0 97 -10 116 -31c18 9 34 18 50 31h4v-627c0 -82 14 -101 73 -119v-4h-227v4c59 18 73 37 73 119v503c-30 0 -55 17 -55 45c0 24 15 40 32 51
c-17 6 -37 10 -64 10c-71 0 -139 -35 -139 -158v-64h115v-34z" />
    <glyph glyph-name="f_t" unicode="ft" horiz-adv-x="620" 
d="M381 476h-190v-345c0 -82 14 -109 83 -127v-4h-238v4c59 18 73 45 73 127v345h-99l10 34h89v51c0 135 79 190 169 190c62 0 102 -31 102 -70c0 -29 -22 -51 -52 -51c-25 0 -48 16 -48 46c0 25 15 42 32 54c-10 3 -20 4 -28 4c-50 0 -93 -27 -93 -159v-65h168
c37 25 64 61 99 120h4v-120h138v-36h-138v-337c0 -63 31 -93 84 -93c24 0 54 6 81 17l4 -5c-25 -23 -71 -64 -137 -64c-71 0 -113 46 -113 161v323z" />
    <glyph glyph-name="f_f_b" unicode="ffb" horiz-adv-x="1246" 
d="M306 476h-115v-345c0 -82 14 -109 83 -127v-4h-238v4c59 18 73 45 73 127v345h-99l10 34h89v51c0 135 79 190 169 190c62 0 102 -31 102 -70c0 -29 -22 -51 -52 -51c-25 0 -48 16 -48 46c0 25 15 42 32 54c-10 3 -20 4 -28 4c-50 0 -93 -27 -93 -159v-65h115v-34zM722 14
v612c-30 0 -55 15 -55 45c0 24 15 40 32 51c-18 6 -37 9 -57 9c-69 0 -146 -29 -146 -157v-64h115v-34h-115v-345c0 -82 14 -109 83 -127v-4h-236v4c59 18 73 45 73 127v345h-101l10 34h91v50c0 148 116 190 217 190c59 0 97 -10 116 -31c18 9 34 19 50 32h4v-299
c23 23 86 70 176 70c121 0 222 -95 222 -232c0 -210 -170 -302 -302 -302c-57 0 -140 14 -177 26zM803 438v-406c21 -11 63 -23 101 -23c112 0 210 96 210 256c0 132 -85 213 -185 213c-59 0 -101 -23 -126 -40z" />
    <glyph glyph-name="f_f_f" unicode="fff" horiz-adv-x="920" 
d="M306 476h-115v-345c0 -82 14 -109 83 -127v-4h-238v4c59 18 73 45 73 127v345h-99l10 34h89v51c0 135 79 190 169 190c62 0 102 -31 102 -70c0 -29 -22 -51 -52 -51c-25 0 -48 16 -48 46c0 25 15 42 32 54c-10 3 -20 4 -28 4c-50 0 -93 -27 -93 -159v-65h115v-34z
M612 476h-115v-345c0 -82 14 -109 83 -127v-4h-238v4c59 18 73 45 73 127v345h-99l10 34h89v51c0 135 79 190 169 190c62 0 102 -31 102 -70c0 -29 -22 -51 -52 -51c-25 0 -48 16 -48 46c0 25 15 42 32 54c-10 3 -20 4 -28 4c-50 0 -93 -27 -93 -159v-65h115v-34zM919 476
h-115v-345c0 -82 14 -109 83 -127v-4h-238v4c59 18 73 45 73 127v345h-99l10 34h89v51c0 135 79 190 169 190c62 0 102 -31 102 -70c0 -29 -22 -51 -52 -51c-25 0 -48 16 -48 46c0 25 15 42 32 54c-10 3 -20 4 -28 4c-50 0 -93 -27 -93 -159v-65h115v-34z" />
    <glyph glyph-name="f_f_h" unicode="ffh" horiz-adv-x="1224" 
d="M306 476h-115v-345c0 -82 14 -109 83 -127v-4h-238v4c59 18 73 45 73 127v345h-99l10 34h89v51c0 135 79 190 169 190c62 0 102 -31 102 -70c0 -29 -22 -51 -52 -51c-25 0 -48 16 -48 46c0 25 15 42 32 54c-10 3 -20 4 -28 4c-50 0 -93 -27 -93 -159v-65h115v-34z
M1050 126v225c0 81 -46 119 -111 119c-50 0 -100 -22 -136 -43v-301c0 -87 15 -106 73 -122v-4h-227v4c59 18 73 38 73 122v500c-26 0 -55 14 -55 45c0 24 15 40 32 51c-18 6 -36 9 -56 9c-71 0 -147 -29 -147 -157v-64h115v-34h-115v-345c0 -82 14 -109 83 -127v-4h-236v4
c59 18 73 45 73 127v345h-101l10 34h91v32c0 164 108 208 217 208c59 0 97 -10 116 -31c18 9 34 18 50 31h4v-309c28 23 104 81 177 81c81 0 149 -50 149 -177v-196c0 -107 9 -127 73 -145v-4h-225v4c59 18 73 38 73 122z" />
    <glyph glyph-name="f_f_i" unicode="ffi" horiz-adv-x="903" 
d="M306 476h-115v-345c0 -82 14 -109 83 -127v-4h-238v4c59 18 73 45 73 127v345h-99l10 34h89v51c0 135 79 190 169 190c62 0 102 -31 102 -70c0 -29 -22 -51 -52 -51c-25 0 -48 16 -48 46c0 25 15 42 32 54c-10 3 -20 4 -28 4c-50 0 -93 -27 -93 -159v-65h115v-34z
M638 476h-141v-345c0 -82 14 -109 83 -127v-4h-236v4c59 18 73 45 73 127v345h-101l10 34h91v51c0 148 128 190 232 190c92 0 149 -25 149 -74c0 -30 -23 -51 -51 -51c-26 0 -49 16 -49 46c0 24 15 40 32 51c-19 6 -45 9 -70 9c-74 0 -163 -28 -163 -157v-65h155
c75 0 138 7 148 12h4v-399c0 -82 14 -101 73 -119v-4h-225v4c59 18 73 37 73 119v234c0 90 -13 119 -87 119z" />
    <glyph glyph-name="f_f_j" unicode="ffj" horiz-adv-x="902" 
d="M306 476h-115v-345c0 -82 14 -109 83 -127v-4h-238v4c59 18 73 45 73 127v345h-99l10 34h89v51c0 135 79 190 169 190c62 0 102 -31 102 -70c0 -29 -22 -51 -52 -51c-25 0 -48 16 -48 46c0 25 15 42 32 54c-10 3 -20 4 -28 4c-50 0 -93 -27 -93 -159v-65h115v-34z
M724 -52v383c0 111 -6 145 -87 145h-141v-345c0 -82 14 -109 83 -127v-4h-236v4c59 18 73 45 73 127v345h-101l10 34h91v50c0 148 128 190 232 190c92 0 149 -25 149 -74c0 -30 -23 -51 -51 -51c-26 0 -49 16 -49 46c0 24 15 40 32 51c-18 7 -52 10 -78 10
c-76 0 -155 -35 -155 -158v-64h155c75 0 139 7 149 12h4v-535c0 -151 -87 -211 -154 -237l-3 5c48 30 77 104 77 193z" />
    <glyph glyph-name="f_f_k" unicode="ffk" horiz-adv-x="1195" 
d="M306 476h-115v-345c0 -82 14 -109 83 -127v-4h-238v4c59 18 73 45 73 127v345h-99l10 34h89v51c0 135 79 190 169 190c62 0 102 -31 102 -70c0 -29 -22 -51 -52 -51c-25 0 -48 16 -48 46c0 25 15 42 32 54c-10 3 -20 4 -28 4c-50 0 -93 -27 -93 -159v-65h115v-34z
M611 476h-115v-345c0 -82 14 -109 83 -127v-4h-236v4c59 18 73 45 73 127v345h-101l10 34h91v50c0 148 116 190 217 190c59 0 97 -10 116 -31c18 9 34 19 50 32h4v-628c0 -82 14 -101 73 -119v-4h-227v4c59 18 73 37 73 119v503c-30 0 -55 14 -55 45c0 24 15 40 32 51
c-17 6 -37 10 -64 10c-71 0 -139 -35 -139 -158v-64h115v-34zM959 106l-129 158l99 97c44 43 71 74 71 98c0 22 -22 36 -72 44v7h253v-4c-43 -10 -80 -26 -144 -84l-134 -122l160 -187c69 -81 111 -99 152 -109v-4h-98c-83 0 -81 11 -158 106z" />
    <glyph glyph-name="f_f_l" unicode="ffl" horiz-adv-x="898" 
d="M306 476h-115v-345c0 -82 14 -109 83 -127v-4h-238v4c59 18 73 45 73 127v345h-99l10 34h89v51c0 135 79 190 169 190c62 0 102 -31 102 -70c0 -29 -22 -51 -52 -51c-25 0 -48 16 -48 46c0 25 15 42 32 54c-10 3 -20 4 -28 4c-50 0 -93 -27 -93 -159v-65h115v-34z
M611 476h-115v-345c0 -82 14 -109 83 -127v-4h-236v4c59 18 73 45 73 127v345h-101l10 34h91v50c0 148 116 190 217 190c59 0 97 -10 116 -31c18 9 34 18 50 31h4v-627c0 -82 14 -101 73 -119v-4h-227v4c59 18 73 37 73 119v503c-30 0 -55 17 -55 45c0 24 15 40 32 51
c-17 6 -37 10 -64 10c-71 0 -139 -35 -139 -158v-64h115v-34z" />
    <glyph glyph-name=".notdef" horiz-adv-x="545" 
d="M66 291h135v4c-28 11 -32 25 -32 59v70h31c75 0 114 34 114 94c0 57 -34 87 -110 87h-138v-4c21 -8 24 -20 24 -56v-194c0 -36 0 -47 -24 -56v-4zM476 325l-2 4c-7 -4 -15 -6 -23 -6c-17 0 -30 10 -30 30v145h49v25h-49v58h-4c-19 -25 -43 -50 -74 -69l-17 -10v-4h21
v-141c0 -49 25 -70 62 -70c33 0 53 19 67 38zM545 690v-690h-545v690h545zM185 441h-16v146h20c36 0 46 -28 46 -69c0 -43 -11 -77 -50 -77z" />
    <glyph glyph-name=".null" horiz-adv-x="0" 
 />
    <glyph glyph-name=".null" horiz-adv-x="0" 
 />
    <glyph glyph-name="CR" unicode="&#xd;" horiz-adv-x="0" 
 />
    <glyph glyph-name="space" unicode=" " horiz-adv-x="210" 
 />
    <glyph glyph-name="uni00A0" unicode="&#xa0;" horiz-adv-x="210" 
 />
    <glyph glyph-name="A" unicode="A" horiz-adv-x="691" 
d="M451 0v4c41 9 60 20 60 55s-19 91 -54 190h-264c-33 -93 -52 -148 -52 -183c0 -38 18 -52 64 -62v-4h-205v4c59 23 80 52 160 265l161 428h62l154 -427c75 -208 93 -244 153 -266v-4h-239zM446 278l-122 341l-121 -341h243z" />
    <glyph glyph-name="B" unicode="B" horiz-adv-x="626" 
d="M211 341v-314h111c101 0 173 53 173 155c0 110 -86 159 -188 159h-96zM211 663v-295h86c106 0 160 67 160 157c0 85 -52 138 -166 138h-80zM42 686v4h269c145 0 231 -46 231 -162c0 -94 -73 -144 -144 -164v-4c95 -9 188 -60 188 -169c0 -137 -120 -191 -261 -191h-283v4
c69 18 85 45 85 132v418c0 87 -16 114 -85 132z" />
    <glyph glyph-name="C" unicode="C" horiz-adv-x="694" 
d="M423 -15c-212 0 -375 141 -375 348c0 226 195 371 379 371c72 0 160 -22 198 -39v-134h-4c-52 116 -129 151 -206 151c-158 0 -270 -147 -270 -336c0 -196 121 -339 282 -339c84 0 162 39 217 161h4l-13 -141c-40 -21 -130 -42 -212 -42z" />
    <glyph glyph-name="D" unicode="D" horiz-adv-x="762" 
d="M336 0h-299v4c69 18 85 40 85 132v418c0 92 -16 114 -85 132v4h309c207 0 381 -112 381 -334c0 -227 -161 -356 -391 -356zM206 663v-636h133c185 0 291 139 291 325c0 184 -122 311 -279 311h-145z" />
    <glyph glyph-name="E" unicode="E" 
d="M123 136v418c0 87 -16 114 -85 132v4h450v-141h-4c-52 94 -66 114 -136 114h-141v-295h135c48 0 66 15 97 64h4v-154h-4c-31 49 -49 63 -97 63h-135v-314h169c68 0 81 23 157 130h4l-20 -157h-479v4c69 18 85 40 85 132z" />
    <glyph glyph-name="F" unicode="F" horiz-adv-x="553" 
d="M306 4v-4h-271v4c69 18 85 40 85 132v418c0 87 -16 114 -85 132v4h470v-141h-4c-52 94 -61 114 -131 114h-166v-300h160c50 0 66 16 97 65h4v-157h-4c-31 49 -47 65 -97 65h-160v-200c0 -92 20 -114 102 -132z" />
    <glyph glyph-name="G" unicode="G" horiz-adv-x="742" 
d="M659 209v-184c-69 -21 -154 -40 -247 -40c-204 0 -364 147 -364 357c0 226 197 362 380 362c72 0 170 -20 211 -37v-135h-4c-59 110 -134 149 -217 149c-146 0 -273 -135 -273 -334c0 -201 128 -332 284 -332c63 0 128 18 149 28v166c0 82 -16 114 -85 132v4h231v-4
c-49 -18 -65 -38 -65 -132z" />
    <glyph glyph-name="H" unicode="H" horiz-adv-x="805" 
d="M767 4v-4h-254v4c69 18 85 40 85 127v208h-391v-208c0 -87 16 -109 85 -127v-4h-254v4c69 18 85 40 85 127v428c0 87 -16 109 -85 127v4h254v-4c-69 -18 -85 -40 -85 -127v-188h391v188c0 87 -16 109 -85 127v4h254v-4c-69 -18 -85 -40 -85 -127v-428
c0 -87 16 -109 85 -127z" />
    <glyph glyph-name="I" unicode="I" horiz-adv-x="330" 
d="M292 4v-4h-254v4c69 18 85 40 85 127v428c0 87 -16 109 -85 127v4h254v-4c-69 -18 -85 -40 -85 -127v-428c0 -87 16 -109 85 -127z" />
    <glyph glyph-name="J" unicode="J" horiz-adv-x="327" 
d="M207 554v-531c0 -151 -91 -196 -168 -232l-2 3c58 40 86 106 86 195v565c0 93 -16 114 -85 132v4h254v-4c-69 -18 -85 -39 -85 -132z" />
    <glyph glyph-name="K" unicode="K" horiz-adv-x="711" 
d="M468 522l-91 -93l180 -255c95 -134 113 -151 176 -170v-4h-263v4c34 7 57 12 57 37c0 22 -21 62 -71 133l-138 195l-114 -116v-122c0 -87 16 -109 85 -127v-4h-254v4c69 18 85 40 85 127v428c0 87 -16 109 -85 127v4h254v-4c-69 -18 -85 -40 -85 -127v-269l215 227
c56 59 78 96 78 122c0 24 -23 36 -59 47v4h251v-4c-76 -23 -107 -47 -221 -164z" />
    <glyph glyph-name="L" unicode="L" horiz-adv-x="546" 
d="M204 559v-532h173c45 0 71 27 143 130h4l-20 -157h-469v4c69 18 85 45 85 127v428c0 82 -16 109 -85 127v4h254v-4c-69 -18 -85 -45 -85 -127z" />
    <glyph glyph-name="M" unicode="M" horiz-adv-x="933" 
d="M804 518l21 -306c11 -162 13 -184 85 -208v-4h-236v4c59 17 73 35 73 107c0 23 -2 51 -4 87l-26 405l-266 -608h-28l-248 609h-4l-26 -391c-2 -37 -5 -71 -5 -93c0 -79 16 -102 76 -116v-4h-201v4c72 21 79 52 91 209l22 301c2 25 3 46 3 65c0 65 -20 89 -73 107v4h171
l237 -581l252 581h157v-4c-54 -20 -73 -43 -73 -113c0 -16 0 -34 2 -55z" />
    <glyph glyph-name="N" unicode="N" horiz-adv-x="787" 
d="M185 690l469 -562v354c0 154 -14 183 -79 204v4h196v-4c-65 -21 -79 -47 -79 -204v-492h-39l-500 605v-387c0 -154 14 -183 79 -204v-4h-196v4c65 21 79 47 79 204v381c0 36 -31 81 -99 97v4h169z" />
    <glyph glyph-name="O" unicode="O" horiz-adv-x="800" 
d="M400 -15c-181 0 -357 146 -357 357c0 212 185 362 357 362s357 -150 357 -362c0 -211 -176 -357 -357 -357zM400 7c150 0 258 156 258 337c0 183 -108 338 -258 338s-259 -155 -259 -338c0 -181 109 -337 259 -337z" />
    <glyph glyph-name="P" unicode="P" horiz-adv-x="597" 
d="M204 663v-326h102c116 0 169 73 169 170c0 92 -49 156 -156 156h-115zM323 311h-119v-175c0 -92 20 -114 102 -132v-4h-271v4c69 18 85 40 85 132v418c0 92 -16 114 -85 132v4h300c146 0 227 -55 227 -179c0 -149 -117 -200 -239 -200z" />
    <glyph glyph-name="Q" unicode="Q" horiz-adv-x="800" 
d="M400 -15c-181 0 -357 146 -357 357c0 212 185 362 357 362s357 -150 357 -362c0 -172 -118 -301 -259 -343c241 -115 408 -169 587 -169c56 0 104 9 143 21v-4c-32 -31 -118 -86 -231 -86c-80 0 -241 36 -444 160l-110 67c-14 -2 -29 -3 -43 -3zM400 7
c150 0 258 156 258 337c0 183 -108 338 -258 338s-259 -155 -259 -338c0 -181 109 -337 259 -337z" />
    <glyph glyph-name="R" unicode="R" horiz-adv-x="651" 
d="M204 663v-324h96c82 0 170 51 170 169c0 93 -58 155 -153 155h-113zM297 313h-93v-177c0 -92 16 -114 85 -132v-4h-254v4c69 18 85 40 85 132v418c0 92 -16 114 -85 132v4h297c142 0 227 -56 227 -175c0 -108 -90 -161 -179 -184l155 -215c65 -90 84 -100 143 -112v-4
h-60c-108 0 -113 3 -172 91z" />
    <glyph glyph-name="S" unicode="S" horiz-adv-x="504" 
d="M61 25v166h4c49 -137 120 -184 190 -184c71 0 138 52 138 129c0 181 -330 190 -330 390c0 109 97 178 208 178c58 0 110 -18 163 -40v-137h-4c-42 100 -105 154 -177 154c-68 0 -122 -48 -122 -115c0 -171 333 -179 333 -389c0 -116 -99 -192 -222 -192
c-66 0 -138 20 -181 40z" />
    <glyph glyph-name="T" unicode="T" horiz-adv-x="648" 
d="M451 4v-4h-254v4c69 18 85 40 85 132v527h-110c-38 0 -59 -27 -131 -122h-4l20 149h534l20 -149h-4c-73 95 -93 122 -131 122h-110v-527c0 -92 16 -114 85 -132z" />
    <glyph glyph-name="U" unicode="U" horiz-adv-x="771" 
d="M618 189v293c0 149 -14 183 -79 204v4h195v-4c-65 -21 -79 -52 -79 -204v-296c0 -126 -105 -201 -265 -201c-156 0 -268 74 -268 201v373c0 82 -16 109 -85 127v4h254v-4c-69 -18 -85 -45 -85 -127v-387c0 -86 67 -150 199 -150c121 0 213 57 213 167z" />
    <glyph glyph-name="V" unicode="V" horiz-adv-x="691" 
d="M239 423l126 -352l127 354c37 103 57 163 57 201c0 36 -21 49 -64 60v4h205v-4c-59 -23 -80 -52 -160 -265l-161 -428h-62l-154 427c-75 207 -93 244 -153 266v4h239v-4c-41 -9 -60 -20 -60 -55c0 -38 21 -100 60 -208z" />
    <glyph glyph-name="W" unicode="W" horiz-adv-x="990" 
d="M602 423l100 -345l107 347c28 91 44 149 44 187c0 44 -21 60 -66 74v4h205v-4c-59 -23 -74 -49 -145 -265l-141 -428h-57l-155 546l-173 -546h-62l-119 427c-59 212 -78 244 -138 266v4h238v-4c-41 -12 -59 -23 -59 -63c0 -38 16 -99 43 -202l92 -349l108 353
c26 84 40 139 40 177c0 52 -22 69 -72 84v4h225v-4c-40 -12 -60 -24 -60 -62s16 -98 45 -201z" />
    <glyph glyph-name="X" unicode="X" horiz-adv-x="678" 
d="M450 119l-132 190l-79 -113c-54 -78 -79 -120 -79 -144c0 -25 19 -34 59 -47v-5h-214v4c61 24 75 43 188 191l107 141l-157 232c-44 64 -74 94 -136 118v4h264v-5c-45 -11 -65 -24 -65 -47c0 -20 10 -41 28 -67l120 -179l73 110c47 71 70 111 70 137c0 24 -18 35 -54 46
v5h210v-4c-59 -22 -87 -45 -187 -188l-93 -133l168 -243c47 -69 66 -94 131 -118v-4h-263v5c44 13 68 25 68 49c0 16 -9 39 -27 65z" />
    <glyph glyph-name="Y" unicode="Y" horiz-adv-x="631" 
d="M463 491l-102 -187v-168c0 -82 16 -114 85 -132v-4h-254v4c69 18 85 50 85 132v166l-101 183c-93 168 -126 191 -170 201v4h232v-4c-31 -8 -48 -17 -48 -41c0 -28 20 -73 67 -157l87 -155l84 161c38 72 58 116 58 144c0 27 -18 38 -56 48v4h195v-4
c-46 -7 -82 -48 -162 -195z" />
    <glyph glyph-name="Z" unicode="Z" horiz-adv-x="566" 
d="M540 157l-19 -157h-496v4l402 659h-244c-47 0 -67 -23 -140 -114h-4l20 141h472v-4l-398 -659h262c44 0 71 25 141 130h4z" />
    <glyph glyph-name="AE" unicode="&#xc6;" horiz-adv-x="927" 
d="M298 690h547v-141h-4c-52 94 -66 114 -121 114h-156v-295h135c46 0 68 18 97 64h4v-154h-4c-31 49 -54 63 -97 63h-135v-314h179c53 0 71 23 147 130h4l-20 -157h-479v4c69 18 85 40 85 132v108h-242c-54 -96 -84 -154 -84 -190c0 -26 16 -40 50 -50v-4h-205v4
c59 23 99 67 212 265l162 285c17 30 25 52 25 69c0 40 -43 49 -100 63v4zM480 663h-7l-216 -385h223v385z" />
    <glyph glyph-name="OE" unicode="&#x152;" horiz-adv-x="1104" 
d="M400 -15c-181 0 -357 146 -357 357c0 212 185 362 357 362c100 0 195 -52 257 -138v124h365v-141h-4c-52 94 -66 114 -136 114h-141v-295h135c48 0 66 15 97 64h4v-154h-4c-31 49 -49 63 -97 63h-135v-314h169c68 0 81 23 157 130h4l-20 -157h-394v116
c-60 -83 -153 -131 -257 -131zM400 7c150 0 258 156 258 337c0 183 -108 338 -258 338s-259 -155 -259 -338c0 -181 109 -337 259 -337z" />
    <glyph glyph-name="Eth" unicode="&#xd0;" horiz-adv-x="757" 
d="M336 0h-299v4c69 18 85 40 85 132v204h-76v29h76v185c0 92 -16 114 -85 132v4h309c207 0 381 -112 381 -334c0 -227 -161 -356 -391 -356zM206 340v-313h133c185 0 291 139 291 325c0 184 -122 311 -279 311h-145v-294h150v-29h-150z" />
    <glyph glyph-name="Eng" unicode="&#x14a;" horiz-adv-x="797" 
d="M690 493c0 -128 -1 -256 -1 -383c0 -120 -32 -272 -154 -272c-34 0 -49 14 -49 42c0 10 2 20 9 33c12 -5 25 -9 44 -9c70 0 93 48 102 101l-488 590v-387c0 -154 14 -183 79 -204v-4h-194v4c65 21 79 47 79 204v381c0 28 -30 80 -99 97v4h167l469 -562v364
c0 145 -16 173 -79 194v4h194v-4c-64 -21 -79 -46 -79 -193z" />
    <glyph glyph-name="Thorn" unicode="&#xde;" horiz-adv-x="597" 
d="M323 161h-119v-25c0 -92 20 -114 102 -132v-4h-271v4c69 18 85 40 85 132v423c0 87 -16 109 -85 127v4h254v-4c-69 -18 -85 -40 -85 -127v-21h131c146 0 226 -53 226 -178c0 -149 -117 -199 -238 -199zM204 511v-324h102c116 0 169 72 169 169c0 91 -48 155 -156 155
h-115z" />
    <glyph glyph-name="a" unicode="a" horiz-adv-x="509" 
d="M213 489c-58 0 -97 -22 -114 -37c33 -6 55 -23 55 -52s-23 -45 -47 -45s-49 17 -49 49c0 65 109 118 206 118c90 0 150 -47 150 -139v-266c0 -82 43 -88 98 -93v-4c-7 -3 -77 -28 -113 -28c-34 0 -61 22 -63 65c-30 -26 -92 -69 -158 -69c-68 0 -135 44 -135 128
c0 81 66 158 292 167v62c0 93 -37 144 -122 144zM335 65v192c-11 2 -33 5 -54 5c-94 0 -156 -46 -156 -126c0 -66 46 -99 108 -99c37 0 80 15 102 28z" />
    <glyph glyph-name="b" unicode="b" horiz-adv-x="612" 
d="M2 705v4c53 5 122 24 163 45h4v-303c23 23 89 71 177 71c116 0 222 -84 222 -241c0 -195 -154 -293 -288 -293c-52 0 -156 13 -193 25v572c0 92 -19 105 -85 120zM169 437v-391c21 -13 71 -37 121 -37c101 0 189 90 189 246c0 145 -84 222 -185 222
c-58 0 -100 -24 -125 -40z" />
    <glyph glyph-name="c" unicode="c" horiz-adv-x="461" 
d="M303 501c-110 0 -170 -94 -170 -226c0 -154 89 -225 188 -225c63 0 111 29 137 51l7 -5c-20 -32 -89 -108 -194 -108c-121 0 -223 93 -223 253c0 167 112 281 251 281c66 0 140 -27 140 -81c0 -31 -24 -59 -58 -59c-29 0 -54 21 -54 51c0 24 13 49 31 60
c-15 5 -35 8 -55 8z" />
    <glyph glyph-name="d" unicode="d" horiz-adv-x="613" 
d="M441 95v351c-38 31 -96 52 -144 52c-102 0 -168 -99 -168 -229c0 -141 76 -218 188 -218c52 0 90 21 124 44zM351 705v4c53 5 127 24 168 45h4v-573c0 -118 8 -129 85 -149v-4c-72 -7 -124 -24 -163 -40h-4v95c-31 -40 -96 -95 -184 -95c-112 0 -211 96 -211 241
c0 191 135 293 288 293c35 0 81 -7 107 -12v75c0 91 -17 104 -90 120z" />
    <glyph glyph-name="e" unicode="e" horiz-adv-x="509" 
d="M472 296h-338v-27c0 -138 78 -218 183 -218c72 0 123 33 154 59l6 -4c-21 -36 -88 -118 -202 -118c-128 0 -226 96 -226 252c0 177 118 282 240 282c94 0 184 -38 184 -200c0 -11 0 -14 -1 -26zM279 500c-71 0 -131 -62 -143 -184l256 9c0 127 -46 175 -113 175z" />
    <glyph glyph-name="f" unicode="f" horiz-adv-x="307" 
d="M306 476h-115v-345c0 -82 14 -109 83 -127v-4h-238v4c59 18 73 45 73 127v345h-99l10 34h89v51c0 135 79 190 169 190c62 0 102 -31 102 -70c0 -29 -22 -51 -52 -51c-25 0 -48 16 -48 46c0 25 15 42 32 54c-10 3 -20 4 -28 4c-50 0 -93 -27 -93 -159v-65h115v-34z" />
    <glyph glyph-name="g" unicode="g" horiz-adv-x="524" 
d="M255 165c-28 0 -55 4 -80 14c-21 -20 -35 -43 -35 -62c0 -23 19 -41 64 -43l143 -7c103 -5 167 -31 167 -116c0 -128 -165 -191 -299 -191c-101 0 -204 36 -204 113c0 80 111 119 146 132c-44 9 -74 34 -74 67c0 35 21 73 81 111c-59 27 -105 82 -105 161
c0 108 86 178 190 178c42 0 81 -11 116 -32l164 32l-8 -66l-131 13c31 -25 57 -67 57 -124c0 -103 -84 -180 -192 -180zM345 -6l-162 7c-6 0 -12 1 -17 2c-36 -20 -81 -55 -81 -110c0 -66 64 -110 162 -110c106 0 202 50 202 133c0 49 -31 75 -104 78zM253 183
c73 0 109 78 109 158c0 84 -38 161 -109 161c-70 0 -109 -73 -109 -158c0 -78 34 -161 109 -161z" />
    <glyph glyph-name="h" unicode="h" horiz-adv-x="614" 
d="M440 126v225c0 81 -46 119 -111 119c-50 0 -103 -22 -139 -43v-301c0 -87 15 -106 73 -122v-4h-228v4c59 18 73 38 73 122v453c0 88 -10 105 -85 126v4c57 3 122 27 163 45h4v-313c28 23 107 81 180 81c81 0 149 -45 149 -173v-200c0 -107 9 -127 73 -145v-4h-225v4
c59 18 73 38 73 122z" />
    <glyph glyph-name="i" unicode="i" horiz-adv-x="289" 
d="M203 654c0 -30 -25 -54 -54 -54c-30 0 -54 24 -54 54c0 29 24 54 54 54c29 0 54 -25 54 -54zM26 478v4c57 4 121 23 160 40h4v-399c0 -82 14 -101 73 -119v-4h-225v4c59 18 73 37 73 119v234c0 88 -15 101 -85 121z" />
    <glyph glyph-name="j" unicode="j" horiz-adv-x="285" 
d="M203 654c0 -30 -25 -54 -54 -54c-30 0 -54 24 -54 54c0 29 24 54 54 54c29 0 54 -25 54 -54zM187 522h4v-525c0 -151 -89 -211 -156 -237l-3 5c48 30 77 104 77 193v399c0 88 -14 101 -85 121v4c57 4 124 23 163 40z" />
    <glyph glyph-name="k" unicode="k" horiz-adv-x="582" 
d="M346 106l-129 158l99 97c42 41 69 70 69 91c0 17 -16 42 -70 51v7h253v-4c-52 -12 -91 -35 -184 -120l-94 -86l160 -187c69 -81 111 -99 152 -109v-4h-79c-103 0 -94 4 -177 106zM23 705v4c53 5 122 24 163 45h4v-631c0 -82 14 -101 73 -119v-4h-228v4
c59 18 73 37 73 119v462c0 88 -13 103 -85 120z" />
    <glyph glyph-name="l" unicode="l" horiz-adv-x="282" 
d="M23 705v4c53 5 122 24 163 45h4v-631c0 -82 14 -101 73 -119v-4h-228v4c59 18 73 37 73 119v462c0 88 -13 103 -85 120z" />
    <glyph glyph-name="m" unicode="m" horiz-adv-x="912" 
d="M24 478v4c57 4 120 23 159 40h4v-80c28 23 103 80 175 80c58 0 105 -25 128 -85c29 23 111 85 184 85c81 0 143 -50 143 -177v-219c0 -84 14 -104 73 -122v-4h-225v4c59 18 73 38 73 122v225c0 81 -40 119 -105 119c-47 0 -103 -24 -139 -45c7 -22 11 -49 11 -80v-219
c0 -84 14 -104 73 -122v-4h-225v4c59 18 73 38 73 122v225c0 81 -40 119 -105 119c-49 0 -97 -21 -133 -42v-305c0 -83 14 -101 73 -119v-4h-225v4c59 18 73 36 73 119v234c0 88 -14 101 -85 121z" />
    <glyph glyph-name="n" unicode="n" horiz-adv-x="613" 
d="M438 126v225c0 81 -45 119 -111 119c-51 0 -103 -22 -139 -43v-304c0 -83 14 -101 73 -119v-4h-225v4c59 18 73 36 73 119v212c0 112 -10 122 -85 143v4c57 4 120 23 159 40h4v-81c35 29 109 81 184 81c77 0 146 -45 146 -172v-224c0 -84 14 -104 73 -122v-4h-225v4
c59 18 73 38 73 122z" />
    <glyph glyph-name="o" unicode="o" horiz-adv-x="613" 
d="M306 -12c-142 0 -258 120 -258 269c0 152 121 265 258 265s259 -113 259 -265c0 -149 -117 -269 -259 -269zM306 9c116 0 165 130 165 247c0 129 -59 245 -165 245s-165 -116 -165 -245c0 -117 49 -247 165 -247z" />
    <glyph glyph-name="p" unicode="p" horiz-adv-x="619" 
d="M286 -12c-32 0 -83 4 -110 9v-84c0 -103 11 -120 83 -139v-4h-238v4c59 18 73 38 73 120v438c0 115 -11 125 -85 146v4c72 7 124 23 163 40h4v-70c24 25 93 70 177 70c122 0 222 -92 222 -242c0 -202 -171 -292 -289 -292zM176 438v-396c21 -11 66 -33 112 -33
c104 0 199 93 199 250c0 144 -89 219 -184 219c-57 0 -103 -23 -127 -40z" />
    <glyph glyph-name="q" unicode="q" horiz-adv-x="611" 
d="M511 522h9v-616c0 -87 14 -114 73 -132v-4h-238v4c69 18 83 45 83 132v164c-33 -36 -99 -82 -176 -82c-102 0 -219 82 -219 244c0 184 133 290 286 290c45 0 95 -9 128 -17zM315 51c38 0 88 9 123 32v364c-26 21 -83 51 -139 51c-109 0 -173 -98 -173 -235
c0 -139 84 -212 189 -212z" />
    <glyph glyph-name="r" unicode="r" horiz-adv-x="372" 
d="M366 465c0 -32 -25 -57 -57 -57s-57 25 -57 57s25 57 57 57s57 -25 57 -57zM26 473v4c57 3 119 27 160 45h4v-396c0 -85 16 -105 86 -122v-4h-238v4c59 18 73 37 73 122v221c0 88 -10 105 -85 126z" />
    <glyph glyph-name="s" unicode="s" horiz-adv-x="425" 
d="M51 29v132h4c45 -103 101 -153 165 -153c57 0 103 41 103 92c0 126 -267 108 -267 283c0 88 76 139 165 139c40 0 84 -10 130 -29v-121h-5c-39 90 -90 130 -141 130c-47 0 -91 -35 -91 -87c0 -123 270 -100 270 -279c0 -86 -70 -148 -177 -148c-47 0 -103 12 -156 41z
" />
    <glyph glyph-name="t" unicode="t" horiz-adv-x="339" 
d="M346 61l4 -5c-25 -23 -71 -64 -137 -64c-71 0 -113 46 -113 161v319h-80v4l41 23c46 26 76 63 116 131h4v-120h138v-36h-138v-337c0 -63 31 -93 84 -93c24 0 54 6 81 17z" />
    <glyph glyph-name="u" unicode="u" horiz-adv-x="588" 
d="M332 478v4c57 4 121 23 160 40h4v-345c0 -113 10 -126 85 -145v-4c-72 -7 -119 -24 -158 -40h-4v79c-34 -29 -104 -79 -172 -79c-75 0 -146 35 -146 163v183c0 113 -10 123 -85 144v4c57 4 121 23 160 40h4v-371c0 -73 50 -106 114 -106c46 0 87 14 123 35v277
c0 88 -14 101 -85 121z" />
    <glyph glyph-name="v" unicode="v" horiz-adv-x="567" 
d="M420 314l-121 -321h-58l-117 321c-55 150 -71 171 -120 192v4h223v-4c-41 -12 -58 -24 -58 -59c0 -21 12 -69 33 -129l92 -261l94 269c20 57 31 93 31 120c0 35 -21 49 -66 60v4h206v-4c-57 -19 -81 -37 -139 -192z" />
    <glyph glyph-name="w" unicode="w" horiz-adv-x="879" 
d="M730 314l-121 -321h-58l-124 339l-128 -339h-58l-117 321c-55 150 -71 171 -120 192v4h223v-4c-41 -12 -58 -24 -58 -59c0 -21 12 -69 33 -129l92 -261l94 269c8 23 14 41 19 58c-35 87 -53 105 -93 122v4h223v-4c-41 -12 -58 -24 -58 -59c0 -21 12 -69 33 -129l92 -261
l94 269c20 57 31 93 31 120c0 35 -21 49 -66 60v4h206v-4c-57 -19 -81 -37 -139 -192z" />
    <glyph glyph-name="x" unicode="x" horiz-adv-x="594" 
d="M357 132l-74 96l-45 -61c-46 -62 -60 -96 -60 -118c0 -25 23 -34 65 -45v-4h-234v4c58 21 96 36 176 138l83 106l-28 37c-113 150 -143 189 -211 221v4h254v-4c-45 -14 -67 -26 -67 -48c0 -14 8 -34 28 -60l77 -103l45 65c35 52 53 75 53 101c0 21 -19 33 -56 45v4h218
v-4c-61 -24 -92 -39 -183 -152l-63 -78l139 -181c40 -52 68 -72 118 -91v-4h-255v4c43 13 64 23 64 46c0 17 -14 42 -44 82z" />
    <glyph glyph-name="y" unicode="y" horiz-adv-x="554" 
d="M267 -45l16 45h-47l-104 295c-60 171 -69 192 -124 211v4h225v-5c-41 -9 -59 -22 -59 -55c0 -28 12 -68 34 -134l90 -273l81 242c24 71 40 125 40 156c0 37 -18 54 -63 64v5h195v-4c-53 -23 -79 -54 -135 -211l-131 -366c-39 -110 -92 -169 -153 -169
c-40 0 -70 30 -70 58c0 27 21 53 52 53c37 0 52 -22 52 -59c0 -4 0 -7 -1 -10c28 8 64 45 102 153z" />
    <glyph glyph-name="z" unicode="z" horiz-adv-x="476" 
d="M456 138l-20 -138h-406v4l306 478h-165c-40 0 -55 -26 -123 -110h-4l20 138h372v-4l-302 -479h186c41 0 57 20 132 111h4z" />
    <glyph glyph-name="ae" unicode="&#xe6;" horiz-adv-x="777" 
d="M209 489c-56 0 -93 -22 -110 -37c33 -6 55 -24 55 -51c0 -30 -23 -46 -47 -46s-49 17 -49 49c0 65 107 118 202 118c71 0 116 -29 132 -87c41 55 101 87 165 87c94 0 185 -48 185 -210c0 -11 0 -14 -1 -26h-338v-17c0 -140 74 -220 186 -220c66 0 118 33 148 59l6 -4
c-28 -46 -100 -116 -198 -116c-76 0 -134 32 -171 90c-78 -62 -130 -90 -198 -90c-66 0 -133 43 -133 125c0 81 60 158 289 167v65c0 93 -36 144 -123 144zM403 307l257 8c0 127 -46 185 -113 185c-71 0 -131 -79 -144 -193zM231 34c49 0 102 29 133 60
c-21 40 -32 89 -32 146v14c-12 2 -33 5 -53 5c-89 0 -154 -50 -154 -126c0 -59 41 -99 106 -99z" />
    <glyph glyph-name="oe" unicode="&#x153;" horiz-adv-x="938" 
d="M892 286h-337c0 -166 87 -237 180 -237c72 0 122 33 153 59l6 -4c-21 -36 -89 -116 -201 -116c-82 0 -149 40 -187 110c-43 -67 -115 -110 -200 -110c-142 0 -258 120 -258 269c0 152 121 265 258 265c88 0 165 -48 208 -122c43 76 117 122 194 122
c94 0 185 -48 185 -210c0 -11 0 -14 -1 -26zM306 9c116 0 165 130 165 247c0 129 -59 245 -165 245s-165 -116 -165 -245c0 -117 49 -247 165 -247zM556 314v-8l255 9c0 127 -46 185 -113 185c-70 0 -142 -68 -142 -186z" />
    <glyph glyph-name="eth" unicode="&#xf0;" horiz-adv-x="613" 
d="M185 753c4 0 8 0 11 1c32 -18 65 -39 98 -62l103 42l11 -25l-88 -36c130 -101 245 -244 245 -417c0 -148 -117 -268 -259 -268s-258 120 -258 268c0 153 121 266 258 266c35 0 82 -15 103 -26c-30 56 -73 110 -124 163c-31 -13 -62 -25 -93 -37l-11 25l83 33
c-25 25 -52 48 -79 73zM306 9c116 0 165 131 165 247c0 130 -59 245 -165 245s-165 -115 -165 -245c0 -116 49 -247 165 -247z" />
    <glyph glyph-name="eng" unicode="&#x14b;" horiz-adv-x="610" 
d="M435 -42v393c0 81 -46 119 -111 119c-49 0 -100 -22 -136 -43v-304c0 -83 14 -101 73 -119v-4h-225v4c59 18 73 36 73 119v234c0 88 -14 101 -85 121v4c57 4 120 23 159 40h4v-81c28 23 105 81 178 81c81 0 151 -50 151 -177v-348c0 -151 -88 -211 -155 -237l-3 5
c48 30 77 104 77 193z" />
    <glyph glyph-name="thorn" unicode="&#xfe;" horiz-adv-x="611" 
d="M172 424v-391c21 -11 59 -24 105 -24c106 0 202 88 202 255c0 138 -84 209 -174 209c-59 0 -107 -30 -133 -49zM255 -226v-4h-236v4c59 18 73 38 73 120v691c0 88 -13 103 -85 120v4c68 7 120 24 161 45h4v-314c25 26 93 82 184 82c117 0 209 -96 209 -235
c0 -205 -151 -299 -288 -299c-36 0 -77 4 -105 9v-103c0 -82 16 -102 83 -120z" />
    <glyph glyph-name="germandbls" unicode="&#xdf;" horiz-adv-x="593" 
d="M252 4v-4h-226v4c59 18 73 44 73 132v201c0 97 -6 116 -85 136v4l88 17c0 123 47 260 211 260c116 0 177 -69 177 -155c0 -84 -102 -140 -143 -172v-4c69 -26 219 -91 219 -225c0 -136 -123 -210 -261 -210v15c106 7 178 63 178 168c0 118 -136 183 -225 214l-3 8
c106 52 156 130 156 203c0 84 -45 133 -102 133c-80 0 -130 -61 -130 -219v-374c0 -88 14 -114 73 -132z" />
    <glyph glyph-name="dotlessi" unicode="&#x131;" horiz-adv-x="289" 
d="M26 478v4c57 4 121 23 160 40h4v-399c0 -82 14 -101 73 -119v-4h-225v4c59 18 73 37 73 119v234c0 88 -15 101 -85 121z" />
    <glyph glyph-name="a.smcp" horiz-adv-x="576" 
d="M145 196l120 320h65l124 -320c53 -138 73 -175 122 -192v-4h-224v4c37 8 58 19 58 51c0 24 -11 66 -33 127h-200c-10 -29 -31 -76 -31 -115c0 -40 21 -54 65 -63v-4h-207v4c56 16 83 38 141 192zM368 209l-94 247l-87 -247h181z" />
    <glyph glyph-name="b.smcp" horiz-adv-x="514" 
d="M192 250v-225h78c75 0 122 37 122 108c0 79 -61 117 -133 117h-67zM192 485v-211h60c82 0 112 47 112 109c0 60 -31 102 -117 102h-55zM272 0h-232v4c59 18 73 35 73 132v238c0 97 -14 114 -73 132v4h224c110 0 185 -30 185 -124c0 -68 -54 -98 -106 -116
c68 -11 136 -51 136 -127c0 -102 -96 -143 -207 -143z" />
    <glyph glyph-name="c.smcp" horiz-adv-x="547" 
d="M330 -12c-162 0 -288 105 -288 259c0 167 149 275 292 275c61 0 130 -18 161 -32v-114h-6c-39 83 -92 124 -162 124c-119 0 -192 -107 -192 -243c0 -143 82 -248 200 -248c73 0 131 46 172 133h4l-9 -119c-32 -18 -108 -35 -172 -35z" />
    <glyph glyph-name="d.smcp" horiz-adv-x="618" 
d="M288 0h-248v4c59 18 73 35 73 132v238c0 97 -14 114 -73 132v4h255c160 0 292 -84 292 -243c0 -173 -123 -267 -299 -267zM192 485v-460h98c134 0 204 105 204 239c0 121 -81 221 -195 221h-107z" />
    <glyph glyph-name="e.smcp" horiz-adv-x="480" 
d="M192 485v-210h77c53 0 74 14 102 61h4v-146h-4c-28 47 -49 60 -102 60h-77v-225h94c68 0 84 4 161 108h4l-19 -133h-392v4c59 18 73 35 73 132v238c0 97 -14 114 -73 132v4h371v-122h-4c-47 93 -72 97 -142 97h-73z" />
    <glyph glyph-name="f.smcp" horiz-adv-x="472" 
d="M279 242h-87v-106c0 -97 20 -114 89 -132v-4h-241v4c59 18 73 35 73 132v238c0 97 -14 114 -73 132v4h381v-121h-5c-52 92 -71 96 -141 96h-83v-218h87c53 0 74 15 102 62h4v-148h-4c-28 47 -49 61 -102 61z" />
    <glyph glyph-name="g.smcp" horiz-adv-x="596" 
d="M346 500c-119 0 -211 -101 -211 -244c0 -142 89 -242 213 -242c42 0 84 12 101 19v123c0 59 -11 78 -58 93v4h179v-5c-34 -12 -43 -25 -43 -92v-136c-68 -18 -133 -32 -192 -32c-158 0 -295 110 -295 264c0 171 170 269 312 269c62 0 130 -18 161 -32v-114h-6
c-40 86 -93 125 -161 125z" />
    <glyph glyph-name="h.smcp" horiz-adv-x="655" 
d="M463 136v113h-271v-113c0 -97 14 -115 73 -132v-4h-225v4c59 17 73 35 73 132v238c0 97 -14 114 -73 132v4h225v-4c-59 -18 -73 -35 -73 -132v-98h271v98c0 97 -14 114 -73 132v4h225v-4c-59 -18 -73 -35 -73 -132v-238c0 -97 14 -115 73 -132v-4h-225v4
c59 17 73 35 73 132z" />
    <glyph glyph-name="i.smcp" horiz-adv-x="305" 
d="M113 136v238c0 97 -14 114 -73 132v4h225v-4c-59 -18 -73 -35 -73 -132v-238c0 -97 14 -115 73 -132v-4h-225v4c59 17 73 35 73 132z" />
    <glyph glyph-name="j.smcp" horiz-adv-x="304" 
d="M192 374v-348c0 -108 -73 -156 -140 -188l-5 11c43 29 66 69 66 145v380c0 97 -14 114 -73 132v4h225v-4c-59 -18 -73 -35 -73 -132z" />
    <glyph glyph-name="k.smcp" horiz-adv-x="575" 
d="M113 131v248c0 87 -15 109 -79 127v4h239v-4c-64 -18 -79 -40 -79 -127v-144l151 150c33 33 48 64 49 83c0 17 -16 28 -49 36v6h215v-4c-52 -15 -87 -43 -176 -125l-70 -65l139 -194c66 -92 92 -105 135 -118v-4h-250v4c55 14 73 32 8 127l-90 132l-62 -59v-73
c0 -87 15 -109 79 -127v-4h-239v4c64 18 79 40 79 127z" />
    <glyph glyph-name="l.smcp" horiz-adv-x="459" 
d="M40 510h225v-4c-59 -18 -73 -35 -73 -132v-349h84c68 0 84 4 161 108h4l-19 -133h-382v4c59 18 73 35 73 132v238c0 97 -14 114 -73 132v4z" />
    <glyph glyph-name="m.smcp" horiz-adv-x="724" 
d="M616 390l15 -232c7 -114 11 -132 70 -154v-4h-204v4c48 15 59 26 59 77c0 19 -1 39 -3 67l-17 283l-185 -436h-30l-186 438l-16 -285c-1 -18 -2 -34 -2 -48c0 -56 11 -80 62 -96v-4h-179v4c57 14 71 61 78 155l17 220c1 19 2 34 2 48c0 43 -15 63 -67 79v4h153l177 -412
l173 412h148v-4c-57 -14 -66 -37 -66 -83c0 -10 0 -21 1 -33z" />
    <glyph glyph-name="n.smcp" horiz-adv-x="629" 
d="M210 4v-4h-198v4c65 21 79 37 79 204v217c0 37 -26 67 -72 81v4h140l339 -395v187c0 164 -14 183 -79 204v4h198v-4c-65 -21 -79 -37 -79 -204v-309h-42l-365 426v-211c0 -164 14 -183 79 -204z" />
    <glyph glyph-name="o.smcp" horiz-adv-x="636" 
d="M318 -12c-141 0 -272 114 -272 268c0 153 137 265 272 265c134 0 272 -112 272 -265c0 -154 -132 -268 -272 -268zM318 10c112 0 179 122 179 246c0 129 -72 244 -179 244c-108 0 -180 -115 -180 -244c0 -124 67 -246 180 -246z" />
    <glyph glyph-name="p.smcp" horiz-adv-x="484" 
d="M192 485v-234h77c87 0 110 70 110 122c0 54 -24 112 -104 112h-83zM282 227h-90v-91c0 -97 20 -114 89 -132v-4h-241v4c59 18 73 35 73 132v238c0 97 -14 114 -73 132v4h249c112 0 176 -43 176 -134c0 -104 -86 -149 -183 -149z" />
    <glyph glyph-name="q.smcp" horiz-adv-x="636" 
d="M318 -12c-141 0 -272 114 -272 268c0 153 137 265 272 265c134 0 272 -112 272 -265c0 -125 -86 -223 -193 -256c169 -75 287 -114 422 -114c44 0 85 11 117 20v-4c-39 -40 -95 -79 -193 -79c-47 0 -183 30 -329 119l-78 47c-7 0 -12 -1 -18 -1zM318 10
c112 0 179 122 179 246c0 129 -72 244 -179 244c-108 0 -180 -115 -180 -244c0 -124 67 -246 180 -246z" />
    <glyph glyph-name="r.smcp" horiz-adv-x="554" 
d="M40 506v4h247c110 0 179 -42 179 -129c0 -76 -64 -116 -127 -134l102 -139c63 -87 97 -98 143 -104v-4h-59c-112 0 -112 4 -167 89l-92 142h-74v-95c0 -97 14 -114 73 -132v-4h-225v4c59 18 73 35 73 132v238c0 97 -14 114 -73 132zM192 485v-230h71c65 0 115 41 115 117
c0 65 -38 113 -103 113h-83z" />
    <glyph glyph-name="s.smcp" horiz-adv-x="431" 
d="M50 29v132h4c45 -103 101 -153 165 -153c57 0 103 41 103 92c0 126 -267 108 -267 283c0 88 76 139 165 139c40 0 84 -10 130 -29v-121h-5c-39 90 -90 130 -141 130c-47 0 -91 -35 -91 -87c0 -123 270 -100 270 -279c0 -86 -70 -148 -177 -148c-47 0 -103 12 -156 41z
" />
    <glyph glyph-name="t.smcp" horiz-adv-x="521" 
d="M344 485h-44v-349c0 -97 14 -114 73 -132v-4h-225v4c59 18 73 35 73 132v349h-45c-70 0 -87 -12 -142 -96h-4l10 121h440l10 -121h-4c-55 84 -72 96 -142 96z" />
    <glyph glyph-name="u.smcp" horiz-adv-x="633" 
d="M185 374v-246c0 -58 44 -108 141 -108c95 0 156 46 156 121v161c0 164 -14 183 -79 204v4h197v-4c-65 -21 -79 -37 -79 -204v-163c0 -91 -82 -150 -206 -150c-119 0 -209 56 -209 150v235c0 97 -14 114 -73 132v4h225v-4c-59 -18 -73 -35 -73 -132z" />
    <glyph glyph-name="v.smcp" horiz-adv-x="580" 
d="M430 314l-126 -321h-58l-122 321c-57 149 -74 171 -123 192v4h223v-4c-40 -11 -58 -25 -58 -58c0 -21 13 -72 36 -132l97 -259l99 269c21 56 33 94 33 119c0 35 -20 50 -65 61v4h206v-4c-57 -19 -82 -38 -142 -192z" />
    <glyph glyph-name="w.smcp" horiz-adv-x="851" 
d="M709 314l-116 -321h-48l-132 390l-135 -390h-47l-106 321c-50 151 -68 170 -117 192v4h228v-4c-40 -11 -58 -24 -58 -60c0 -17 13 -66 31 -128l71 -234l84 242c15 44 23 78 23 105c0 42 -20 64 -63 75v4h222v-4c-40 -11 -57 -24 -57 -59c0 -30 10 -78 36 -153l71 -209
l84 241c19 56 27 93 27 117c0 37 -20 51 -66 63v4h205v-4c-58 -21 -81 -37 -137 -192z" />
    <glyph glyph-name="x.smcp" horiz-adv-x="573" 
d="M346 132l-69 95l-36 -49c-49 -66 -72 -105 -72 -130c0 -23 20 -35 58 -44v-4h-223v4c63 23 92 38 197 171l59 75l-85 121c-69 98 -100 110 -151 135v4h253v-4c-43 -13 -63 -25 -63 -45c0 -19 17 -46 47 -88l52 -73l26 34c50 64 73 103 73 128c0 22 -18 34 -54 44v4h212
v-4c-58 -22 -85 -34 -186 -160l-55 -69l100 -138c73 -101 93 -116 153 -135v-4h-254v4c41 11 64 19 64 41c0 18 -15 44 -46 87z" />
    <glyph glyph-name="y.smcp" horiz-adv-x="476" 
d="M2 506v4h191v-4c-23 -5 -42 -15 -42 -36c0 -24 14 -56 43 -105l66 -114l59 115c24 47 39 80 39 102c0 21 -20 29 -45 38v4h161v-4c-38 -12 -75 -52 -123 -145l-77 -148v-77c0 -97 14 -114 73 -132v-4h-225v4c59 18 73 35 73 132v86l-77 139c-58 105 -87 135 -116 145z
" />
    <glyph glyph-name="z.smcp" horiz-adv-x="481" 
d="M435 0h-412v4l315 481h-163c-56 0 -74 -21 -135 -107h-4l15 132h388v-4l-313 -481h176c56 0 73 12 149 113h4z" />
    <glyph glyph-name="ae.smcp" horiz-adv-x="767" 
d="M327 0v4c59 18 73 35 73 132v43h-178c-62 -123 -67 -158 22 -175v-4h-234v4c54 20 105 59 177 192l79 146c69 128 40 149 -46 164v4h478v-122h-4c-47 93 -72 97 -142 97h-73v-210h77c53 0 74 14 102 61h4v-146h-4c-28 47 -49 60 -102 60h-77v-225h94c68 0 84 4 161 108h4
l-19 -133h-392zM327 381l-88 -170h161v271c-20 0 -23 -4 -73 -101z" />
    <glyph glyph-name="oe.smcp" horiz-adv-x="861" 
d="M318 -12c-141 0 -272 114 -272 268c0 153 137 265 272 265c70 0 133 -32 176 -84v73h298v-122h-4c-47 93 -72 97 -142 97h-73v-210h77c53 0 74 14 102 61h4v-146h-4c-28 47 -49 60 -102 60h-77v-225h94c68 0 84 4 161 108h4l-19 -133h-319v72c-42 -52 -104 -84 -176 -84z
M318 10c112 0 179 122 179 246c0 129 -72 244 -179 244c-108 0 -180 -115 -180 -244c0 -124 67 -246 180 -246z" />
    <glyph glyph-name="eth.smcp" horiz-adv-x="618" 
d="M113 249h-72v27h72v98c0 97 -14 114 -73 132v4h255c160 0 292 -84 292 -243c0 -173 -123 -267 -299 -267h-248v4c59 18 73 35 73 132v113zM192 249v-224h98c134 0 204 105 204 239c0 121 -81 221 -195 221h-107v-209h114v-27h-114z" />
    <glyph glyph-name="eng.smcp" horiz-adv-x="629" 
d="M210 4v-4h-198v4c65 21 79 37 79 204v217c0 37 -26 67 -72 81v4h141l338 -393v185c0 164 -14 183 -79 204v4h198v-4c-65 -21 -79 -37 -79 -204v-193c0 -120 -25 -271 -146 -271c-34 0 -49 14 -49 42c0 10 2 20 9 33c13 -6 28 -11 51 -11c58 0 78 48 88 97l-360 420v-211
c0 -164 14 -183 79 -204z" />
    <glyph glyph-name="thorn.smcp" horiz-adv-x="484" 
d="M282 138h-90c0 -99 19 -116 89 -134v-4h-241v4c59 18 73 35 73 132v261c0 74 -19 92 -73 109v4h225v-4c-52 -16 -69 -32 -73 -97h97c112 0 176 -36 176 -127c0 -104 -86 -144 -183 -144zM192 384v-222h77c87 0 110 65 110 117c0 54 -24 105 -104 105h-83z" />
    <glyph glyph-name="germandbls.smcp" horiz-adv-x="835" 
d="M51 29v132h4c45 -103 101 -153 165 -153c57 0 103 41 103 92c0 126 -267 108 -267 283c0 88 76 139 165 139c40 0 84 -10 130 -29v-121h-5c-39 90 -90 130 -141 130c-47 0 -91 -35 -91 -87c0 -123 270 -100 270 -279c0 -86 -70 -148 -177 -148c-47 0 -103 12 -156 41z
M451 29v132h4c45 -103 101 -153 165 -153c57 0 103 41 103 92c0 126 -267 108 -267 283c0 88 76 139 165 139c40 0 84 -10 130 -29v-121h-5c-39 90 -90 130 -141 130c-47 0 -91 -35 -91 -87c0 -123 270 -100 270 -279c0 -86 -70 -148 -177 -148c-47 0 -103 12 -156 41z" />
    <glyph glyph-name="dotlessi.smcp" horiz-adv-x="305" 
d="M113 136v238c0 97 -14 114 -73 132v4h225v-4c-59 -18 -73 -35 -73 -132v-238c0 -97 14 -115 73 -132v-4h-225v4c59 17 73 35 73 132z" />
    <glyph glyph-name="ff" horiz-adv-x="614" 
d="M306 476h-115v-345c0 -82 14 -109 83 -127v-4h-238v4c59 18 73 45 73 127v345h-99l10 34h89v51c0 135 79 190 169 190c62 0 102 -31 102 -70c0 -29 -22 -51 -52 -51c-25 0 -48 16 -48 46c0 25 15 42 32 54c-10 3 -20 4 -28 4c-50 0 -93 -27 -93 -159v-65h115v-34z
M613 476h-115v-345c0 -82 14 -109 83 -127v-4h-238v4c59 18 73 45 73 127v345h-99l10 34h89v51c0 135 79 190 169 190c62 0 102 -31 102 -70c0 -29 -22 -51 -52 -51c-25 0 -48 16 -48 46c0 25 15 42 32 54c-10 3 -20 4 -28 4c-50 0 -93 -27 -93 -159v-65h115v-34z" />
    <glyph glyph-name="fi" unicode="&#xfb01;" horiz-adv-x="600" 
d="M335 476h-141v-345c0 -82 14 -109 83 -127v-4h-236v4c59 18 73 45 73 127v345h-101l10 34h91v51c0 148 128 190 232 190c92 0 149 -25 149 -74c0 -30 -23 -51 -51 -51c-26 0 -49 16 -49 46c0 24 15 40 32 51c-19 6 -45 9 -70 9c-74 0 -163 -28 -163 -157v-65h155
c75 0 138 7 148 12h4v-399c0 -82 14 -101 73 -119v-4h-225v4c59 18 73 37 73 119v234c0 90 -13 119 -87 119z" />
    <glyph glyph-name="fl" unicode="&#xfb02;" horiz-adv-x="596" 
d="M309 476h-115v-345c0 -82 14 -109 83 -127v-4h-236v4c59 18 73 45 73 127v345h-101l10 34h91v50c0 148 116 190 217 190c59 0 97 -10 116 -31c18 9 34 18 50 31h4v-627c0 -82 14 -101 73 -119v-4h-227v4c59 18 73 37 73 119v503c-30 0 -55 17 -55 45c0 24 15 40 32 51
c-17 6 -37 10 -64 10c-71 0 -139 -35 -139 -158v-64h115v-34z" />
    <glyph glyph-name="ffi" horiz-adv-x="903" 
d="M306 476h-115v-345c0 -82 14 -109 83 -127v-4h-238v4c59 18 73 45 73 127v345h-99l10 34h89v51c0 135 79 190 169 190c62 0 102 -31 102 -70c0 -29 -22 -51 -52 -51c-25 0 -48 16 -48 46c0 25 15 42 32 54c-10 3 -20 4 -28 4c-50 0 -93 -27 -93 -159v-65h115v-34z
M638 476h-141v-345c0 -82 14 -109 83 -127v-4h-236v4c59 18 73 45 73 127v345h-101l10 34h91v51c0 148 128 190 232 190c92 0 149 -25 149 -74c0 -30 -23 -51 -51 -51c-26 0 -49 16 -49 46c0 24 15 40 32 51c-19 6 -45 9 -70 9c-74 0 -163 -28 -163 -157v-65h155
c75 0 138 7 148 12h4v-399c0 -82 14 -101 73 -119v-4h-225v4c59 18 73 37 73 119v234c0 90 -13 119 -87 119z" />
    <glyph glyph-name="ffl" horiz-adv-x="898" 
d="M306 476h-115v-345c0 -82 14 -109 83 -127v-4h-238v4c59 18 73 45 73 127v345h-99l10 34h89v51c0 135 79 190 169 190c62 0 102 -31 102 -70c0 -29 -22 -51 -52 -51c-25 0 -48 16 -48 46c0 25 15 42 32 54c-10 3 -20 4 -28 4c-50 0 -93 -27 -93 -159v-65h115v-34z
M611 476h-115v-345c0 -82 14 -109 83 -127v-4h-236v4c59 18 73 45 73 127v345h-101l10 34h91v50c0 148 116 190 217 190c59 0 97 -10 116 -31c18 9 34 18 50 31h4v-627c0 -82 14 -101 73 -119v-4h-227v4c59 18 73 37 73 119v503c-30 0 -55 17 -55 45c0 24 15 40 32 51
c-17 6 -37 10 -64 10c-71 0 -139 -35 -139 -158v-64h115v-34z" />
    <glyph glyph-name="c_t" horiz-adv-x="800" 
d="M303 501c-110 0 -170 -94 -170 -226c0 -154 89 -225 188 -225c63 0 111 29 137 51l7 -5c-20 -32 -89 -108 -194 -108c-121 0 -223 93 -223 253c0 167 112 281 251 281c66 0 140 -27 140 -81c0 -31 -24 -59 -58 -59c-29 0 -54 21 -54 51c0 24 13 49 31 60
c-15 5 -35 8 -55 8zM807 61l4 -5c-25 -23 -71 -64 -137 -64c-71 0 -113 46 -113 161v319h-80v4l41 23c46 26 76 63 116 131h4v-120h138v-36h-138v-337c0 -63 31 -93 84 -93c24 0 54 6 81 17z" />
    <glyph glyph-name="s_p" horiz-adv-x="1044" 
d="M51 29v132h4c45 -103 101 -153 165 -153c57 0 103 41 103 92c0 126 -267 108 -267 283c0 88 76 139 165 139c40 0 84 -10 130 -29v-121h-5c-39 90 -90 130 -141 130c-47 0 -91 -35 -91 -87c0 -123 270 -100 270 -279c0 -86 -70 -148 -177 -148c-47 0 -103 12 -156 41z
M711 -12c-32 0 -83 4 -110 9v-84c0 -103 11 -120 83 -139v-4h-238v4c59 18 73 38 73 120v438c0 115 -11 125 -85 146v4c72 7 124 23 163 40h4v-70c24 25 93 70 177 70c122 0 222 -92 222 -242c0 -202 -171 -292 -289 -292zM601 438v-396c21 -11 66 -33 112 -33
c104 0 199 93 199 250c0 144 -89 219 -184 219c-57 0 -103 -23 -127 -40z" />
    <glyph glyph-name="s_t" unicode="&#xfb06;" horiz-adv-x="734" 
d="M51 29v132h4c45 -103 101 -153 165 -153c57 0 103 41 103 92c0 126 -267 108 -267 283c0 88 76 139 165 139c40 0 84 -10 130 -29v-121h-5c-39 90 -90 130 -141 130c-47 0 -91 -35 -91 -87c0 -123 270 -100 270 -279c0 -86 -70 -148 -177 -148c-47 0 -103 12 -156 41z
M741 61l4 -5c-25 -23 -71 -64 -137 -64c-71 0 -113 46 -113 161v319h-80v4l41 23c46 26 76 63 116 131h4v-120h138v-36h-138v-337c0 -63 31 -93 84 -93c24 0 54 6 81 17z" />
    <glyph glyph-name="longs" unicode="&#x17f;" horiz-adv-x="312" 
d="M194 578v-447c0 -82 14 -109 83 -127v-4h-238v4c59 18 73 45 73 127v433c0 135 78 190 174 190c52 0 97 -30 97 -70c0 -30 -23 -51 -51 -51c-26 0 -49 16 -49 46c0 25 15 42 32 54c-10 2 -20 4 -28 4c-50 0 -93 -28 -93 -159z" />
    <glyph glyph-name="dotlessj" unicode="&#x237;" horiz-adv-x="285" 
d="M187 522h4v-525c0 -151 -87 -211 -154 -237l-3 5c48 30 77 104 77 193v399c0 88 -15 101 -85 121v4c57 4 122 23 161 40z" />
    <glyph glyph-name="grave" unicode="`" horiz-adv-x="239" 
d="M27 690h93c13 -44 39 -88 72 -122h-5c-69 30 -123 71 -160 122z" />
    <glyph glyph-name="acute" unicode="&#xb4;" horiz-adv-x="239" 
d="M99 690h93c-37 -51 -91 -92 -160 -122h-5c32 34 59 78 72 122z" />
    <glyph glyph-name="dieresis" unicode="&#xa8;" horiz-adv-x="334" 
d="M289 650c0 -27 -22 -51 -50 -51c-27 0 -51 24 -51 51s24 50 51 50c28 0 50 -23 50 -50zM145 650c0 -27 -23 -51 -50 -51c-28 0 -51 24 -51 51s23 50 51 50c27 0 50 -23 50 -50z" />
    <glyph glyph-name="dotaccent" unicode="&#x2d9;" horiz-adv-x="291" 
d="M204 643c0 -30 -25 -54 -54 -54c-30 0 -54 24 -54 54c0 29 24 54 54 54c29 0 54 -25 54 -54z" />
    <glyph glyph-name="circumflex" unicode="&#x2c6;" horiz-adv-x="305" 
d="M178 690l90 -122h-8l-108 64l-107 -64h-8l88 122h53z" />
    <glyph glyph-name="caron" unicode="&#x2c7;" horiz-adv-x="305" 
d="M152 626l108 64h8l-90 -122h-53l-88 122h8z" />
    <glyph glyph-name="breve" unicode="&#x2d8;" horiz-adv-x="314" 
d="M157 627c40 0 93 22 113 63h4c-10 -55 -46 -120 -117 -120s-107 65 -117 120h4c20 -41 72 -63 113 -63z" />
    <glyph glyph-name="macron" unicode="&#xaf;" horiz-adv-x="284" 
d="M267 652v-45h-250v45h250z" />
    <glyph glyph-name="uni02C9" unicode="&#x2c9;" horiz-adv-x="284" 
d="M267 652v-45h-250v45h250z" />
    <glyph glyph-name="ring" unicode="&#x2da;" horiz-adv-x="300" 
d="M254 667c0 -56 -48 -102 -104 -102s-104 46 -104 102s48 102 104 102s104 -46 104 -102zM150 596c39 0 68 32 68 71s-29 71 -68 71s-69 -32 -69 -71s30 -71 69 -71z" />
    <glyph glyph-name="tilde" unicode="&#x2dc;" horiz-adv-x="343" 
d="M223 613c-49 0 -96 34 -129 34c-30 0 -51 -19 -59 -39l-8 2c5 16 33 84 94 84c47 0 94 -31 129 -31c29 0 50 16 58 36l8 -2c-6 -18 -33 -84 -93 -84z" />
    <glyph glyph-name="hungarumlaut" unicode="&#x2dd;" horiz-adv-x="291" 
d="M72 690h76c-22 -46 -53 -86 -91 -122h-9c12 40 22 79 24 122zM191 690h76c-22 -46 -53 -86 -91 -122h-9c12 40 22 79 24 122z" />
    <glyph glyph-name="periodcentered" unicode="&#xb7;" horiz-adv-x="223" 
d="M172 356c0 -33 -28 -60 -60 -60c-33 0 -61 27 -61 60s28 60 61 60c32 0 60 -27 60 -60z" />
    <glyph glyph-name="cedilla" unicode="&#xb8;" horiz-adv-x="239" 
d="M29 -183l12 11c23 -10 46 -14 66 -14c23 0 58 13 58 47c0 38 -61 53 -96 54l65 85h28l-33 -51c38 -4 95 -29 95 -80c0 -58 -64 -78 -104 -78c-41 0 -72 12 -91 26z" />
    <glyph glyph-name="ogonek" unicode="&#x2db;" horiz-adv-x="192" 
d="M172 -171v-4c-12 -15 -38 -34 -71 -34c-48 0 -74 32 -74 66c0 55 84 108 140 143h5c-34 -37 -75 -88 -75 -133c0 -23 16 -42 47 -42c8 0 18 1 28 4z" />
    <glyph glyph-name="caron.alt" horiz-adv-x="224" 
d="M117 484h-10c-4 69 -38 149 -38 178c0 24 19 42 43 42c23 0 43 -18 43 -42c0 -29 -34 -109 -38 -178z" />
    <glyph glyph-name="commaaccent" unicode="&#xf6c3;" horiz-adv-x="223" 
d="M53 -254l-3 2c29 37 39 68 39 90c0 27 -27 33 -27 67c0 29 22 49 49 49c30 0 50 -26 50 -55c0 -54 -55 -116 -108 -153z" />
    <glyph glyph-name="revcommaaccent" horiz-adv-x="223" 
d="M165 729l3 -2c-29 -37 -39 -68 -39 -90c0 -27 27 -33 27 -68c0 -28 -22 -48 -49 -48c-30 0 -50 26 -50 55c0 53 55 116 108 153z" />
    <glyph glyph-name="dblgrave" unicode="&#xf6d6;" horiz-adv-x="291" 
d="M167 690h76c2 -43 12 -82 24 -122h-9c-38 36 -69 76 -91 122zM48 690h76c2 -43 12 -82 24 -122h-9c-38 36 -69 76 -91 122z" />
    <glyph glyph-name="dieresisacute" unicode="&#xf6d7;" horiz-adv-x="334" 
d="M289 650c0 -27 -22 -51 -50 -51c-27 0 -51 24 -51 51s24 50 51 50c28 0 50 -23 50 -50zM145 650c0 -27 -23 -51 -50 -51c-28 0 -51 24 -51 51s23 50 51 50c27 0 50 -23 50 -50zM189 845h93c-37 -51 -91 -92 -160 -122h-5c32 34 59 78 72 122z" />
    <glyph glyph-name="dieresisgrave" unicode="&#xf6d8;" horiz-adv-x="334" 
d="M289 650c0 -27 -22 -51 -50 -51c-27 0 -51 24 -51 51s24 50 51 50c28 0 50 -23 50 -50zM145 650c0 -27 -23 -51 -50 -51c-28 0 -51 24 -51 51s23 50 51 50c27 0 50 -23 50 -50zM62 840h93c13 -44 39 -88 72 -122h-5c-69 30 -123 71 -160 122z" />
    <glyph glyph-name="grave.cap" horiz-adv-x="239" 
d="M27 860h93c13 -44 39 -88 72 -122h-5c-69 30 -123 71 -160 122z" />
    <glyph glyph-name="acute.cap" horiz-adv-x="239" 
d="M99 865h93c-37 -51 -91 -92 -160 -122h-5c32 34 59 78 72 122z" />
    <glyph glyph-name="dieresis.cap" horiz-adv-x="334" 
d="M289 800c0 -27 -22 -51 -50 -51c-27 0 -51 24 -51 51s24 50 51 50c28 0 50 -23 50 -50zM145 800c0 -27 -23 -51 -50 -51c-28 0 -51 24 -51 51s23 50 51 50c27 0 50 -23 50 -50z" />
    <glyph glyph-name="dotaccent.cap" horiz-adv-x="291" 
d="M204 803c0 -30 -25 -54 -54 -54c-30 0 -54 24 -54 54c0 29 24 54 54 54c29 0 54 -25 54 -54z" />
    <glyph glyph-name="circumflex.cap" horiz-adv-x="305" 
d="M178 870l90 -122h-8l-108 64l-107 -64h-8l88 122h53z" />
    <glyph glyph-name="caron.cap" horiz-adv-x="305" 
d="M152 806l108 64h8l-90 -122h-53l-88 122h8z" />
    <glyph glyph-name="breve.cap" horiz-adv-x="314" 
d="M157 802c40 0 93 22 113 63h4c-10 -55 -46 -120 -117 -120s-107 65 -117 120h4c20 -41 72 -63 113 -63z" />
    <glyph glyph-name="macron.cap" horiz-adv-x="284" 
d="M267 807v-45h-250v45h250z" />
    <glyph glyph-name="ring.cap" horiz-adv-x="300" 
d="M254 842c0 -56 -48 -102 -104 -102s-104 46 -104 102s48 102 104 102s104 -46 104 -102zM150 771c39 0 68 32 68 71s-29 71 -68 71s-69 -32 -69 -71s30 -71 69 -71z" />
    <glyph glyph-name="tilde.cap" horiz-adv-x="343" 
d="M223 753c-49 0 -96 34 -129 34c-30 0 -51 -19 -59 -39l-8 2c5 16 33 84 94 84c47 0 94 -31 129 -31c29 0 50 16 58 36l8 -2c-6 -18 -33 -84 -93 -84z" />
    <glyph glyph-name="hungarumlaut.cap" horiz-adv-x="291" 
d="M72 870h76c-22 -46 -53 -86 -91 -122h-9c12 40 22 79 24 122zM191 870h76c-22 -46 -53 -86 -91 -122h-9c12 40 22 79 24 122z" />
    <glyph glyph-name="cedilla.cap" horiz-adv-x="239" 
d="M29 -183l12 11c23 -10 46 -14 66 -14c23 0 58 13 58 47c0 38 -61 53 -96 54l65 85h28l-33 -51c38 -4 95 -29 95 -80c0 -58 -64 -78 -104 -78c-41 0 -72 12 -91 26z" />
    <glyph glyph-name="ogonek.cap" horiz-adv-x="192" 
d="M172 -171v-4c-12 -15 -38 -34 -71 -34c-48 0 -74 32 -74 66c0 55 84 108 140 143h5c-34 -37 -75 -88 -75 -133c0 -23 16 -42 47 -42c8 0 18 1 28 4z" />
    <glyph glyph-name="commaaccent.cap" horiz-adv-x="223" 
d="M53 -254l-3 2c29 37 39 68 39 90c0 27 -27 33 -27 67c0 29 22 49 49 49c30 0 50 -26 50 -55c0 -54 -55 -116 -108 -153z" />
    <glyph glyph-name="dblgrave.cap" horiz-adv-x="291" 
d="M167 690h76c2 -43 12 -82 24 -122h-9c-38 36 -69 76 -91 122zM48 690h76c2 -43 12 -82 24 -122h-9c-38 36 -69 76 -91 122z" />
    <glyph glyph-name="dieresisacute.cap" horiz-adv-x="334" 
d="M289 650c0 -27 -22 -51 -50 -51c-27 0 -51 24 -51 51s24 50 51 50c28 0 50 -23 50 -50zM145 650c0 -27 -23 -51 -50 -51c-28 0 -51 24 -51 51s23 50 51 50c27 0 50 -23 50 -50zM189 845h93c-37 -51 -91 -92 -160 -122h-5c32 34 59 78 72 122z" />
    <glyph glyph-name="dieresisgrave.cap" horiz-adv-x="334" 
d="M289 650c0 -27 -22 -51 -50 -51c-27 0 -51 24 -51 51s24 50 51 50c28 0 50 -23 50 -50zM145 650c0 -27 -23 -51 -50 -51c-28 0 -51 24 -51 51s23 50 51 50c27 0 50 -23 50 -50zM62 840h93c13 -44 39 -88 72 -122h-5c-69 30 -123 71 -160 122z" />
    <glyph glyph-name="Grave.smcp" horiz-adv-x="239" 
d="M27 690h93c13 -44 39 -88 72 -122h-5c-69 30 -123 71 -160 122z" />
    <glyph glyph-name="Acute.smcp" horiz-adv-x="239" 
d="M99 690h93c-37 -51 -91 -92 -160 -122h-5c32 34 59 78 72 122z" />
    <glyph glyph-name="Dieresis.smcp" horiz-adv-x="334" 
d="M289 650c0 -27 -22 -51 -50 -51c-27 0 -51 24 -51 51s24 50 51 50c28 0 50 -23 50 -50zM145 650c0 -27 -23 -51 -50 -51c-28 0 -51 24 -51 51s23 50 51 50c27 0 50 -23 50 -50z" />
    <glyph glyph-name="Dotaccent.smcp" horiz-adv-x="291" 
d="M204 643c0 -30 -25 -54 -54 -54c-30 0 -54 24 -54 54c0 29 24 54 54 54c29 0 54 -25 54 -54z" />
    <glyph glyph-name="Circumflex.smcp" horiz-adv-x="305" 
d="M178 690l90 -122h-8l-108 64l-107 -64h-8l88 122h53z" />
    <glyph glyph-name="Caron.smcp" horiz-adv-x="305" 
d="M152 626l108 64h8l-90 -122h-53l-88 122h8z" />
    <glyph glyph-name="Breve.smcp" horiz-adv-x="314" 
d="M157 627c40 0 93 22 113 63h4c-10 -55 -46 -120 -117 -120s-107 65 -117 120h4c20 -41 72 -63 113 -63z" />
    <glyph glyph-name="Macron.smcp" horiz-adv-x="284" 
d="M267 652v-45h-250v45h250z" />
    <glyph glyph-name="Ring.smcp" horiz-adv-x="300" 
d="M254 667c0 -56 -48 -102 -104 -102s-104 46 -104 102s48 102 104 102s104 -46 104 -102zM150 596c39 0 68 32 68 71s-29 71 -68 71s-69 -32 -69 -71s30 -71 69 -71z" />
    <glyph glyph-name="Tilde.smcp" horiz-adv-x="343" 
d="M223 613c-49 0 -96 34 -129 34c-30 0 -51 -19 -59 -39l-8 2c5 16 33 84 94 84c47 0 94 -31 129 -31c29 0 50 16 58 36l8 -2c-6 -18 -33 -84 -93 -84z" />
    <glyph glyph-name="Hungarumlaut.smcp" horiz-adv-x="291" 
d="M72 690h76c-22 -46 -53 -86 -91 -122h-9c12 40 22 79 24 122zM191 690h76c-22 -46 -53 -86 -91 -122h-9c12 40 22 79 24 122z" />
    <glyph glyph-name="Cedilla.smcp" horiz-adv-x="239" 
d="M29 -183l12 11c23 -10 46 -14 66 -14c23 0 58 13 58 47c0 38 -61 53 -96 54l65 85h28l-33 -51c38 -4 95 -29 95 -80c0 -58 -64 -78 -104 -78c-41 0 -72 12 -91 26z" />
    <glyph glyph-name="Ogonek.smcp" horiz-adv-x="192" 
d="M172 -171v-4c-12 -15 -38 -34 -71 -34c-48 0 -74 32 -74 66c0 55 84 108 140 143h5c-34 -37 -75 -88 -75 -133c0 -23 16 -42 47 -42c8 0 18 1 28 4z" />
    <glyph glyph-name="commaaccent.smcp" horiz-adv-x="223" 
d="M53 -259l-3 2c29 37 38 66 38 89c0 28 -28 35 -28 71c0 30 23 51 51 51c32 0 53 -27 53 -58c0 -56 -58 -118 -111 -155z" />
    <glyph glyph-name="dblGrave.smcp" horiz-adv-x="291" 
d="M167 690h76c2 -43 12 -82 24 -122h-9c-38 36 -69 76 -91 122zM48 690h76c2 -43 12 -82 24 -122h-9c-38 36 -69 76 -91 122z" />
    <glyph glyph-name="DieresisAcute.smcp" horiz-adv-x="334" 
d="M289 650c0 -27 -22 -51 -50 -51c-27 0 -51 24 -51 51s24 50 51 50c28 0 50 -23 50 -50zM145 650c0 -27 -23 -51 -50 -51c-28 0 -51 24 -51 51s23 50 51 50c27 0 50 -23 50 -50zM189 845h93c-37 -51 -91 -92 -160 -122h-5c32 34 59 78 72 122z" />
    <glyph glyph-name="DieresisGrave.smcp" horiz-adv-x="334" 
d="M289 650c0 -27 -22 -51 -50 -51c-27 0 -51 24 -51 51s24 50 51 50c28 0 50 -23 50 -50zM145 650c0 -27 -23 -51 -50 -51c-28 0 -51 24 -51 51s23 50 51 50c27 0 50 -23 50 -50zM62 840h93c13 -44 39 -88 72 -122h-5c-69 30 -123 71 -160 122z" />
    <glyph glyph-name="Agrave" unicode="&#xc0;" horiz-adv-x="691" 
d="M451 0v4c41 9 60 20 60 55s-19 91 -54 190h-264c-33 -93 -52 -148 -52 -183c0 -38 18 -52 64 -62v-4h-205v4c59 23 80 52 160 265l161 428h62l154 -427c75 -208 93 -244 153 -266v-4h-239zM446 278l-122 341l-121 -341h243zM263 870h84c13 -44 40 -91 81 -122h-5
c-69 30 -123 71 -160 122z" />
    <glyph glyph-name="Aacute" unicode="&#xc1;" horiz-adv-x="691" 
d="M451 0v4c41 9 60 20 60 55s-19 91 -54 190h-264c-33 -93 -52 -148 -52 -183c0 -38 18 -52 64 -62v-4h-205v4c59 23 80 52 160 265l161 428h62l154 -427c75 -208 93 -244 153 -266v-4h-239zM446 278l-122 341l-121 -341h243zM344 870h84c-37 -51 -91 -92 -160 -122h-5
c41 31 68 78 81 122z" />
    <glyph glyph-name="Acircumflex" unicode="&#xc2;" horiz-adv-x="691" 
d="M451 0v4c41 9 60 20 60 55s-19 91 -54 190h-264c-33 -93 -52 -148 -52 -183c0 -38 18 -52 64 -62v-4h-205v4c59 23 80 52 160 265l161 428h62l154 -427c75 -208 93 -244 153 -266v-4h-239zM446 278l-122 341l-121 -341h243zM369 870l92 -122h-8l-108 69l-107 -69h-8
l90 122h49z" />
    <glyph glyph-name="Atilde" unicode="&#xc3;" horiz-adv-x="691" 
d="M451 0v4c41 9 60 20 60 55s-19 91 -54 190h-264c-33 -93 -52 -148 -52 -183c0 -38 18 -52 64 -62v-4h-205v4c59 23 80 52 160 265l161 428h62l154 -427c75 -208 93 -244 153 -266v-4h-239zM446 278l-122 341l-121 -341h243zM395 798c-44 0 -94 29 -128 29
c-28 0 -50 -19 -58 -39l-8 2c5 15 30 79 97 79c42 0 92 -26 127 -26c28 0 49 16 57 36l8 -2c-6 -17 -30 -79 -95 -79z" />
    <glyph glyph-name="Adieresis" unicode="&#xc4;" horiz-adv-x="691" 
d="M451 0v4c41 9 60 20 60 55s-19 91 -54 190h-264c-33 -93 -52 -148 -52 -183c0 -38 18 -52 64 -62v-4h-205v4c59 23 80 52 160 265l161 428h62l154 -427c75 -208 93 -244 153 -266v-4h-239zM446 278l-122 341l-121 -341h243zM464 830c0 -25 -21 -47 -47 -47
c-25 0 -47 22 -47 47s22 47 47 47c26 0 47 -22 47 -47zM320 830c0 -25 -22 -47 -47 -47c-26 0 -47 22 -47 47s21 47 47 47c25 0 47 -22 47 -47z" />
    <glyph glyph-name="Aring" unicode="&#xc5;" horiz-adv-x="691" 
d="M451 0v4c41 9 60 20 60 55s-19 91 -54 190h-264c-33 -93 -52 -148 -52 -183c0 -38 18 -52 64 -62v-4h-205v4c59 23 80 52 160 265l139 372c-34 17 -58 52 -58 92c0 58 49 105 107 105c57 0 106 -47 106 -105c0 -38 -22 -71 -53 -89l136 -374c75 -208 92 -244 153 -266v-4
h-239zM446 278l-122 341l-121 -341h243zM348 662c39 0 68 32 68 71s-29 71 -68 71s-69 -32 -69 -71s30 -71 69 -71z" />
    <glyph glyph-name="Amacron" unicode="&#x100;" horiz-adv-x="691" 
d="M451 0v4c41 9 60 20 60 55s-19 91 -54 190h-264c-33 -93 -52 -148 -52 -183c0 -38 18 -52 64 -62v-4h-205v4c59 23 80 52 160 265l161 428h62l154 -427c75 -208 93 -244 153 -266v-4h-239zM446 278l-122 341l-121 -341h243zM485 838v-40h-280v40h280z" />
    <glyph glyph-name="Abreve" unicode="&#x102;" horiz-adv-x="691" 
d="M451 0v4c41 9 60 20 60 55s-19 91 -54 190h-264c-33 -93 -52 -148 -52 -183c0 -38 18 -52 64 -62v-4h-205v4c59 23 80 52 160 265l161 428h62l154 -427c75 -208 93 -244 153 -266v-4h-239zM446 278l-122 341l-121 -341h243zM345 805c43 0 93 24 113 65h4
c-10 -55 -46 -115 -117 -115s-107 60 -117 115h4c20 -41 69 -65 113 -65z" />
    <glyph glyph-name="Aogonek" unicode="&#x104;" horiz-adv-x="691" 
d="M690 -171v-4c-12 -15 -37 -34 -72 -34c-46 0 -73 33 -73 65c0 56 80 107 140 144h-234v4c41 9 60 20 60 55s-19 91 -54 190h-264c-33 -93 -52 -148 -52 -183c0 -38 18 -52 64 -62v-4h-205v4c59 23 80 52 160 265l161 428h62l154 -427c75 -208 93 -244 153 -266v-4
c-34 -37 -83 -92 -83 -136c0 -21 11 -40 46 -40c11 0 23 2 37 5zM446 278l-122 341l-121 -341h243z" />
    <glyph glyph-name="Ccedilla" unicode="&#xc7;" horiz-adv-x="694" 
d="M312 -183l12 11c23 -10 46 -14 66 -14c23 0 58 13 58 47c0 38 -61 53 -96 54l54 71c-204 7 -358 145 -358 347c0 226 195 371 379 371c72 0 160 -22 198 -39v-134h-4c-52 116 -129 151 -206 151c-158 0 -270 -147 -270 -336c0 -196 121 -339 282 -339
c84 0 162 39 217 161h4l-13 -141c-38 -20 -121 -40 -200 -42l-23 -36c38 -4 95 -29 95 -80c0 -58 -64 -78 -104 -78c-41 0 -72 12 -91 26z" />
    <glyph glyph-name="Cacute" unicode="&#x106;" horiz-adv-x="694" 
d="M423 -15c-212 0 -375 141 -375 348c0 226 195 371 379 371c72 0 160 -22 198 -39v-134h-4c-52 116 -129 151 -206 151c-158 0 -270 -147 -270 -336c0 -196 121 -339 282 -339c84 0 162 39 217 161h4l-13 -141c-40 -21 -130 -42 -212 -42zM426 870h93
c-37 -51 -91 -92 -160 -122h-5c32 34 59 78 72 122z" />
    <glyph glyph-name="Ccircumflex" unicode="&#x108;" horiz-adv-x="694" 
d="M423 -15c-212 0 -375 141 -375 348c0 226 195 371 379 371c72 0 160 -22 198 -39v-134h-4c-52 116 -129 151 -206 151c-158 0 -270 -147 -270 -336c0 -196 121 -339 282 -339c84 0 162 39 217 161h4l-13 -141c-40 -21 -130 -42 -212 -42zM436 870l90 -122h-8l-108 64
l-107 -64h-8l88 122h53z" />
    <glyph glyph-name="Cdotaccent" unicode="&#x10a;" horiz-adv-x="694" 
d="M423 -15c-212 0 -375 141 -375 348c0 226 195 371 379 371c72 0 160 -22 198 -39v-134h-4c-52 116 -129 151 -206 151c-158 0 -270 -147 -270 -336c0 -196 121 -339 282 -339c84 0 162 39 217 161h4l-13 -141c-40 -21 -130 -42 -212 -42zM467 823c0 -30 -25 -54 -54 -54
c-30 0 -54 24 -54 54c0 29 24 54 54 54c29 0 54 -25 54 -54z" />
    <glyph glyph-name="Ccaron" unicode="&#x10c;" horiz-adv-x="694" 
d="M423 -15c-212 0 -375 141 -375 348c0 226 195 371 379 371c72 0 160 -22 198 -39v-134h-4c-52 116 -129 151 -206 151c-158 0 -270 -147 -270 -336c0 -196 121 -339 282 -339c84 0 162 39 217 161h4l-13 -141c-40 -21 -130 -42 -212 -42zM413 806l108 64h8l-90 -122h-53
l-88 122h8z" />
    <glyph glyph-name="Dcaron" unicode="&#x10e;" horiz-adv-x="762" 
d="M336 0h-299v4c69 18 85 40 85 132v418c0 92 -16 114 -85 132v4h309c207 0 381 -112 381 -334c0 -227 -161 -356 -391 -356zM206 663v-636h133c185 0 291 139 291 325c0 184 -122 311 -279 311h-145zM377 806l108 64h8l-90 -122h-53l-88 122h8z" />
    <glyph glyph-name="Dcroat" unicode="&#x110;" horiz-adv-x="757" 
d="M336 0h-299v4c69 18 85 40 85 132v204h-76v29h76v185c0 92 -16 114 -85 132v4h309c207 0 381 -112 381 -334c0 -227 -161 -356 -391 -356zM206 340v-313h133c185 0 291 139 291 325c0 184 -122 311 -279 311h-145v-294h150v-29h-150z" />
    <glyph glyph-name="Egrave" unicode="&#xc8;" 
d="M123 136v418c0 87 -16 114 -85 132v4h450v-141h-4c-52 94 -66 114 -136 114h-141v-295h135c48 0 66 15 97 64h4v-154h-4c-31 49 -49 63 -97 63h-135v-314h169c68 0 81 23 157 130h4l-20 -157h-479v4c69 18 85 40 85 132zM202 870h84c13 -44 40 -91 81 -122h-5
c-69 30 -123 71 -160 122z" />
    <glyph glyph-name="Eacute" unicode="&#xc9;" 
d="M123 136v418c0 87 -16 114 -85 132v4h450v-141h-4c-52 94 -66 114 -136 114h-141v-295h135c48 0 66 15 97 64h4v-154h-4c-31 49 -49 63 -97 63h-135v-314h169c68 0 81 23 157 130h4l-20 -157h-479v4c69 18 85 40 85 132zM328 870h84c-37 -51 -91 -92 -160 -122h-5
c41 31 68 78 81 122z" />
    <glyph glyph-name="Ecircumflex" unicode="&#xca;" 
d="M123 136v418c0 87 -16 114 -85 132v4h450v-141h-4c-52 94 -66 114 -136 114h-141v-295h135c48 0 66 15 97 64h4v-154h-4c-31 49 -49 63 -97 63h-135v-314h169c68 0 81 23 157 130h4l-20 -157h-479v4c69 18 85 40 85 132zM308 870l92 -122h-8l-108 69l-107 -69h-8l90 122
h49z" />
    <glyph glyph-name="Edieresis" unicode="&#xcb;" 
d="M123 136v418c0 87 -16 114 -85 132v4h450v-141h-4c-52 94 -66 114 -136 114h-141v-295h135c48 0 66 15 97 64h4v-154h-4c-31 49 -49 63 -97 63h-135v-314h169c68 0 81 23 157 130h4l-20 -157h-479v4c69 18 85 40 85 132zM404 830c0 -25 -21 -47 -47 -47
c-25 0 -47 22 -47 47s22 47 47 47c26 0 47 -22 47 -47zM260 830c0 -25 -22 -47 -47 -47c-26 0 -47 22 -47 47s21 47 47 47c25 0 47 -22 47 -47z" />
    <glyph glyph-name="Emacron" unicode="&#x112;" 
d="M123 136v418c0 87 -16 114 -85 132v4h450v-141h-4c-52 94 -66 114 -136 114h-141v-295h135c48 0 66 15 97 64h4v-154h-4c-31 49 -49 63 -97 63h-135v-314h169c68 0 81 23 157 130h4l-20 -157h-479v4c69 18 85 40 85 132zM425 838v-40h-280v40h280z" />
    <glyph glyph-name="Ebreve" unicode="&#x114;" 
d="M123 136v418c0 87 -16 114 -85 132v4h450v-141h-4c-52 94 -66 114 -136 114h-141v-295h135c48 0 66 15 97 64h4v-154h-4c-31 49 -49 63 -97 63h-135v-314h169c68 0 81 23 157 130h4l-20 -157h-479v4c69 18 85 40 85 132zM285 805c43 0 93 24 113 65h4
c-10 -55 -46 -115 -117 -115s-107 60 -117 115h4c20 -41 69 -65 113 -65z" />
    <glyph glyph-name="Edotaccent" unicode="&#x116;" 
d="M123 136v418c0 87 -16 114 -85 132v4h450v-141h-4c-52 94 -66 114 -136 114h-141v-295h135c48 0 66 15 97 64h4v-154h-4c-31 49 -49 63 -97 63h-135v-314h169c68 0 81 23 157 130h4l-20 -157h-479v4c69 18 85 40 85 132zM333 822c0 -26 -22 -48 -48 -48s-48 22 -48 48
s22 48 48 48s48 -22 48 -48z" />
    <glyph glyph-name="Eogonek" unicode="&#x118;" 
d="M512 -171v-4c-12 -15 -37 -34 -71 -34c-47 0 -74 32 -74 66c0 55 84 108 140 143h-469v4c69 18 85 40 85 132v418c0 87 -16 114 -85 132v4h450v-141h-4c-52 94 -66 114 -136 114h-141v-295h135c48 0 66 15 97 64h4v-154h-4c-31 49 -49 63 -97 63h-135v-314h169
c68 0 81 23 157 130h4l-20 -157c-38 -37 -79 -88 -79 -133c0 -23 15 -42 47 -42c8 0 17 1 27 4z" />
    <glyph glyph-name="Ecaron" unicode="&#x11a;" 
d="M123 136v418c0 87 -16 114 -85 132v4h450v-141h-4c-52 94 -66 114 -136 114h-141v-295h135c48 0 66 15 97 64h4v-154h-4c-31 49 -49 63 -97 63h-135v-314h169c68 0 81 23 157 130h4l-20 -157h-479v4c69 18 85 40 85 132zM290 806l108 64h8l-90 -122h-53l-88 122h8z" />
    <glyph glyph-name="Gcircumflex" unicode="&#x11c;" horiz-adv-x="742" 
d="M659 209v-184c-69 -21 -154 -40 -247 -40c-204 0 -364 147 -364 357c0 226 197 362 380 362c72 0 170 -20 211 -37v-135h-4c-59 110 -134 149 -217 149c-146 0 -273 -135 -273 -334c0 -201 128 -332 284 -332c63 0 128 18 149 28v166c0 82 -16 114 -85 132v4h231v-4
c-49 -18 -65 -38 -65 -132zM410 870l90 -122h-8l-108 64l-107 -64h-8l88 122h53z" />
    <glyph glyph-name="Gbreve" unicode="&#x11e;" horiz-adv-x="742" 
d="M659 209v-184c-69 -21 -154 -40 -247 -40c-204 0 -364 147 -364 357c0 226 197 362 380 362c72 0 170 -20 211 -37v-135h-4c-59 110 -134 149 -217 149c-146 0 -273 -135 -273 -334c0 -201 128 -332 284 -332c63 0 128 18 149 28v166c0 82 -16 114 -85 132v4h231v-4
c-49 -18 -65 -38 -65 -132zM389 807c40 0 93 22 113 63h4c-10 -55 -46 -120 -117 -120s-107 65 -117 120h4c20 -41 72 -63 113 -63z" />
    <glyph glyph-name="Gdotaccent" unicode="&#x120;" horiz-adv-x="742" 
d="M659 209v-184c-69 -21 -154 -40 -247 -40c-204 0 -364 147 -364 357c0 226 197 362 380 362c72 0 170 -20 211 -37v-135h-4c-59 110 -134 149 -217 149c-146 0 -273 -135 -273 -334c0 -201 128 -332 284 -332c63 0 128 18 149 28v166c0 82 -16 114 -85 132v4h231v-4
c-49 -18 -65 -38 -65 -132zM449 823c0 -30 -25 -54 -54 -54c-30 0 -54 24 -54 54c0 29 24 54 54 54c29 0 54 -25 54 -54z" />
    <glyph glyph-name="Gcommaaccent" unicode="&#x122;" horiz-adv-x="742" 
d="M659 209v-184c-69 -21 -154 -40 -247 -40c-204 0 -364 147 -364 357c0 226 197 362 380 362c72 0 170 -20 211 -37v-135h-4c-59 110 -134 149 -217 149c-146 0 -273 -135 -273 -334c0 -201 128 -332 284 -332c63 0 128 18 149 28v166c0 82 -16 114 -85 132v4h231v-4
c-49 -18 -65 -38 -65 -132zM318 -254l-3 2c29 37 39 68 39 90c0 27 -26 33 -26 67c0 29 21 49 48 49c31 0 51 -26 51 -55c0 -54 -56 -116 -109 -153z" />
    <glyph glyph-name="Hcircumflex" unicode="&#x124;" horiz-adv-x="805" 
d="M767 4v-4h-254v4c69 18 85 40 85 127v208h-391v-208c0 -87 16 -109 85 -127v-4h-254v4c69 18 85 40 85 127v428c0 87 -16 109 -85 127v4h254v-4c-69 -18 -85 -40 -85 -127v-188h391v188c0 87 -16 109 -85 127v4h254v-4c-69 -18 -85 -40 -85 -127v-428
c0 -87 16 -109 85 -127zM427 870l90 -122h-8l-108 64l-107 -64h-8l88 122h53z" />
    <glyph glyph-name="Hbar" unicode="&#x126;" horiz-adv-x="805" 
d="M767 4v-4h-254v4c69 18 85 40 85 127v209h-391v-209c0 -87 16 -109 85 -127v-4h-254v4c69 18 85 40 85 127v355h-78v30h78v43c0 87 -16 109 -85 127v4h254v-4c-69 -18 -85 -40 -85 -127v-43h391v43c0 87 -16 109 -85 127v4h254v-4c-69 -18 -85 -40 -85 -127v-43h85v-30
h-85v-355c0 -87 16 -109 85 -127zM207 486v-116h391v116h-391z" />
    <glyph glyph-name="Igrave" unicode="&#xcc;" horiz-adv-x="330" 
d="M292 4v-4h-254v4c69 18 85 40 85 127v428c0 87 -16 109 -85 127v4h254v-4c-69 -18 -85 -40 -85 -127v-428c0 -87 16 -109 85 -127zM82 870h84c13 -44 40 -91 81 -122h-5c-69 30 -123 71 -160 122z" />
    <glyph glyph-name="Iacute" unicode="&#xcd;" horiz-adv-x="330" 
d="M292 4v-4h-254v4c69 18 85 40 85 127v428c0 87 -16 109 -85 127v4h254v-4c-69 -18 -85 -40 -85 -127v-428c0 -87 16 -109 85 -127zM163 870h84c-37 -51 -91 -92 -160 -122h-5c41 31 68 78 81 122z" />
    <glyph glyph-name="Icircumflex" unicode="&#xce;" horiz-adv-x="330" 
d="M292 4v-4h-254v4c69 18 85 40 85 127v428c0 87 -16 109 -85 127v4h254v-4c-69 -18 -85 -40 -85 -127v-428c0 -87 16 -109 85 -127zM188 870l92 -122h-8l-108 69l-107 -69h-8l90 122h49z" />
    <glyph glyph-name="Idieresis" unicode="&#xcf;" horiz-adv-x="330" 
d="M292 4v-4h-254v4c69 18 85 40 85 127v428c0 87 -16 109 -85 127v4h254v-4c-69 -18 -85 -40 -85 -127v-428c0 -87 16 -109 85 -127zM284 830c0 -25 -21 -47 -47 -47c-25 0 -47 22 -47 47s22 47 47 47c26 0 47 -22 47 -47zM140 830c0 -25 -22 -47 -47 -47
c-26 0 -47 22 -47 47s21 47 47 47c25 0 47 -22 47 -47z" />
    <glyph glyph-name="Itilde" unicode="&#x128;" horiz-adv-x="330" 
d="M292 4v-4h-254v4c69 18 85 40 85 127v428c0 87 -16 109 -85 127v4h254v-4c-69 -18 -85 -40 -85 -127v-428c0 -87 16 -109 85 -127zM217 793c-49 0 -96 34 -129 34c-30 0 -51 -19 -59 -39l-8 2c5 16 33 84 94 84c47 0 94 -31 129 -31c29 0 50 16 58 36l8 -2
c-6 -18 -33 -84 -93 -84z" />
    <glyph glyph-name="Imacron" unicode="&#x12a;" horiz-adv-x="330" 
d="M292 4v-4h-254v4c69 18 85 40 85 127v428c0 87 -16 109 -85 127v4h254v-4c-69 -18 -85 -40 -85 -127v-428c0 -87 16 -109 85 -127zM290 832v-45h-250v45h250z" />
    <glyph glyph-name="Ibreve" unicode="&#x12c;" horiz-adv-x="330" 
d="M292 4v-4h-254v4c69 18 85 40 85 127v428c0 87 -16 109 -85 127v4h254v-4c-69 -18 -85 -40 -85 -127v-428c0 -87 16 -109 85 -127zM165 807c40 0 93 22 113 63h4c-10 -55 -46 -120 -117 -120s-107 65 -117 120h4c20 -41 72 -63 113 -63z" />
    <glyph glyph-name="Iogonek" unicode="&#x12e;" horiz-adv-x="330" 
d="M292 -171v-4c-12 -15 -38 -34 -71 -34c-48 0 -74 32 -74 66c0 55 84 108 140 143h-249v4c69 18 85 40 85 127v428c0 87 -16 109 -85 127v4h254v-4c-69 -18 -85 -40 -85 -127v-428c0 -87 16 -109 85 -127v-4c-34 -37 -75 -88 -75 -133c0 -23 16 -42 47 -42c8 0 18 1 28 4z
" />
    <glyph glyph-name="Idotaccent" unicode="&#x130;" horiz-adv-x="330" 
d="M292 4v-4h-254v4c69 18 85 40 85 127v428c0 87 -16 109 -85 127v4h254v-4c-69 -18 -85 -40 -85 -127v-428c0 -87 16 -109 85 -127zM219 823c0 -30 -25 -54 -54 -54c-30 0 -54 24 -54 54c0 29 24 54 54 54c29 0 54 -25 54 -54z" />
    <glyph glyph-name="IJ" unicode="&#x132;" horiz-adv-x="659" 
d="M292 4v-4h-254v4c69 18 85 40 85 127v428c0 87 -16 109 -85 127v4h254v-4c-69 -18 -85 -40 -85 -127v-428c0 -87 16 -109 85 -127zM537 554v-531c0 -151 -91 -196 -168 -232l-2 3c58 40 86 106 86 195v565c0 93 -16 114 -85 132v4h254v-4c-69 -18 -85 -39 -85 -132z" />
    <glyph glyph-name="Jcircumflex" unicode="&#x134;" horiz-adv-x="329" 
d="M207 554v-531c0 -151 -91 -196 -168 -232l-2 3c58 40 86 106 86 195v565c0 93 -16 114 -85 132v4h254v-4c-69 -18 -85 -39 -85 -132zM190 870l90 -122h-8l-108 64l-107 -64h-8l88 122h53z" />
    <glyph glyph-name="Kcommaaccent" unicode="&#x136;" horiz-adv-x="711" 
d="M468 522l-91 -93l180 -255c95 -134 113 -151 176 -170v-4h-263v4c34 7 57 12 57 37c0 22 -21 62 -71 133l-138 195l-114 -116v-122c0 -87 16 -109 85 -127v-4h-254v4c69 18 85 40 85 127v428c0 87 -16 109 -85 127v4h254v-4c-69 -18 -85 -40 -85 -127v-269
c72 75 143 152 215 227c56 59 78 96 78 122c0 24 -23 36 -59 47v4h251v-4c-76 -23 -107 -47 -221 -164zM303 -254l-3 2c29 37 39 68 39 90c0 27 -26 33 -26 68c0 28 21 48 48 48c31 0 51 -26 51 -55c0 -53 -56 -116 -109 -153z" />
    <glyph glyph-name="kgreenlandic.case" horiz-adv-x="761" 
d="M468 522l-91 -93l180 -255c95 -134 113 -151 176 -170v-4h-263v4c34 7 57 12 57 37c0 22 -21 62 -71 133l-138 195l-114 -116v-122c0 -87 16 -109 85 -127v-4h-254v4c69 18 85 40 85 127v428c0 87 -16 109 -85 127v4h254v-4c-69 -18 -85 -40 -85 -127v-269l215 227
c56 59 78 96 78 122c0 24 -23 36 -59 47v4h251v-4c-76 -23 -107 -47 -221 -164zM765 704l3 -2c-29 -37 -39 -68 -39 -90c0 -27 27 -33 27 -68c0 -28 -22 -48 -49 -48c-30 0 -50 26 -50 55c0 53 55 116 108 153z" />
    <glyph glyph-name="Lacute" unicode="&#x139;" horiz-adv-x="548" 
d="M204 559v-532h173c45 0 71 27 143 130h4l-20 -157h-469v4c69 18 85 45 85 127v428c0 82 -16 109 -85 127v4h254v-4c-69 -18 -85 -45 -85 -127zM186 870h93c-37 -51 -91 -92 -160 -122h-5c33 34 59 78 72 122z" />
    <glyph glyph-name="Lcommaaccent" unicode="&#x13b;" horiz-adv-x="548" 
d="M204 559v-532h173c45 0 71 27 143 130h4l-20 -157h-469v4c69 18 85 45 85 127v428c0 82 -16 109 -85 127v4h254v-4c-69 -18 -85 -45 -85 -127zM221 -254l-3 2c29 37 39 68 39 90c0 27 -27 33 -27 67c0 29 22 49 49 49c30 0 50 -26 50 -55c0 -54 -55 -116 -108 -153z" />
    <glyph glyph-name="Lcaron" unicode="&#x13d;" horiz-adv-x="548" 
d="M204 559v-532h173c45 0 71 27 143 130h4l-20 -157h-469v4c69 18 85 45 85 127v428c0 82 -16 109 -85 127v4h254v-4c-69 -18 -85 -45 -85 -127zM343 492c-2 0 -5 0 -7 1c9 22 12 44 12 63c0 52 -25 70 -25 102c0 27 21 46 46 46c27 0 47 -22 47 -49
c0 -41 -45 -110 -73 -163z" />
    <glyph glyph-name="Ldot" unicode="&#x13f;" horiz-adv-x="548" 
d="M204 559v-532h173c45 0 71 27 143 130h4l-20 -157h-469v4c69 18 85 45 85 127v428c0 82 -16 109 -85 127v4h254v-4c-69 -18 -85 -45 -85 -127zM384 355c0 -33 -28 -60 -60 -60c-33 0 -61 27 -61 60s28 60 61 60c32 0 60 -27 60 -60z" />
    <glyph glyph-name="Lslash" unicode="&#x141;" horiz-adv-x="548" 
d="M204 303v-276h173c45 0 71 27 143 130h4l-20 -157h-469v4c69 18 85 45 85 127v141l-75 -26v38l75 26v249c0 82 -16 109 -85 127v4h254v-4c-69 -18 -85 -45 -85 -127v-218l116 43v-38z" />
    <glyph glyph-name="Ntilde" unicode="&#xd1;" horiz-adv-x="787" 
d="M185 690l469 -562v354c0 154 -14 183 -79 204v4h196v-4c-65 -21 -79 -47 -79 -204v-492h-39l-500 605v-387c0 -154 14 -183 79 -204v-4h-196v4c65 21 79 47 79 204v381c0 36 -31 81 -99 97v4h169zM443 798c-44 0 -94 29 -128 29c-28 0 -50 -19 -58 -39l-8 2
c5 15 30 79 97 79c42 0 92 -26 127 -26c28 0 49 16 57 36l8 -2c-6 -17 -30 -79 -95 -79z" />
    <glyph glyph-name="Nacute" unicode="&#x143;" horiz-adv-x="797" 
d="M185 690l469 -562v354c0 154 -14 183 -79 204v4h196v-4c-65 -21 -79 -47 -79 -204v-492h-39l-500 605v-387c0 -154 14 -183 79 -204v-4h-196v4c65 21 79 47 79 204v381c0 36 -31 81 -99 97v4h169zM388 870h93c-37 -51 -91 -92 -160 -122h-5c32 34 59 78 72 122z" />
    <glyph glyph-name="Ncommaaccent" unicode="&#x145;" horiz-adv-x="797" 
d="M185 690l469 -562v354c0 154 -14 183 -79 204v4h196v-4c-65 -21 -79 -47 -79 -204v-492h-39l-500 605v-387c0 -154 14 -183 79 -204v-4h-196v4c65 21 79 47 79 204v381c0 36 -31 81 -99 97v4h169zM345 -254l-3 2c29 37 39 68 39 90c0 27 -26 33 -26 67c0 29 21 49 48 49
c31 0 51 -26 51 -55c0 -54 -56 -116 -109 -153z" />
    <glyph glyph-name="Ncaron" unicode="&#x147;" horiz-adv-x="797" 
d="M185 690l469 -562v354c0 154 -14 183 -79 204v4h196v-4c-65 -21 -79 -47 -79 -204v-492h-39l-500 605v-387c0 -154 14 -183 79 -204v-4h-196v4c65 21 79 47 79 204v381c0 36 -31 81 -99 97v4h169zM398 806l108 64h8l-90 -122h-53l-88 122h8z" />
    <glyph glyph-name="napostrophe.case" horiz-adv-x="787" 
d="M185 690l469 -562v354c0 154 -14 183 -79 204v4h196v-4c-65 -21 -79 -47 -79 -204v-492h-39l-500 605v-387c0 -154 14 -183 79 -204v-4h-196v4c65 21 79 47 79 204v381c0 36 -31 81 -99 97v4h169zM101 730l-3 2c29 37 39 68 39 90c0 27 -26 33 -26 67c0 29 21 49 48 49
c31 0 51 -26 51 -55c0 -54 -56 -116 -109 -153z" />
    <glyph glyph-name="Ograve" unicode="&#xd2;" horiz-adv-x="800" 
d="M400 -15c-181 0 -357 146 -357 357c0 212 185 362 357 362s357 -150 357 -362c0 -211 -176 -357 -357 -357zM400 7c150 0 258 156 258 337c0 183 -108 338 -258 338s-259 -155 -259 -338c0 -181 109 -337 259 -337zM317 870h84c13 -44 40 -91 81 -122h-5
c-69 30 -123 71 -160 122z" />
    <glyph glyph-name="Oacute" unicode="&#xd3;" horiz-adv-x="800" 
d="M400 -15c-181 0 -357 146 -357 357c0 212 185 362 357 362s357 -150 357 -362c0 -211 -176 -357 -357 -357zM400 7c150 0 258 156 258 337c0 183 -108 338 -258 338s-259 -155 -259 -338c0 -181 109 -337 259 -337zM398 870h84c-37 -51 -91 -92 -160 -122h-5
c41 31 68 78 81 122z" />
    <glyph glyph-name="Ocircumflex" unicode="&#xd4;" horiz-adv-x="800" 
d="M400 -15c-181 0 -357 146 -357 357c0 212 185 362 357 362s357 -150 357 -362c0 -211 -176 -357 -357 -357zM400 7c150 0 258 156 258 337c0 183 -108 338 -258 338s-259 -155 -259 -338c0 -181 109 -337 259 -337zM423 870l92 -122h-8l-108 69l-107 -69h-8l90 122h49z
" />
    <glyph glyph-name="Otilde" unicode="&#xd5;" horiz-adv-x="800" 
d="M400 -15c-181 0 -357 146 -357 357c0 212 185 362 357 362s357 -150 357 -362c0 -211 -176 -357 -357 -357zM400 7c150 0 258 156 258 337c0 183 -108 338 -258 338s-259 -155 -259 -338c0 -181 109 -337 259 -337zM449 798c-44 0 -94 29 -128 29c-28 0 -50 -19 -58 -39
l-8 2c5 15 30 79 97 79c42 0 92 -26 127 -26c28 0 49 16 57 36l8 -2c-6 -17 -30 -79 -95 -79z" />
    <glyph glyph-name="Odieresis" unicode="&#xd6;" horiz-adv-x="800" 
d="M400 -15c-181 0 -357 146 -357 357c0 212 185 362 357 362s357 -150 357 -362c0 -211 -176 -357 -357 -357zM400 7c150 0 258 156 258 337c0 183 -108 338 -258 338s-259 -155 -259 -338c0 -181 109 -337 259 -337zM519 830c0 -25 -21 -47 -47 -47c-25 0 -47 22 -47 47
s22 47 47 47c26 0 47 -22 47 -47zM375 830c0 -25 -22 -47 -47 -47c-26 0 -47 22 -47 47s21 47 47 47c25 0 47 -22 47 -47z" />
    <glyph glyph-name="Oslash" unicode="&#xd8;" horiz-adv-x="800" 
d="M221 35l-46 -70l-29 19l46 69c-88 62 -149 164 -149 289c0 212 185 362 357 362c60 0 121 -20 176 -53l48 71l29 -17l-48 -73c87 -64 152 -166 152 -290c0 -211 -176 -357 -357 -357c-63 0 -125 18 -179 50zM400 7c150 0 258 156 258 337c0 96 -30 184 -80 246l-333 -518
c42 -41 95 -65 155 -65zM141 344c0 -95 30 -183 80 -245l333 517c-42 41 -95 66 -154 66c-150 0 -259 -155 -259 -338z" />
    <glyph glyph-name="Omacron" unicode="&#x14c;" horiz-adv-x="800" 
d="M400 -15c-181 0 -357 146 -357 357c0 212 185 362 357 362s357 -150 357 -362c0 -211 -176 -357 -357 -357zM400 7c150 0 258 156 258 337c0 183 -108 338 -258 338s-259 -155 -259 -338c0 -181 109 -337 259 -337zM540 838v-40h-280v40h280z" />
    <glyph glyph-name="Obreve" unicode="&#x14e;" horiz-adv-x="800" 
d="M400 -15c-181 0 -357 146 -357 357c0 212 185 362 357 362s357 -150 357 -362c0 -211 -176 -357 -357 -357zM400 7c150 0 258 156 258 337c0 183 -108 338 -258 338s-259 -155 -259 -338c0 -181 109 -337 259 -337zM400 805c43 0 93 24 113 65h4
c-10 -55 -46 -115 -117 -115s-107 60 -117 115h4c20 -41 69 -65 113 -65z" />
    <glyph glyph-name="Ohungarumlaut" unicode="&#x150;" horiz-adv-x="800" 
d="M400 -15c-181 0 -357 146 -357 357c0 212 185 362 357 362s357 -150 357 -362c0 -211 -176 -357 -357 -357zM400 7c150 0 258 156 258 337c0 183 -108 338 -258 338s-259 -155 -259 -338c0 -181 109 -337 259 -337zM319 870h76c-22 -46 -53 -86 -101 -122h-9
c22 40 32 79 34 122zM438 870h76c-22 -46 -53 -86 -101 -122h-9c22 40 32 79 34 122z" />
    <glyph glyph-name="Racute" unicode="&#x154;" horiz-adv-x="651" 
d="M204 663v-324h96c82 0 170 51 170 169c0 93 -58 155 -153 155h-113zM297 313h-93v-177c0 -92 16 -114 85 -132v-4h-254v4c69 18 85 40 85 132v418c0 92 -16 114 -85 132v4h297c142 0 227 -56 227 -175c0 -108 -90 -161 -179 -184l155 -215c65 -90 84 -100 143 -112v-4
h-60c-108 0 -113 3 -172 91zM315 870h93c-37 -51 -91 -92 -160 -122h-5c32 34 59 78 72 122z" />
    <glyph glyph-name="Rcommaaccent" unicode="&#x156;" horiz-adv-x="651" 
d="M204 663v-324h96c82 0 170 51 170 169c0 93 -58 155 -153 155h-113zM297 313h-93v-177c0 -92 16 -114 85 -132v-4h-254v4c69 18 85 40 85 132v418c0 92 -16 114 -85 132v4h297c142 0 227 -56 227 -175c0 -108 -90 -161 -179 -184l155 -215c65 -90 84 -100 143 -112v-4
h-60c-108 0 -113 3 -172 91zM272 -254l-3 2c29 37 39 68 39 90c0 27 -26 33 -26 67c0 29 21 49 48 49c31 0 51 -26 51 -55c0 -54 -56 -116 -109 -153z" />
    <glyph glyph-name="Rcaron" unicode="&#x158;" horiz-adv-x="651" 
d="M204 663v-324h96c82 0 170 51 170 169c0 93 -58 155 -153 155h-113zM297 313h-93v-177c0 -92 16 -114 85 -132v-4h-254v4c69 18 85 40 85 132v418c0 92 -16 114 -85 132v4h297c142 0 227 -56 227 -175c0 -108 -90 -161 -179 -184l155 -215c65 -90 84 -100 143 -112v-4
h-60c-108 0 -113 3 -172 91zM325 806l108 64h8l-90 -122h-53l-88 122h8z" />
    <glyph glyph-name="Sacute" unicode="&#x15a;" horiz-adv-x="504" 
d="M61 25v166h4c49 -137 120 -184 190 -184c71 0 138 52 138 129c0 181 -330 190 -330 390c0 109 97 178 208 178c58 0 110 -18 163 -40v-137h-4c-42 100 -105 154 -177 154c-68 0 -122 -48 -122 -115c0 -171 333 -179 333 -389c0 -116 -99 -192 -222 -192
c-66 0 -138 20 -181 40zM274 870h93c-37 -51 -91 -92 -160 -122h-5c33 34 59 78 72 122z" />
    <glyph glyph-name="Scircumflex" unicode="&#x15c;" horiz-adv-x="504" 
d="M61 25v166h4c49 -137 120 -184 190 -184c71 0 138 52 138 129c0 181 -330 190 -330 390c0 109 97 178 208 178c58 0 110 -18 163 -40v-137h-4c-42 100 -105 154 -177 154c-68 0 -122 -48 -122 -115c0 -171 333 -179 333 -389c0 -116 -99 -192 -222 -192
c-66 0 -138 20 -181 40zM284 870l90 -122h-8l-108 64l-107 -64h-8l88 122h53z" />
    <glyph glyph-name="Scedilla" unicode="&#x15e;" horiz-adv-x="504" 
d="M161 -183l12 11c23 -10 46 -14 66 -14c23 0 58 13 58 47c0 38 -61 53 -96 54l54 70h-13c-66 0 -138 20 -181 40v166h4c49 -137 120 -184 190 -184c71 0 138 52 138 129c0 181 -330 190 -330 390c0 109 97 178 208 178c58 0 110 -18 163 -40v-137h-4
c-42 100 -105 154 -177 154c-68 0 -122 -48 -122 -115c0 -171 333 -179 333 -389c0 -102 -77 -173 -178 -189l-25 -39c38 -4 95 -29 95 -80c0 -58 -64 -78 -104 -78c-41 0 -72 12 -91 26z" />
    <glyph glyph-name="Scaron" unicode="&#x160;" horiz-adv-x="504" 
d="M61 25v166h4c49 -137 120 -184 190 -184c71 0 138 52 138 129c0 181 -330 190 -330 390c0 109 97 178 208 178c58 0 110 -18 163 -40v-137h-4c-42 100 -105 154 -177 154c-68 0 -122 -48 -122 -115c0 -171 333 -179 333 -389c0 -116 -99 -192 -222 -192
c-66 0 -138 20 -181 40zM258 806l108 64h8l-90 -122h-53l-88 122h8z" />
    <glyph glyph-name="Scommaaccent" unicode="&#x218;" horiz-adv-x="504" 
d="M61 25v166h4c49 -137 120 -184 190 -184c71 0 138 52 138 129c0 181 -330 190 -330 390c0 109 97 178 208 178c58 0 110 -18 163 -40v-137h-4c-42 100 -105 154 -177 154c-68 0 -122 -48 -122 -115c0 -171 333 -179 333 -389c0 -116 -99 -192 -222 -192
c-66 0 -138 20 -181 40zM196 -274l-3 2c30 39 42 79 42 102c0 29 -28 36 -28 73c0 30 23 51 51 51c32 0 53 -27 53 -58c0 -57 -59 -131 -115 -170z" />
    <glyph glyph-name="Tcommaaccent" unicode="&#x162;" horiz-adv-x="648" 
d="M451 4v-4h-254v4c69 18 85 40 85 132v527h-110c-38 0 -57 -28 -131 -122h-4l20 149h534l20 -149h-4c-73 95 -93 122 -131 122h-110v-527c0 -92 16 -114 85 -132zM271 -254l-3 2c29 37 39 68 39 90c0 27 -27 33 -27 67c0 29 22 49 49 49c30 0 50 -26 50 -55
c0 -54 -55 -116 -108 -153z" />
    <glyph glyph-name="uni021A" unicode="&#x21a;" horiz-adv-x="648" 
d="M451 4v-4h-254v4c69 18 85 40 85 132v527h-110c-38 0 -57 -28 -131 -122h-4l20 149h534l20 -149h-4c-73 95 -93 122 -131 122h-110v-527c0 -92 16 -114 85 -132zM267 -267l-3 2c31 39 42 79 42 102c0 29 -28 36 -28 73c0 30 23 51 51 51c33 0 54 -27 54 -58
c0 -57 -60 -131 -116 -170z" />
    <glyph glyph-name="Tcaron" unicode="&#x164;" horiz-adv-x="648" 
d="M451 4v-4h-254v4c69 18 85 40 85 132v527h-110c-38 0 -57 -28 -131 -122h-4l20 149h534l20 -149h-4c-73 95 -93 122 -131 122h-110v-527c0 -92 16 -114 85 -132zM323 806l108 64h8l-90 -122h-53l-88 122h8z" />
    <glyph glyph-name="Tbar" unicode="&#x166;" horiz-adv-x="648" 
d="M451 4v-4h-254v4c69 18 85 40 85 132v204h-112v29h112v294h-114c-38 0 -53 -28 -127 -122h-4l20 149h534l20 -149h-4c-73 95 -89 122 -127 122h-114v-294h111v-29h-111v-204c0 -92 16 -114 85 -132z" />
    <glyph glyph-name="Ugrave" unicode="&#xd9;" horiz-adv-x="771" 
d="M618 189v293c0 149 -14 183 -79 204v4h195v-4c-65 -21 -79 -52 -79 -204v-296c0 -126 -105 -201 -265 -201c-156 0 -268 74 -268 201v373c0 82 -16 109 -85 127v4h254v-4c-69 -18 -85 -45 -85 -127v-387c0 -86 67 -150 199 -150c121 0 213 57 213 167zM303 870h84
c13 -44 40 -91 81 -122h-5c-69 30 -123 71 -160 122z" />
    <glyph glyph-name="Uacute" unicode="&#xda;" horiz-adv-x="771" 
d="M618 189v293c0 149 -14 183 -79 204v4h195v-4c-65 -21 -79 -52 -79 -204v-296c0 -126 -105 -201 -265 -201c-156 0 -268 74 -268 201v373c0 82 -16 109 -85 127v4h254v-4c-69 -18 -85 -45 -85 -127v-387c0 -86 67 -150 199 -150c121 0 213 57 213 167zM384 870h84
c-37 -51 -91 -92 -160 -122h-5c41 31 68 78 81 122z" />
    <glyph glyph-name="Ucircumflex" unicode="&#xdb;" horiz-adv-x="771" 
d="M618 189v293c0 149 -14 183 -79 204v4h195v-4c-65 -21 -79 -52 -79 -204v-296c0 -126 -105 -201 -265 -201c-156 0 -268 74 -268 201v373c0 82 -16 109 -85 127v4h254v-4c-69 -18 -85 -45 -85 -127v-387c0 -86 67 -150 199 -150c121 0 213 57 213 167zM409 870l92 -122
h-8l-108 69l-107 -69h-8l90 122h49z" />
    <glyph glyph-name="Udieresis" unicode="&#xdc;" horiz-adv-x="771" 
d="M618 189v293c0 149 -14 183 -79 204v4h195v-4c-65 -21 -79 -52 -79 -204v-296c0 -126 -105 -201 -265 -201c-156 0 -268 74 -268 201v373c0 82 -16 109 -85 127v4h254v-4c-69 -18 -85 -45 -85 -127v-387c0 -86 67 -150 199 -150c121 0 213 57 213 167zM504 830
c0 -25 -21 -47 -47 -47c-25 0 -47 22 -47 47s22 47 47 47c26 0 47 -22 47 -47zM360 830c0 -25 -22 -47 -47 -47c-26 0 -47 22 -47 47s21 47 47 47c25 0 47 -22 47 -47z" />
    <glyph glyph-name="Utilde" unicode="&#x168;" horiz-adv-x="771" 
d="M618 189v293c0 149 -14 183 -79 204v4h195v-4c-65 -21 -79 -52 -79 -204v-296c0 -126 -105 -201 -265 -201c-156 0 -268 74 -268 201v373c0 82 -16 109 -85 127v4h254v-4c-69 -18 -85 -45 -85 -127v-387c0 -86 67 -150 199 -150c121 0 213 57 213 167zM435 798
c-44 0 -94 29 -128 29c-28 0 -50 -19 -58 -39l-8 2c5 15 30 79 97 79c42 0 92 -26 127 -26c28 0 49 16 57 36l8 -2c-6 -17 -30 -79 -95 -79z" />
    <glyph glyph-name="Umacron" unicode="&#x16a;" horiz-adv-x="771" 
d="M618 189v293c0 149 -14 183 -79 204v4h195v-4c-65 -21 -79 -52 -79 -204v-296c0 -126 -105 -201 -265 -201c-156 0 -268 74 -268 201v373c0 82 -16 109 -85 127v4h254v-4c-69 -18 -85 -45 -85 -127v-387c0 -86 67 -150 199 -150c121 0 213 57 213 167zM525 838v-40h-280
v40h280z" />
    <glyph glyph-name="Ubreve" unicode="&#x16c;" horiz-adv-x="771" 
d="M618 189v293c0 149 -14 183 -79 204v4h195v-4c-65 -21 -79 -52 -79 -204v-296c0 -126 -105 -201 -265 -201c-156 0 -268 74 -268 201v373c0 82 -16 109 -85 127v4h254v-4c-69 -18 -85 -45 -85 -127v-387c0 -86 67 -150 199 -150c121 0 213 57 213 167zM385 805
c43 0 93 24 113 65h4c-10 -55 -46 -115 -117 -115s-107 60 -117 115h4c20 -41 69 -65 113 -65z" />
    <glyph glyph-name="Uring" unicode="&#x16e;" horiz-adv-x="771" 
d="M618 189v293c0 149 -14 183 -79 204v4h195v-4c-65 -21 -79 -52 -79 -204v-296c0 -126 -105 -201 -265 -201c-156 0 -268 74 -268 201v373c0 82 -16 109 -85 127v4h254v-4c-69 -18 -85 -45 -85 -127v-387c0 -86 67 -150 199 -150c121 0 213 57 213 167zM499 847
c0 -56 -48 -102 -104 -102s-104 46 -104 102s48 102 104 102s104 -46 104 -102zM395 776c39 0 68 32 68 71s-29 71 -68 71s-69 -32 -69 -71s30 -71 69 -71z" />
    <glyph glyph-name="Uhungarumlaut" unicode="&#x170;" horiz-adv-x="771" 
d="M618 189v293c0 149 -14 183 -79 204v4h195v-4c-65 -21 -79 -52 -79 -204v-296c0 -126 -105 -201 -265 -201c-156 0 -268 74 -268 201v373c0 82 -16 109 -85 127v4h254v-4c-69 -18 -85 -45 -85 -127v-387c0 -86 67 -150 199 -150c121 0 213 57 213 167zM328 870h76
c-22 -46 -53 -86 -91 -122h-9c12 40 22 79 24 122zM447 870h76c-22 -46 -53 -86 -91 -122h-9c12 40 22 79 24 122z" />
    <glyph glyph-name="Uogonek" unicode="&#x172;" horiz-adv-x="771" 
d="M464 -171v-4c-12 -15 -38 -34 -71 -34c-48 0 -74 32 -74 66c0 49 65 97 119 131c-15 -2 -32 -3 -48 -3c-156 0 -268 74 -268 201v373c0 82 -16 109 -85 127v4h254v-4c-69 -18 -85 -45 -85 -127v-387c0 -86 67 -150 199 -150c121 0 213 57 213 167v293
c0 149 -14 183 -79 204v4h195v-4c-65 -21 -79 -52 -79 -204v-296c0 -108 -78 -179 -201 -197c-32 -35 -65 -81 -65 -122c0 -23 16 -42 47 -42c8 0 18 1 28 4z" />
    <glyph glyph-name="Wcircumflex" unicode="&#x174;" horiz-adv-x="990" 
d="M602 423c33 -115 66 -230 100 -345l107 347c28 91 44 149 44 187c0 44 -21 60 -66 74v4h205v-4c-59 -23 -74 -49 -145 -265l-141 -428h-57l-155 546c-57 -183 -115 -364 -173 -546h-62l-119 427c-59 212 -78 244 -138 266v4h238v-4c-41 -12 -59 -23 -59 -63
c0 -38 16 -99 43 -202l92 -349l108 353c26 84 40 139 40 177c0 52 -22 69 -72 84v4h225v-4c-40 -12 -60 -24 -60 -62s16 -98 45 -201zM517 870l90 -122h-8l-108 64l-107 -64h-8l88 122h53z" />
    <glyph glyph-name="Wgrave" unicode="&#x1e80;" horiz-adv-x="990" 
d="M602 423c33 -115 66 -230 100 -345l107 347c28 91 44 149 44 187c0 44 -21 60 -66 74v4h205v-4c-59 -23 -74 -49 -145 -265l-141 -428h-57l-155 546c-57 -183 -115 -364 -173 -546h-62l-119 427c-59 212 -78 244 -138 266v4h238v-4c-41 -12 -59 -23 -59 -63
c0 -38 16 -99 43 -202l92 -349l108 353c26 84 40 139 40 177c0 52 -22 69 -72 84v4h225v-4c-40 -12 -60 -24 -60 -62s16 -98 45 -201zM409 870h93c13 -44 40 -88 72 -122h-5c-69 30 -123 71 -160 122z" />
    <glyph glyph-name="Wacute" unicode="&#x1e82;" horiz-adv-x="990" 
d="M602 423c33 -115 66 -230 100 -345l107 347c28 91 44 149 44 187c0 44 -21 60 -66 74v4h205v-4c-59 -23 -74 -49 -145 -265l-141 -428h-57l-155 546c-57 -183 -115 -364 -173 -546h-62l-119 427c-59 212 -78 244 -138 266v4h238v-4c-41 -12 -59 -23 -59 -63
c0 -38 16 -99 43 -202l92 -349l108 353c26 84 40 139 40 177c0 52 -22 69 -72 84v4h225v-4c-40 -12 -60 -24 -60 -62s16 -98 45 -201zM481 870h93c-37 -51 -91 -92 -160 -122h-5c33 34 59 78 72 122z" />
    <glyph glyph-name="Wdieresis" unicode="&#x1e84;" horiz-adv-x="990" 
d="M602 423c33 -115 66 -230 100 -345l107 347c28 91 44 149 44 187c0 44 -21 60 -66 74v4h205v-4c-59 -23 -74 -49 -145 -265l-141 -428h-57l-155 546c-57 -183 -115 -364 -173 -546h-62l-119 427c-59 212 -78 244 -138 266v4h238v-4c-41 -12 -59 -23 -59 -63
c0 -38 16 -99 43 -202l92 -349l108 353c26 84 40 139 40 177c0 52 -22 69 -72 84v4h225v-4c-40 -12 -60 -24 -60 -62s16 -98 45 -201zM614 830c0 -27 -23 -51 -51 -51c-27 0 -50 24 -50 51s23 50 50 50c28 0 51 -23 51 -50zM470 830c0 -27 -24 -51 -51 -51
c-28 0 -50 24 -50 51s22 50 50 50c27 0 51 -23 51 -50z" />
    <glyph glyph-name="Yacute" unicode="&#xdd;" horiz-adv-x="631" 
d="M463 491l-102 -187v-168c0 -82 16 -114 85 -132v-4h-254v4c69 18 85 50 85 132v166l-101 183c-93 168 -126 191 -170 201v4h232v-4c-31 -8 -48 -17 -48 -41c0 -28 20 -73 67 -157l87 -155l84 161c38 72 58 116 58 144c0 27 -18 38 -56 48v4h195v-4
c-46 -7 -82 -48 -162 -195zM314 870h84c-37 -51 -91 -92 -160 -122h-5c41 31 68 78 81 122z" />
    <glyph glyph-name="Ydieresis" unicode="&#x178;" horiz-adv-x="631" 
d="M463 491l-102 -187v-168c0 -82 16 -114 85 -132v-4h-254v4c69 18 85 50 85 132v166l-101 183c-93 168 -126 191 -170 201v4h232v-4c-31 -8 -48 -17 -48 -41c0 -28 20 -73 67 -157l87 -155l84 161c38 72 58 116 58 144c0 27 -18 38 -56 48v4h195v-4
c-46 -7 -82 -48 -162 -195zM446 830c0 -27 -23 -51 -51 -51c-27 0 -50 24 -50 51s23 50 50 50c28 0 51 -23 51 -50zM302 830c0 -27 -24 -51 -51 -51c-28 0 -50 24 -50 51s22 50 50 50c27 0 51 -23 51 -50z" />
    <glyph glyph-name="Ycircumflex" unicode="&#x176;" horiz-adv-x="631" 
d="M463 491l-102 -187v-168c0 -82 16 -114 85 -132v-4h-254v4c69 18 85 50 85 132v166l-101 183c-93 168 -126 191 -170 201v4h232v-4c-31 -8 -48 -17 -48 -41c0 -28 20 -73 67 -157l87 -155l84 161c38 72 58 116 58 144c0 27 -18 38 -56 48v4h195v-4
c-46 -7 -82 -48 -162 -195zM344 870l90 -122h-8l-108 64l-107 -64h-8l88 122h53z" />
    <glyph glyph-name="Ygrave" unicode="&#x1ef2;" horiz-adv-x="631" 
d="M463 491l-102 -187v-168c0 -82 16 -114 85 -132v-4h-254v4c69 18 85 50 85 132v166l-101 183c-93 168 -126 191 -170 201v4h232v-4c-31 -8 -48 -17 -48 -41c0 -28 20 -73 67 -157l87 -155l84 161c38 72 58 116 58 144c0 27 -18 38 -56 48v4h195v-4
c-46 -7 -82 -48 -162 -195zM221 865h93c13 -44 40 -88 72 -122h-5c-69 30 -123 71 -160 122z" />
    <glyph glyph-name="Zacute" unicode="&#x179;" horiz-adv-x="566" 
d="M540 157l-19 -157h-496v4l402 659h-244c-47 0 -67 -23 -140 -114h-4l20 141h472v-4l-398 -659h262c44 0 71 25 141 130h4zM272 870h93c-37 -51 -91 -92 -160 -122h-5c32 34 59 78 72 122z" />
    <glyph glyph-name="Zdotaccent" unicode="&#x17b;" horiz-adv-x="566" 
d="M540 157l-19 -157h-496v4l402 659h-244c-47 0 -67 -23 -140 -114h-4l20 141h472v-4l-398 -659h262c44 0 71 25 141 130h4zM337 823c0 -30 -25 -54 -54 -54c-30 0 -54 24 -54 54c0 29 24 54 54 54c29 0 54 -25 54 -54z" />
    <glyph glyph-name="Zcaron" unicode="&#x17d;" horiz-adv-x="566" 
d="M540 157l-19 -157h-496v4l402 659h-244c-47 0 -67 -23 -140 -114h-4l20 141h472v-4l-398 -659h262c44 0 71 25 141 130h4zM282 806l108 64h8l-90 -122h-53l-88 122h8z" />
    <glyph glyph-name="agrave" unicode="&#xe0;" horiz-adv-x="509" 
d="M213 489c-58 0 -97 -22 -114 -37c33 -6 55 -23 55 -52s-23 -45 -47 -45s-49 17 -49 49c0 65 109 118 206 118c90 0 150 -47 150 -139v-266c0 -82 43 -88 98 -93v-4c-7 -3 -77 -28 -113 -28c-34 0 -61 22 -63 65c-30 -26 -92 -69 -158 -69c-68 0 -135 44 -135 128
c0 81 66 158 292 167v62c0 93 -37 144 -122 144zM335 65v192c-11 2 -33 5 -54 5c-94 0 -156 -46 -156 -126c0 -66 46 -99 108 -99c37 0 80 15 102 28zM172 690h84c13 -44 40 -91 81 -122h-5c-69 30 -123 71 -160 122z" />
    <glyph glyph-name="aacute" unicode="&#xe1;" horiz-adv-x="509" 
d="M213 489c-58 0 -97 -22 -114 -37c33 -6 55 -23 55 -52s-23 -45 -47 -45s-49 17 -49 49c0 65 109 118 206 118c90 0 150 -47 150 -139v-266c0 -82 43 -88 98 -93v-4c-7 -3 -77 -28 -113 -28c-34 0 -61 22 -63 65c-30 -26 -92 -69 -158 -69c-68 0 -135 44 -135 128
c0 81 66 158 292 167v62c0 93 -37 144 -122 144zM335 65v192c-11 2 -33 5 -54 5c-94 0 -156 -46 -156 -126c0 -66 46 -99 108 -99c37 0 80 15 102 28zM253 690h84c-37 -51 -91 -92 -160 -122h-5c41 31 68 78 81 122z" />
    <glyph glyph-name="acircumflex" unicode="&#xe2;" horiz-adv-x="509" 
d="M213 489c-58 0 -97 -22 -114 -37c33 -6 55 -23 55 -52s-23 -45 -47 -45s-49 17 -49 49c0 65 109 118 206 118c90 0 150 -47 150 -139v-266c0 -82 43 -88 98 -93v-4c-7 -3 -77 -28 -113 -28c-34 0 -61 22 -63 65c-30 -26 -92 -69 -158 -69c-68 0 -135 44 -135 128
c0 81 66 158 292 167v62c0 93 -37 144 -122 144zM335 65v192c-11 2 -33 5 -54 5c-94 0 -156 -46 -156 -126c0 -66 46 -99 108 -99c37 0 80 15 102 28zM278 690l92 -122h-8l-108 69l-107 -69h-8l90 122h49z" />
    <glyph glyph-name="atilde" unicode="&#xe3;" horiz-adv-x="509" 
d="M213 489c-58 0 -97 -22 -114 -37c33 -6 55 -23 55 -52s-23 -45 -47 -45s-49 17 -49 49c0 65 109 118 206 118c90 0 150 -47 150 -139v-266c0 -82 43 -88 98 -93v-4c-7 -3 -77 -28 -113 -28c-34 0 -61 22 -63 65c-30 -26 -92 -69 -158 -69c-68 0 -135 44 -135 128
c0 81 66 158 292 167v62c0 93 -37 144 -122 144zM335 65v192c-11 2 -33 5 -54 5c-94 0 -156 -46 -156 -126c0 -66 46 -99 108 -99c37 0 80 15 102 28zM304 618c-44 0 -94 29 -128 29c-28 0 -50 -19 -58 -39l-8 2c5 15 30 79 97 79c42 0 92 -26 127 -26c28 0 49 16 57 36
l8 -2c-6 -17 -30 -79 -95 -79z" />
    <glyph glyph-name="adieresis" unicode="&#xe4;" horiz-adv-x="509" 
d="M213 489c-58 0 -97 -22 -114 -37c33 -6 55 -23 55 -52s-23 -45 -47 -45s-49 17 -49 49c0 65 109 118 206 118c90 0 150 -47 150 -139v-266c0 -82 43 -88 98 -93v-4c-7 -3 -77 -28 -113 -28c-34 0 -61 22 -63 65c-30 -26 -92 -69 -158 -69c-68 0 -135 44 -135 128
c0 81 66 158 292 167v62c0 93 -37 144 -122 144zM335 65v192c-11 2 -33 5 -54 5c-94 0 -156 -46 -156 -126c0 -66 46 -99 108 -99c37 0 80 15 102 28zM373 650c0 -25 -21 -47 -47 -47c-25 0 -47 22 -47 47s22 47 47 47c26 0 47 -22 47 -47zM229 650c0 -25 -22 -47 -47 -47
c-26 0 -47 22 -47 47s21 47 47 47c25 0 47 -22 47 -47z" />
    <glyph glyph-name="aring" unicode="&#xe5;" horiz-adv-x="509" 
d="M213 489c-58 0 -97 -22 -114 -37c33 -6 55 -23 55 -52s-23 -45 -47 -45s-49 17 -49 49c0 65 109 118 206 118c90 0 150 -47 150 -139v-266c0 -82 43 -88 98 -93v-4c-7 -3 -77 -28 -113 -28c-34 0 -61 22 -63 65c-30 -26 -92 -69 -158 -69c-68 0 -135 44 -135 128
c0 81 66 158 292 167v62c0 93 -37 144 -122 144zM335 65v192c-11 2 -33 5 -54 5c-94 0 -156 -46 -156 -126c0 -66 46 -99 108 -99c37 0 80 15 102 28zM358 667c0 -56 -48 -102 -104 -102s-104 46 -104 102s48 102 104 102s104 -46 104 -102zM254 591c42 0 73 34 73 76
s-31 76 -73 76s-74 -34 -74 -76s32 -76 74 -76z" />
    <glyph glyph-name="amacron" unicode="&#x101;" horiz-adv-x="509" 
d="M213 489c-58 0 -97 -22 -114 -37c33 -6 55 -23 55 -52s-23 -45 -47 -45s-49 17 -49 49c0 65 109 118 206 118c90 0 150 -47 150 -139v-266c0 -82 43 -88 98 -93v-4c-7 -3 -77 -28 -113 -28c-34 0 -61 22 -63 65c-30 -26 -92 -69 -158 -69c-68 0 -135 44 -135 128
c0 81 66 158 292 167v62c0 93 -37 144 -122 144zM335 65v192c-11 2 -33 5 -54 5c-94 0 -156 -46 -156 -126c0 -66 46 -99 108 -99c37 0 80 15 102 28zM394 658v-40h-280v40h280z" />
    <glyph glyph-name="abreve" unicode="&#x103;" horiz-adv-x="509" 
d="M213 489c-58 0 -97 -22 -114 -37c33 -6 55 -23 55 -52s-23 -45 -47 -45s-49 17 -49 49c0 65 109 118 206 118c90 0 150 -47 150 -139v-266c0 -82 43 -88 98 -93v-4c-7 -3 -77 -28 -113 -28c-34 0 -61 22 -63 65c-30 -26 -92 -69 -158 -69c-68 0 -135 44 -135 128
c0 81 66 158 292 167v62c0 93 -37 144 -122 144zM335 65v192c-11 2 -33 5 -54 5c-94 0 -156 -46 -156 -126c0 -66 46 -99 108 -99c37 0 80 15 102 28zM254 625c43 0 93 24 113 65h4c-10 -55 -46 -115 -117 -115s-107 60 -117 115h4c20 -41 69 -65 113 -65z" />
    <glyph glyph-name="aogonek" unicode="&#x105;" horiz-adv-x="509" 
d="M512 -171v-4c-12 -15 -38 -34 -71 -34c-48 0 -74 32 -74 66c0 53 76 122 132 158c-24 -8 -72 -23 -100 -23c-34 0 -61 22 -63 65c-30 -26 -92 -69 -158 -69c-68 0 -135 44 -135 128c0 81 66 158 292 167v62c0 93 -37 144 -122 144c-58 0 -97 -22 -114 -37
c33 -6 55 -23 55 -52s-23 -45 -47 -45s-49 17 -49 49c0 65 109 118 206 118c90 0 150 -47 150 -139v-266c0 -82 43 -88 98 -93v-4c-34 -36 -75 -108 -75 -153c0 -23 16 -42 47 -42c8 0 18 1 28 4zM335 65v192c-11 2 -33 5 -54 5c-94 0 -156 -46 -156 -126
c0 -66 46 -99 108 -99c37 0 80 15 102 28z" />
    <glyph glyph-name="ccedilla" unicode="&#xe7;" horiz-adv-x="466" 
d="M169 -183l12 11c23 -10 46 -13 66 -13c23 0 58 13 58 46c0 38 -61 53 -96 54l55 74c-115 -1 -216 99 -216 252c0 166 110 280 248 280c68 0 138 -23 138 -76c0 -22 -17 -63 -53 -63c-29 0 -54 21 -54 51c0 24 13 46 31 57c-13 4 -31 7 -49 7c-114 0 -176 -85 -176 -222
c0 -154 89 -225 188 -225c58 0 112 30 137 51l7 -5c-19 -30 -79 -96 -170 -106l-26 -41c38 -4 95 -29 95 -80c0 -61 -69 -77 -107 -77c-40 0 -70 12 -88 25z" />
    <glyph glyph-name="cacute" unicode="&#x107;" horiz-adv-x="466" 
d="M303 501c-110 0 -170 -94 -170 -226c0 -154 89 -225 188 -225c63 0 111 29 137 51l7 -5c-20 -32 -89 -108 -194 -108c-121 0 -223 93 -223 253c0 167 112 281 251 281c66 0 140 -27 140 -81c0 -31 -24 -59 -58 -59c-29 0 -54 21 -54 51c0 24 13 49 31 60
c-15 5 -35 8 -55 8zM302 690h93c-37 -51 -91 -92 -160 -122h-5c32 34 59 78 72 122z" />
    <glyph glyph-name="ccircumflex" unicode="&#x109;" horiz-adv-x="466" 
d="M303 501c-110 0 -170 -94 -170 -226c0 -154 89 -225 188 -225c63 0 111 29 137 51l7 -5c-20 -32 -89 -108 -194 -108c-121 0 -223 93 -223 253c0 167 112 281 251 281c66 0 140 -27 140 -81c0 -31 -24 -59 -58 -59c-29 0 -54 21 -54 51c0 24 13 49 31 60
c-15 5 -35 8 -55 8zM308 690l90 -122h-8l-108 64l-107 -64h-8l88 122h53z" />
    <glyph glyph-name="cdotaccent" unicode="&#x10b;" horiz-adv-x="466" 
d="M303 501c-110 0 -170 -94 -170 -226c0 -154 89 -225 188 -225c63 0 111 29 137 51l7 -5c-20 -32 -89 -108 -194 -108c-121 0 -223 93 -223 253c0 167 112 281 251 281c66 0 140 -27 140 -81c0 -31 -24 -59 -58 -59c-29 0 -54 21 -54 51c0 24 13 49 31 60
c-15 5 -35 8 -55 8zM343 643c0 -30 -25 -54 -54 -54c-30 0 -54 24 -54 54c0 29 24 54 54 54c29 0 54 -25 54 -54z" />
    <glyph glyph-name="ccaron" unicode="&#x10d;" horiz-adv-x="466" 
d="M303 501c-110 0 -170 -94 -170 -226c0 -154 89 -225 188 -225c63 0 111 29 137 51l7 -5c-20 -32 -89 -108 -194 -108c-121 0 -223 93 -223 253c0 167 112 281 251 281c66 0 140 -27 140 -81c0 -31 -24 -59 -58 -59c-29 0 -54 21 -54 51c0 24 13 49 31 60
c-15 5 -35 8 -55 8zM288 626l108 64h8l-90 -122h-53l-88 122h8z" />
    <glyph glyph-name="dcaron" unicode="&#x10f;" horiz-adv-x="640" 
d="M441 95v351c-38 31 -96 52 -144 52c-102 0 -168 -99 -168 -229c0 -141 76 -218 188 -218c52 0 90 21 124 44zM351 705v4c53 5 127 24 168 45h4v-573c0 -118 8 -129 85 -149v-4c-72 -7 -124 -24 -163 -40h-4v95c-31 -40 -96 -95 -184 -95c-112 0 -211 96 -211 241
c0 191 135 293 288 293c35 0 81 -7 107 -12v75c0 91 -17 104 -90 120zM586 542c-2 0 -4 0 -6 1c8 22 12 45 12 65c0 51 -25 69 -25 100c0 27 20 46 46 46c27 0 47 -22 47 -49c0 -41 -45 -110 -74 -163z" />
    <glyph glyph-name="dcroat" unicode="&#x111;" horiz-adv-x="613" 
d="M351 705v4c53 5 127 24 168 45h4v-137h63v-34h-63v-408c0 -112 9 -123 85 -143v-4c-72 -7 -124 -24 -163 -40h-4v95c-31 -40 -96 -95 -184 -95c-114 0 -211 98 -211 241c0 191 135 293 288 293c35 0 81 -7 107 -12v73h-160v34h158c-4 61 -23 74 -88 88zM441 95v351
c-38 31 -96 52 -144 52c-102 0 -168 -99 -168 -229c0 -141 76 -218 188 -218c52 0 90 21 124 44z" />
    <glyph glyph-name="egrave" unicode="&#xe8;" horiz-adv-x="509" 
d="M472 296h-338v-27c0 -138 78 -218 183 -218c72 0 123 33 154 59l6 -4c-21 -36 -88 -118 -202 -118c-128 0 -226 96 -226 252c0 177 118 282 240 282c94 0 184 -38 184 -200c0 -11 0 -14 -1 -26zM279 500c-71 0 -131 -62 -143 -184l256 9c0 127 -46 175 -113 175zM187 690
h84c13 -44 40 -91 81 -122h-5c-69 30 -123 71 -160 122z" />
    <glyph glyph-name="eacute" unicode="&#xe9;" horiz-adv-x="509" 
d="M472 296h-338v-27c0 -138 78 -218 183 -218c72 0 123 33 154 59l6 -4c-21 -36 -88 -118 -202 -118c-128 0 -226 96 -226 252c0 177 118 282 240 282c94 0 184 -38 184 -200c0 -11 0 -14 -1 -26zM279 500c-71 0 -131 -62 -143 -184l256 9c0 127 -46 175 -113 175zM301 690
h84c-37 -51 -91 -92 -160 -122h-5c41 31 68 78 81 122z" />
    <glyph glyph-name="ecircumflex" unicode="&#xea;" horiz-adv-x="509" 
d="M472 296h-338v-27c0 -138 78 -218 183 -218c72 0 123 33 154 59l6 -4c-21 -36 -88 -118 -202 -118c-128 0 -226 96 -226 252c0 177 118 282 240 282c94 0 184 -38 184 -200c0 -11 0 -14 -1 -26zM279 500c-71 0 -131 -62 -143 -184l256 9c0 127 -46 175 -113 175zM278 690
l92 -122h-8l-108 69l-107 -69h-8l90 122h49z" />
    <glyph glyph-name="edieresis" unicode="&#xeb;" horiz-adv-x="509" 
d="M472 296h-338v-27c0 -138 78 -218 183 -218c72 0 123 33 154 59l6 -4c-21 -36 -88 -118 -202 -118c-128 0 -226 96 -226 252c0 177 118 282 240 282c94 0 184 -38 184 -200c0 -11 0 -14 -1 -26zM279 500c-71 0 -131 -62 -143 -184l256 9c0 127 -46 175 -113 175zM373 650
c0 -25 -21 -47 -47 -47c-25 0 -47 22 -47 47s22 47 47 47c26 0 47 -22 47 -47zM229 650c0 -25 -22 -47 -47 -47c-26 0 -47 22 -47 47s21 47 47 47c25 0 47 -22 47 -47z" />
    <glyph glyph-name="emacron" unicode="&#x113;" horiz-adv-x="509" 
d="M472 296h-338v-27c0 -138 78 -218 183 -218c72 0 123 33 154 59l6 -4c-21 -36 -88 -118 -202 -118c-128 0 -226 96 -226 252c0 177 118 282 240 282c94 0 184 -38 184 -200c0 -11 0 -14 -1 -26zM279 500c-71 0 -131 -62 -143 -184l256 9c0 127 -46 175 -113 175zM442 658
v-40h-280v40h280z" />
    <glyph glyph-name="ebreve" unicode="&#x115;" horiz-adv-x="509" 
d="M472 296h-338v-27c0 -138 78 -218 183 -218c72 0 123 33 154 59l6 -4c-21 -36 -88 -118 -202 -118c-128 0 -226 96 -226 252c0 177 118 282 240 282c94 0 184 -38 184 -200c0 -11 0 -14 -1 -26zM279 500c-71 0 -131 -62 -143 -184l256 9c0 127 -46 175 -113 175zM283 625
c43 0 93 24 113 65h4c-10 -55 -46 -115 -117 -115s-107 60 -117 115h4c20 -41 69 -65 113 -65z" />
    <glyph glyph-name="edotaccent" unicode="&#x117;" horiz-adv-x="509" 
d="M472 296h-338v-27c0 -138 78 -218 183 -218c72 0 123 33 154 59l6 -4c-21 -36 -88 -118 -202 -118c-128 0 -226 96 -226 252c0 177 118 282 240 282c94 0 184 -38 184 -200c0 -11 0 -14 -1 -26zM279 500c-71 0 -131 -62 -143 -184l256 9c0 127 -46 175 -113 175zM333 642
c0 -26 -22 -48 -48 -48s-48 22 -48 48s22 48 48 48s48 -22 48 -48z" />
    <glyph glyph-name="eogonek" unicode="&#x119;" horiz-adv-x="509" 
d="M477 -171v-4c-12 -15 -38 -34 -71 -34c-48 0 -74 32 -74 66c0 60 62 121 120 213c-33 -38 -92 -82 -177 -82c-128 0 -226 96 -226 252c0 177 118 282 240 282c94 0 184 -48 184 -210c0 -11 0 -14 -1 -26h-338v-17c0 -138 78 -220 183 -220c72 0 123 33 154 59l6 -4
c-35 -64 -75 -193 -75 -237c0 -23 16 -42 47 -42c8 0 18 1 28 4zM279 500c-71 0 -131 -72 -143 -194l256 9c0 127 -46 185 -113 185z" />
    <glyph glyph-name="ecaron" unicode="&#x11b;" horiz-adv-x="509" 
d="M134 286v-17c0 -138 78 -220 183 -220c72 0 123 33 154 59l6 -4c-21 -36 -88 -116 -202 -116c-128 0 -226 96 -226 252c0 177 118 282 240 282c94 0 184 -48 184 -210c0 -11 0 -14 -1 -26h-338zM279 500c-71 0 -131 -72 -143 -194l256 9c0 127 -46 185 -113 185zM266 626
l108 64h8l-90 -122h-53l-88 122h8z" />
    <glyph glyph-name="gcircumflex" unicode="&#x11d;" horiz-adv-x="519" 
d="M255 165c-28 0 -55 4 -80 14c-21 -20 -35 -43 -35 -62c0 -23 19 -41 64 -43l143 -7c103 -5 167 -31 167 -116c0 -128 -165 -191 -299 -191c-101 0 -204 36 -204 113c0 80 111 119 146 132c-44 9 -71 34 -74 67c0 35 21 73 81 111c-59 27 -105 82 -105 161
c0 108 86 178 190 178c42 0 81 -11 116 -32l164 32l-8 -66l-131 13c31 -25 57 -67 57 -124c0 -103 -84 -180 -192 -180zM345 -6l-162 7c-6 0 -12 1 -17 2c-36 -20 -81 -55 -81 -110c0 -66 64 -110 162 -110c106 0 202 50 202 133c0 49 -31 75 -104 78zM253 183
c73 0 109 78 109 158c0 84 -38 161 -109 161c-70 0 -109 -73 -109 -158c0 -78 34 -161 109 -161zM283 690l90 -122h-8c-36 21 -72 42 -108 64l-107 -64h-8l88 122h53z" />
    <glyph glyph-name="gbreve" unicode="&#x11f;" horiz-adv-x="519" 
d="M255 165c-28 0 -55 4 -80 14c-21 -20 -35 -43 -35 -62c0 -23 19 -41 64 -43l143 -7c103 -5 167 -31 167 -116c0 -128 -165 -191 -299 -191c-101 0 -204 36 -204 113c0 80 111 119 146 132c-44 9 -71 34 -74 67c0 35 21 73 81 111c-59 27 -105 82 -105 161
c0 108 86 178 190 178c42 0 81 -11 116 -32l164 32l-8 -66l-131 13c31 -25 57 -67 57 -124c0 -103 -84 -180 -192 -180zM345 -6l-162 7c-6 0 -12 1 -17 2c-36 -20 -81 -55 -81 -110c0 -66 64 -110 162 -110c106 0 202 50 202 133c0 49 -31 75 -104 78zM253 183
c73 0 109 78 109 158c0 84 -38 161 -109 161c-70 0 -109 -73 -109 -158c0 -78 34 -161 109 -161zM258 627c40 0 93 22 113 63h4c-10 -55 -46 -120 -117 -120s-107 65 -117 120h4c20 -41 72 -63 113 -63z" />
    <glyph glyph-name="gdotaccent" unicode="&#x121;" horiz-adv-x="519" 
d="M255 165c-28 0 -55 4 -80 14c-21 -20 -35 -43 -35 -62c0 -23 19 -41 64 -43l143 -7c103 -5 167 -31 167 -116c0 -128 -165 -191 -299 -191c-101 0 -204 36 -204 113c0 80 111 119 146 132c-44 9 -71 34 -74 67c0 35 21 73 81 111c-59 27 -105 82 -105 161
c0 108 86 178 190 178c42 0 81 -11 116 -32l164 32l-8 -66l-131 13c31 -25 57 -67 57 -124c0 -103 -84 -180 -192 -180zM345 -6l-162 7c-6 0 -12 1 -17 2c-36 -20 -81 -55 -81 -110c0 -66 64 -110 162 -110c106 0 202 50 202 133c0 49 -31 75 -104 78zM253 183
c73 0 109 78 109 158c0 84 -38 161 -109 161c-70 0 -109 -73 -109 -158c0 -78 34 -161 109 -161zM312 643c0 -30 -25 -54 -54 -54c-30 0 -54 24 -54 54c0 29 24 54 54 54c29 0 54 -25 54 -54z" />
    <glyph glyph-name="gcommaaccent" unicode="&#x123;" horiz-adv-x="519" 
d="M255 165c-28 0 -55 4 -80 14c-21 -20 -35 -43 -35 -62c0 -23 19 -41 64 -43l143 -7c103 -5 167 -31 167 -116c0 -128 -165 -191 -299 -191c-101 0 -204 36 -204 113c0 80 111 119 146 132c-44 9 -71 34 -74 67c0 35 21 73 81 111c-59 27 -105 82 -105 161
c0 108 86 178 190 178c42 0 81 -11 116 -32l164 32l-8 -66l-131 13c31 -25 57 -67 57 -124c0 -103 -84 -180 -192 -180zM345 -6l-162 7c-6 0 -12 1 -17 2c-36 -20 -81 -55 -81 -110c0 -66 64 -110 162 -110c106 0 202 50 202 133c0 49 -31 75 -104 78zM253 183
c73 0 109 78 109 158c0 84 -38 161 -109 161c-70 0 -109 -73 -109 -158c0 -78 34 -161 109 -161zM318 774l3 -2c-29 -37 -39 -68 -39 -90c0 -27 27 -33 27 -68c0 -28 -22 -48 -49 -48c-30 0 -50 26 -50 55c0 53 55 116 108 153z" />
    <glyph glyph-name="hcircumflex" unicode="&#x125;" horiz-adv-x="614" 
d="M440 126v225c0 81 -46 119 -111 119c-50 0 -103 -22 -139 -43v-301c0 -87 15 -106 73 -122v-4h-228v4c59 18 73 38 73 122v453c0 88 -10 105 -85 126v4c57 3 122 27 163 45h4v-313c28 23 107 81 180 81c81 0 149 -45 149 -173v-200c0 -107 9 -127 73 -145v-4h-225v4
c59 18 73 38 73 122zM173 903l90 -122h-8c-3 3 -7 5 -11 7l-97 57l-107 -64h-8l88 122h53z" />
    <glyph glyph-name="hbar" unicode="&#x127;" horiz-adv-x="614" 
d="M440 126v225c0 81 -46 119 -111 119c-50 0 -103 -22 -139 -43v-301c0 -84 14 -104 73 -122v-4h-227v4c59 18 73 38 73 122v457h-65v34h64c-4 56 -22 70 -84 88v4c57 3 121 27 162 45h4v-137h154v-34h-154v-142c28 23 107 81 180 81c81 0 149 -50 149 -177v-219
c0 -84 14 -104 73 -122v-4h-225v4c59 18 73 38 73 122z" />
    <glyph glyph-name="igrave" unicode="&#xec;" horiz-adv-x="289" 
d="M26 478v4c57 4 121 23 160 40h4v-399c0 -82 14 -101 73 -119v-4h-225v4c59 18 73 37 73 119v234c0 88 -15 101 -85 121zM62 690h84c13 -44 40 -91 81 -122h-5c-69 30 -123 71 -160 122z" />
    <glyph glyph-name="iacute" unicode="&#xed;" horiz-adv-x="289" 
d="M26 478v4c57 4 121 23 160 40h4v-399c0 -82 14 -101 73 -119v-4h-225v4c59 18 73 37 73 119v234c0 88 -15 101 -85 121zM143 690h84c-37 -51 -91 -92 -160 -122h-5c41 31 68 78 81 122z" />
    <glyph glyph-name="icircumflex" unicode="&#xee;" horiz-adv-x="289" 
d="M26 478v4c57 4 121 23 160 40h4v-399c0 -82 14 -101 73 -119v-4h-225v4c59 18 73 37 73 119v234c0 88 -15 101 -85 121zM168 690l92 -122h-8l-108 69l-107 -69h-8l90 122h49z" />
    <glyph glyph-name="idieresis" unicode="&#xef;" horiz-adv-x="289" 
d="M26 478v4c57 4 121 23 160 40h4v-399c0 -82 14 -101 73 -119v-4h-225v4c59 18 73 37 73 119v234c0 88 -15 101 -85 121zM264 650c0 -25 -21 -47 -47 -47c-25 0 -47 22 -47 47s22 47 47 47c26 0 47 -22 47 -47zM120 650c0 -25 -22 -47 -47 -47c-26 0 -47 22 -47 47
s21 47 47 47c25 0 47 -22 47 -47z" />
    <glyph glyph-name="itilde" unicode="&#x129;" horiz-adv-x="289" 
d="M26 478v4c57 4 121 23 160 40h4v-399c0 -82 14 -101 73 -119v-4h-225v4c59 18 73 37 73 119v234c0 88 -15 101 -85 121zM196 613c-49 0 -96 34 -129 34c-30 0 -51 -19 -59 -39l-8 2c5 16 33 84 94 84c47 0 94 -31 129 -31c29 0 50 16 58 36l8 -2c-6 -18 -33 -84 -93 -84z
" />
    <glyph glyph-name="imacron" unicode="&#x12b;" horiz-adv-x="289" 
d="M26 478v4c57 4 121 23 160 40h4v-399c0 -82 14 -101 73 -119v-4h-225v4c59 18 73 37 73 119v234c0 88 -15 101 -85 121zM269 652v-45h-250v45h250z" />
    <glyph glyph-name="ibreve" unicode="&#x12d;" horiz-adv-x="289" 
d="M26 478v4c57 4 121 23 160 40h4v-399c0 -82 14 -101 73 -119v-4h-225v4c59 18 73 37 73 119v234c0 88 -15 101 -85 121zM145 627c40 0 93 22 113 63h4c-10 -55 -46 -120 -117 -120s-107 65 -117 120h4c20 -41 72 -63 113 -63z" />
    <glyph glyph-name="iogonek" unicode="&#x12f;" horiz-adv-x="289" 
d="M260 -171v-4c-12 -15 -38 -34 -71 -34c-48 0 -74 32 -74 66c0 55 84 108 140 143h-217v4c59 18 73 37 73 119v234c0 88 -15 101 -85 121v4c57 4 121 23 160 40h4v-399c0 -82 14 -101 73 -119v-4c-37 -37 -78 -88 -78 -133c0 -23 16 -42 47 -42c8 0 18 1 28 4zM203 654
c0 -30 -25 -54 -54 -54c-30 0 -54 24 -54 54c0 29 24 54 54 54c29 0 54 -25 54 -54z" />
    <glyph glyph-name="i.locl" horiz-adv-x="289" 
d="M203 654c0 -30 -25 -54 -54 -54c-30 0 -54 24 -54 54c0 29 24 54 54 54c29 0 54 -25 54 -54zM26 478v4c57 4 121 23 160 40h4v-399c0 -82 14 -101 73 -119v-4h-225v4c59 18 73 37 73 119v234c0 88 -15 101 -85 121z" />
    <glyph glyph-name="ij" unicode="&#x133;" horiz-adv-x="578" 
d="M203 654c0 -30 -25 -54 -54 -54c-30 0 -54 24 -54 54c0 29 24 54 54 54c29 0 54 -25 54 -54zM26 478v4c57 4 121 23 160 40h4v-399c0 -82 14 -101 73 -119v-4h-225v4c59 18 73 37 73 119v234c0 88 -15 101 -85 121zM492 654c0 -30 -25 -54 -54 -54c-30 0 -54 24 -54 54
c0 29 24 54 54 54c29 0 54 -25 54 -54zM476 522h4v-525c0 -151 -89 -211 -156 -237l-3 5c48 30 77 104 77 193v399c0 88 -14 101 -85 121v4c57 4 124 23 163 40z" />
    <glyph glyph-name="jcircumflex" unicode="&#x135;" horiz-adv-x="289" 
d="M187 522h4v-525c0 -151 -87 -211 -154 -237l-3 5c48 30 77 104 77 193v399c0 88 -15 101 -85 121v4c57 4 122 23 161 40zM170 690l90 -122h-8l-108 64l-107 -64h-8l88 122h53z" />
    <glyph glyph-name="kcommaaccent" unicode="&#x137;" horiz-adv-x="582" 
d="M346 106l-129 158l99 97c43 40 69 70 69 91c0 17 -16 42 -70 51v7h253v-4c-52 -12 -91 -35 -184 -120l-94 -86c53 -63 106 -125 160 -187c69 -81 111 -99 152 -109v-4h-79c-103 0 -94 4 -177 106zM23 705v4c53 5 122 24 163 45h4v-631c0 -82 14 -101 73 -119v-4h-228v4
c59 18 73 37 73 119v462c0 88 -13 103 -85 120zM238 -254l-3 2c29 37 39 68 39 90c0 27 -27 33 -27 68c0 28 22 48 49 48c30 0 50 -26 50 -55c0 -53 -55 -116 -108 -153z" />
    <glyph glyph-name="kgreenlandic" unicode="&#x138;" horiz-adv-x="582" 
d="M346 106l-129 158l99 97c85 80 104 126 -1 142v7h253v-4c-48 -11 -90 -32 -170 -105l-108 -101l160 -187c69 -81 112 -99 152 -109v-4h-98c-82 0 -80 9 -158 106zM26 478v4c57 4 121 23 160 40h4v-399c0 -82 14 -101 73 -119v-4h-225v4c59 18 73 37 73 119v234
c0 88 -15 101 -85 121z" />
    <glyph glyph-name="lacute" unicode="&#x13a;" horiz-adv-x="282" 
d="M23 705v4c53 5 122 24 163 45h4v-631c0 -82 14 -101 73 -119v-4h-228v4c59 18 73 37 73 119v462c0 88 -13 103 -85 120zM135 884h93c-37 -51 -91 -92 -160 -122h-5c32 34 59 78 72 122z" />
    <glyph glyph-name="lcommaaccent" unicode="&#x13c;" horiz-adv-x="282" 
d="M23 705v4c53 5 122 24 163 45h4v-631c0 -82 14 -101 73 -119v-4h-228v4c59 18 73 37 73 119v462c0 88 -13 103 -85 120zM88 -254l-3 2c29 37 39 68 39 90c0 27 -27 33 -27 67c0 29 22 49 49 49c30 0 50 -26 50 -55c0 -54 -55 -116 -108 -153z" />
    <glyph glyph-name="lcaron" unicode="&#x13e;" horiz-adv-x="314" 
d="M23 705v4c53 5 122 24 163 45h4v-631c0 -82 14 -101 73 -119v-4h-228v4c59 18 73 37 73 119v462c0 88 -13 103 -85 120zM256 542c-2 0 -4 0 -6 1c8 22 12 45 12 65c0 51 -25 69 -25 100c0 27 20 46 46 46c27 0 47 -22 47 -49c0 -41 -45 -110 -74 -163z" />
    <glyph glyph-name="ldot" unicode="&#x140;" horiz-adv-x="322" 
d="M23 705v4c53 5 122 24 163 45h4v-631c0 -82 14 -101 73 -119v-4h-228v4c59 18 73 37 73 119v462c0 88 -13 103 -85 120zM351 356c0 -33 -27 -60 -60 -60s-60 27 -60 60s27 60 60 60s60 -27 60 -60z" />
    <glyph glyph-name="lslash" unicode="&#x142;" horiz-adv-x="282" 
d="M23 705v4c53 5 122 24 163 45h4v-270l88 35v-38l-88 -35v-323c0 -82 14 -101 73 -119v-4h-228v4c59 18 73 37 73 119v292l-90 -34v38l90 34v132c0 88 -13 103 -85 120z" />
    <glyph glyph-name="ntilde" unicode="&#xf1;" horiz-adv-x="613" 
d="M438 126v225c0 81 -45 119 -111 119c-51 0 -103 -22 -139 -43v-304c0 -83 14 -101 73 -119v-4h-225v4c59 18 73 36 73 119v212c0 112 -10 122 -85 143v4c57 4 120 23 159 40h4v-81c35 29 109 81 184 81c77 0 146 -45 146 -172v-224c0 -84 14 -104 73 -122v-4h-225v4
c59 18 73 38 73 122zM356 618c-44 0 -94 29 -128 29c-28 0 -50 -19 -58 -39l-8 2c5 15 30 79 97 79c42 0 92 -26 127 -26c28 0 49 16 57 36l8 -2c-6 -17 -30 -79 -95 -79z" />
    <glyph glyph-name="nacute" unicode="&#x144;" horiz-adv-x="613" 
d="M438 126v225c0 81 -45 119 -111 119c-51 0 -103 -22 -139 -43v-304c0 -83 14 -101 73 -119v-4h-225v4c59 18 73 36 73 119v212c0 112 -10 122 -85 143v4c57 4 120 23 159 40h4v-81c35 29 109 81 184 81c77 0 146 -45 146 -172v-224c0 -84 14 -104 73 -122v-4h-225v4
c59 18 73 38 73 122zM294 690h93c-37 -51 -91 -92 -160 -122h-5c32 34 59 78 72 122z" />
    <glyph glyph-name="ncommaaccent" unicode="&#x146;" horiz-adv-x="613" 
d="M438 126v225c0 81 -45 119 -111 119c-51 0 -103 -22 -139 -43v-304c0 -83 14 -101 73 -119v-4h-225v4c59 18 73 36 73 119v212c0 112 -10 122 -85 143v4c57 4 120 23 159 40h4v-81c35 29 109 81 184 81c77 0 146 -45 146 -172v-224c0 -84 14 -104 73 -122v-4h-225v4
c59 18 73 38 73 122zM252 -254l-3 2c29 37 39 68 39 90c0 27 -27 33 -27 68c0 28 22 48 49 48c30 0 50 -26 50 -55c0 -53 -55 -116 -108 -153z" />
    <glyph glyph-name="ncaron" unicode="&#x148;" horiz-adv-x="613" 
d="M438 126v225c0 81 -45 119 -111 119c-51 0 -103 -22 -139 -43v-304c0 -83 14 -101 73 -119v-4h-225v4c59 18 73 36 73 119v212c0 112 -10 122 -85 143v4c57 4 120 23 159 40h4v-81c35 29 109 81 184 81c77 0 146 -45 146 -172v-224c0 -84 14 -104 73 -122v-4h-225v4
c59 18 73 38 73 122zM412 690h8l-90 -122h-53l-88 122h8l107 -64c36 21 72 42 108 64z" />
    <glyph glyph-name="napostrophe" unicode="&#x149;" horiz-adv-x="613" 
d="M438 126v225c0 81 -45 119 -111 119c-51 0 -103 -22 -139 -43v-304c0 -83 14 -101 73 -119v-4h-225v4c59 18 73 36 73 119v212c0 112 -10 122 -85 143v4c57 4 120 23 159 40h4v-81c35 29 109 81 184 81c77 0 146 -45 146 -172v-224c0 -84 14 -104 73 -122v-4h-225v4
c59 18 73 38 73 122zM93 546l-3 2c29 37 39 68 39 90c0 27 -27 33 -27 67c0 29 22 49 49 49c30 0 50 -26 50 -55c0 -54 -55 -116 -108 -153z" />
    <glyph glyph-name="ograve" unicode="&#xf2;" horiz-adv-x="613" 
d="M306 -12c-142 0 -258 120 -258 269c0 152 121 265 258 265s259 -113 259 -265c0 -149 -117 -269 -259 -269zM306 9c116 0 165 130 165 247c0 129 -59 245 -165 245s-165 -116 -165 -245c0 -117 49 -247 165 -247zM202 690h84c13 -44 40 -91 81 -122h-5
c-69 30 -123 71 -160 122z" />
    <glyph glyph-name="oacute" unicode="&#xf3;" horiz-adv-x="613" 
d="M306 -12c-142 0 -258 120 -258 269c0 152 121 265 258 265s259 -113 259 -265c0 -149 -117 -269 -259 -269zM306 9c116 0 165 130 165 247c0 129 -59 245 -165 245s-165 -116 -165 -245c0 -117 49 -247 165 -247zM327 690h84c-37 -51 -91 -92 -160 -122h-5
c41 31 68 78 81 122z" />
    <glyph glyph-name="ocircumflex" unicode="&#xf4;" horiz-adv-x="613" 
d="M306 -12c-142 0 -258 120 -258 269c0 152 121 265 258 265s259 -113 259 -265c0 -149 -117 -269 -259 -269zM306 9c116 0 165 130 165 247c0 129 -59 245 -165 245s-165 -116 -165 -245c0 -117 49 -247 165 -247zM330 690l92 -122h-8l-108 69l-107 -69h-8l90 122h49z" />
    <glyph glyph-name="otilde" unicode="&#xf5;" horiz-adv-x="613" 
d="M306 -12c-142 0 -258 120 -258 269c0 152 121 265 258 265s259 -113 259 -265c0 -149 -117 -269 -259 -269zM306 9c116 0 165 130 165 247c0 129 -59 245 -165 245s-165 -116 -165 -245c0 -117 49 -247 165 -247zM356 618c-44 0 -94 29 -128 29c-28 0 -50 -19 -58 -39
l-8 2c5 15 30 79 97 79c42 0 92 -26 127 -26c28 0 49 16 57 36l8 -2c-6 -17 -30 -79 -95 -79z" />
    <glyph glyph-name="odieresis" unicode="&#xf6;" horiz-adv-x="613" 
d="M306 -12c-142 0 -258 120 -258 269c0 152 121 265 258 265s259 -113 259 -265c0 -149 -117 -269 -259 -269zM306 9c116 0 165 130 165 247c0 129 -59 245 -165 245s-165 -116 -165 -245c0 -117 49 -247 165 -247zM425 650c0 -25 -21 -47 -47 -47c-25 0 -47 22 -47 47
s22 47 47 47c26 0 47 -22 47 -47zM281 650c0 -25 -22 -47 -47 -47c-26 0 -47 22 -47 47s21 47 47 47c25 0 47 -22 47 -47z" />
    <glyph glyph-name="oslash" unicode="&#xf8;" horiz-adv-x="613" 
d="M177 23l-35 -55l-28 17l37 57c-63 49 -103 126 -103 214c0 153 121 266 258 266c46 0 91 -14 131 -37l38 60l27 -18l-39 -60c61 -48 102 -123 102 -211c0 -148 -117 -268 -259 -268c-47 0 -91 12 -129 35zM141 256c0 -59 12 -121 40 -167l231 358c-27 33 -62 54 -106 54
c-106 0 -165 -115 -165 -245zM306 9c116 0 165 131 165 247c0 61 -14 118 -39 162l-232 -359c26 -31 61 -50 106 -50z" />
    <glyph glyph-name="omacron" unicode="&#x14d;" horiz-adv-x="613" 
d="M306 -12c-142 0 -258 120 -258 269c0 152 121 265 258 265s259 -113 259 -265c0 -149 -117 -269 -259 -269zM306 9c116 0 165 130 165 247c0 129 -59 245 -165 245s-165 -116 -165 -245c0 -117 49 -247 165 -247zM446 658v-40h-280v40h280z" />
    <glyph glyph-name="obreve" unicode="&#x14f;" horiz-adv-x="613" 
d="M306 -12c-142 0 -258 120 -258 269c0 152 121 265 258 265s259 -113 259 -265c0 -149 -117 -269 -259 -269zM306 9c116 0 165 130 165 247c0 129 -59 245 -165 245s-165 -116 -165 -245c0 -117 49 -247 165 -247zM306 625c43 0 93 24 113 65h4
c-10 -55 -46 -115 -117 -115s-107 60 -117 115h4c20 -41 69 -65 113 -65z" />
    <glyph glyph-name="ohungarumlaut" unicode="&#x151;" horiz-adv-x="613" 
d="M306 -12c-142 0 -258 120 -258 269c0 152 121 265 258 265s259 -113 259 -265c0 -149 -117 -269 -259 -269zM306 9c116 0 165 130 165 247c0 129 -59 245 -165 245s-165 -116 -165 -245c0 -117 49 -247 165 -247zM226 690h76c-22 -46 -53 -86 -101 -122h-9
c22 40 32 79 34 122zM345 690h76c-22 -46 -53 -86 -101 -122h-9c22 40 32 79 34 122z" />
    <glyph glyph-name="racute" unicode="&#x155;" horiz-adv-x="372" 
d="M366 465c0 -32 -25 -57 -57 -57s-57 25 -57 57s25 57 57 57s57 -25 57 -57zM26 473v4c57 3 119 27 160 45h4v-396c0 -85 16 -105 86 -122v-4h-238v4c59 18 73 37 73 122v221c0 88 -10 105 -85 126zM175 690h93c-37 -51 -91 -92 -160 -122h-5c33 34 59 78 72 122z" />
    <glyph glyph-name="rcommaaccent" unicode="&#x157;" horiz-adv-x="372" 
d="M366 465c0 -32 -25 -57 -57 -57s-57 25 -57 57s25 57 57 57s57 -25 57 -57zM26 473v4c57 3 119 27 160 45h4v-396c0 -85 16 -105 86 -122v-4h-238v4c59 18 73 37 73 122v221c0 88 -10 105 -85 126zM115 -254l-3 2c29 37 39 68 39 90c0 27 -27 33 -27 67c0 29 22 49 49 49
c30 0 50 -26 50 -55c0 -54 -55 -116 -108 -153z" />
    <glyph glyph-name="rcaron" unicode="&#x159;" horiz-adv-x="372" 
d="M366 465c0 -32 -25 -57 -57 -57s-57 25 -57 57s25 57 57 57s57 -25 57 -57zM26 473v4c57 3 119 27 160 45h4v-396c0 -85 16 -105 86 -122v-4h-238v4c59 18 73 37 73 122v221c0 88 -10 105 -85 126zM185 626l108 64h8l-90 -122h-53l-88 122h8z" />
    <glyph glyph-name="sacute" unicode="&#x15b;" horiz-adv-x="425" 
d="M51 29v132h4c45 -103 101 -153 165 -153c57 0 103 41 103 92c0 126 -267 108 -267 283c0 88 76 139 165 139c40 0 84 -10 130 -29v-121h-5c-39 90 -90 130 -141 130c-47 0 -91 -35 -91 -87c0 -123 270 -100 270 -279c0 -86 -70 -148 -177 -148c-47 0 -103 12 -156 41z
M215 690h93c-37 -51 -91 -92 -160 -122h-5c33 34 59 78 72 122z" />
    <glyph glyph-name="scircumflex" unicode="&#x15d;" horiz-adv-x="425" 
d="M51 29v132h4c45 -103 101 -153 165 -153c57 0 103 41 103 92c0 126 -267 108 -267 283c0 88 76 139 165 139c40 0 84 -10 130 -29v-121h-5c-39 90 -90 130 -141 130c-47 0 -91 -35 -91 -87c0 -123 270 -100 270 -279c0 -86 -70 -148 -177 -148c-47 0 -103 12 -156 41z
M238 690l90 -122h-8l-108 64l-107 -64h-8l88 122h53z" />
    <glyph glyph-name="scedilla" unicode="&#x15f;" horiz-adv-x="425" 
d="M115 -183l12 11c23 -10 46 -13 66 -13c23 0 58 13 58 46c0 38 -61 53 -96 54l55 73c-49 0 -106 11 -159 41v132h4c45 -103 101 -153 165 -153c57 0 103 41 103 92c0 126 -267 108 -267 283c0 88 76 139 165 139c40 0 84 -10 130 -29v-121h-5c-39 90 -90 130 -141 130
c-47 0 -91 -35 -91 -87c0 -123 270 -100 270 -279c0 -77 -56 -134 -143 -145l-26 -42c38 -4 95 -29 95 -80c0 -58 -64 -78 -104 -78c-41 0 -72 12 -91 26z" />
    <glyph glyph-name="scaron" unicode="&#x161;" horiz-adv-x="425" 
d="M51 29v132h4c45 -103 101 -153 165 -153c57 0 103 41 103 92c0 126 -267 108 -267 283c0 88 76 139 165 139c40 0 84 -10 130 -29v-121h-5c-39 90 -90 130 -141 130c-47 0 -91 -35 -91 -87c0 -123 270 -100 270 -279c0 -86 -70 -148 -177 -148c-47 0 -103 12 -156 41z
M212 626l108 64h8l-90 -122h-53l-88 122h8z" />
    <glyph glyph-name="scommaaccent" unicode="&#x219;" horiz-adv-x="425" 
d="M51 29v132h4c45 -103 101 -153 165 -153c57 0 103 41 103 92c0 126 -267 108 -267 283c0 88 76 139 165 139c40 0 84 -10 130 -29v-121h-5c-39 90 -90 130 -141 130c-47 0 -91 -35 -91 -87c0 -123 270 -100 270 -279c0 -86 -70 -148 -177 -148c-47 0 -103 12 -156 41z
M156 -272l-3 2c30 39 42 79 42 102c0 29 -28 36 -28 73c0 30 23 51 51 51c32 0 53 -27 53 -58c0 -57 -59 -131 -115 -170z" />
    <glyph glyph-name="tcommaaccent" unicode="&#x163;" horiz-adv-x="339" 
d="M346 61l4 -5c-25 -23 -71 -64 -137 -64c-71 0 -113 46 -113 161v319h-80v4l41 23c46 26 76 63 116 131h4v-120h138v-36h-138v-337c0 -63 31 -93 84 -93c24 0 54 6 81 17zM118 -254l-3 2c29 37 39 68 39 90c0 27 -26 33 -26 68c0 28 21 48 48 48c31 0 51 -26 51 -55
c0 -53 -56 -116 -109 -153z" />
    <glyph glyph-name="uni021B" unicode="&#x21b;" horiz-adv-x="339" 
d="M346 61l4 -5c-25 -23 -71 -64 -137 -64c-71 0 -113 46 -113 161v319h-80v4l41 23c46 26 76 63 116 131h4v-120h138v-36h-138v-337c0 -63 31 -93 84 -93c24 0 54 6 81 17zM113 -271l-3 2c31 39 42 78 42 102c0 28 -28 35 -28 72c0 30 23 51 51 51c33 0 54 -27 54 -58
c0 -56 -60 -130 -116 -169z" />
    <glyph glyph-name="tcaron" unicode="&#x165;" horiz-adv-x="339" 
d="M346 61l4 -5c-25 -23 -71 -64 -137 -64c-71 0 -113 46 -113 161v319h-80v4l41 23c46 26 76 63 116 131h4v-120h138v-36h-138v-337c0 -63 31 -93 84 -93c24 0 54 6 81 17zM222 551l-3 2c29 37 39 68 39 90c0 27 -27 33 -27 67c0 29 22 49 49 49c30 0 50 -26 50 -55
c0 -54 -55 -116 -108 -153z" />
    <glyph glyph-name="tbar" unicode="&#x167;" horiz-adv-x="342" 
d="M23 276v34h77v162h-90v4c88 40 113 63 167 154h4v-120h138v-34h-138v-166h136v-34h-136v-139c0 -64 31 -93 84 -93c24 0 54 6 81 17l4 -5c-25 -23 -71 -64 -137 -64c-64 0 -113 40 -113 141v143h-77z" />
    <glyph glyph-name="ugrave" unicode="&#xf9;" horiz-adv-x="588" 
d="M332 478v4c57 4 121 23 160 40h4v-345c0 -113 10 -126 85 -145v-4c-72 -7 -119 -24 -158 -40h-4v79c-34 -29 -104 -79 -172 -79c-75 0 -146 35 -146 163v183c0 113 -10 123 -85 144v4c57 4 121 23 160 40h4v-371c0 -73 50 -106 114 -106c46 0 87 14 123 35v277
c0 88 -14 101 -85 121zM211 690h84c13 -44 40 -91 81 -122h-5c-69 30 -123 71 -160 122z" />
    <glyph glyph-name="uacute" unicode="&#xfa;" horiz-adv-x="588" 
d="M332 478v4c57 4 121 23 160 40h4v-345c0 -113 10 -126 85 -145v-4c-72 -7 -119 -24 -158 -40h-4v79c-34 -29 -104 -79 -172 -79c-75 0 -146 35 -146 163v183c0 113 -10 123 -85 144v4c57 4 121 23 160 40h4v-371c0 -73 50 -106 114 -106c46 0 87 14 123 35v277
c0 88 -14 101 -85 121zM292 690h84c-37 -51 -91 -92 -160 -122h-5c41 31 68 78 81 122z" />
    <glyph glyph-name="ucircumflex" unicode="&#xfb;" horiz-adv-x="588" 
d="M332 478v4c57 4 121 23 160 40h4v-345c0 -113 10 -126 85 -145v-4c-72 -7 -119 -24 -158 -40h-4v79c-34 -29 -104 -79 -172 -79c-75 0 -146 35 -146 163v183c0 113 -10 123 -85 144v4c57 4 121 23 160 40h4v-371c0 -73 50 -106 114 -106c46 0 87 14 123 35v277
c0 88 -14 101 -85 121zM317 690l92 -122h-8l-108 69l-107 -69h-8l90 122h49z" />
    <glyph glyph-name="udieresis" unicode="&#xfc;" horiz-adv-x="588" 
d="M332 478v4c57 4 121 23 160 40h4v-345c0 -113 10 -126 85 -145v-4c-72 -7 -119 -24 -158 -40h-4v79c-34 -29 -104 -79 -172 -79c-75 0 -146 35 -146 163v183c0 113 -10 123 -85 144v4c57 4 121 23 160 40h4v-371c0 -73 50 -106 114 -106c46 0 87 14 123 35v277
c0 88 -14 101 -85 121zM413 650c0 -25 -21 -47 -47 -47c-25 0 -47 22 -47 47s22 47 47 47c26 0 47 -22 47 -47zM269 650c0 -25 -22 -47 -47 -47c-26 0 -47 22 -47 47s21 47 47 47c25 0 47 -22 47 -47z" />
    <glyph glyph-name="utilde" unicode="&#x169;" horiz-adv-x="588" 
d="M332 478v4c57 4 121 23 160 40h4v-345c0 -113 10 -126 85 -145v-4c-72 -7 -119 -24 -158 -40h-4v79c-34 -29 -104 -79 -172 -79c-75 0 -146 35 -146 163v183c0 113 -10 123 -85 144v4c57 4 121 23 160 40h4v-371c0 -73 50 -106 114 -106c46 0 87 14 123 35v277
c0 88 -14 101 -85 121zM343 618c-44 0 -94 29 -128 29c-28 0 -50 -19 -58 -39l-8 2c5 15 30 79 97 79c42 0 92 -26 127 -26c28 0 49 16 57 36l8 -2c-6 -17 -30 -79 -95 -79z" />
    <glyph glyph-name="umacron" unicode="&#x16b;" horiz-adv-x="588" 
d="M332 478v4c57 4 121 23 160 40h4v-345c0 -113 10 -126 85 -145v-4c-72 -7 -119 -24 -158 -40h-4v79c-34 -29 -104 -79 -172 -79c-75 0 -146 35 -146 163v183c0 113 -10 123 -85 144v4c57 4 121 23 160 40h4v-371c0 -73 50 -106 114 -106c46 0 87 14 123 35v277
c0 88 -14 101 -85 121zM434 658v-40h-280v40h280z" />
    <glyph glyph-name="ubreve" unicode="&#x16d;" horiz-adv-x="588" 
d="M332 478v4c57 4 121 23 160 40h4v-345c0 -113 10 -126 85 -145v-4c-72 -7 -119 -24 -158 -40h-4v79c-34 -29 -104 -79 -172 -79c-75 0 -146 35 -146 163v183c0 113 -10 123 -85 144v4c57 4 121 23 160 40h4v-371c0 -73 50 -106 114 -106c46 0 87 14 123 35v277
c0 88 -14 101 -85 121zM294 627c40 0 93 22 113 63h4c-10 -55 -46 -120 -117 -120s-107 65 -117 120h4c20 -41 72 -63 113 -63z" />
    <glyph glyph-name="uring" unicode="&#x16f;" horiz-adv-x="588" 
d="M332 478v4c57 4 121 23 160 40h4v-345c0 -113 10 -126 85 -145v-4c-72 -7 -119 -24 -158 -40h-4v79c-34 -29 -104 -79 -172 -79c-75 0 -146 35 -146 163v183c0 113 -10 123 -85 144v4c57 4 121 23 160 40h4v-371c0 -73 50 -106 114 -106c46 0 87 14 123 35v277
c0 88 -14 101 -85 121zM398 667c0 -56 -48 -102 -104 -102s-104 46 -104 102s48 102 104 102s104 -46 104 -102zM294 596c39 0 68 32 68 71s-29 71 -68 71s-69 -32 -69 -71s30 -71 69 -71z" />
    <glyph glyph-name="uhungarumlaut" unicode="&#x171;" horiz-adv-x="588" 
d="M332 478v4c57 4 121 23 160 40h4v-345c0 -113 10 -126 85 -145v-4c-72 -7 -119 -24 -158 -40h-4v79c-34 -29 -104 -79 -172 -79c-75 0 -146 35 -146 163v183c0 113 -10 123 -85 144v4c57 4 121 23 160 40h4v-371c0 -73 50 -106 114 -106c46 0 87 14 123 35v277
c0 88 -14 101 -85 121zM208 690h76c-22 -46 -53 -86 -91 -122h-9c12 40 22 79 24 122zM327 690h76c-22 -46 -53 -86 -91 -122h-9c12 40 22 79 24 122z" />
    <glyph glyph-name="uogonek" unicode="&#x173;" horiz-adv-x="588" 
d="M581 -171v-4c-12 -15 -38 -34 -71 -34c-48 0 -74 32 -74 66c0 55 83 135 139 170c-69 -7 -114 -24 -152 -39h-4v79c-34 -29 -104 -79 -172 -79c-75 0 -146 35 -146 163v183c0 113 -10 123 -85 144v4c57 4 121 23 160 40h4v-371c0 -73 50 -106 114 -106c46 0 87 14 123 35
v277c0 88 -14 101 -85 121v4c57 4 121 23 160 40h4v-345c0 -113 10 -126 85 -145v-4c-34 -37 -75 -116 -75 -161c0 -23 16 -42 47 -42c8 0 18 1 28 4z" />
    <glyph glyph-name="wcircumflex" unicode="&#x175;" horiz-adv-x="879" 
d="M730 314l-121 -321h-58l-124 339l-128 -339h-58l-117 321c-55 150 -71 171 -120 192v4h223v-4c-41 -12 -58 -24 -58 -59c0 -21 12 -69 33 -129l92 -261l94 269c8 23 14 41 19 58c-35 87 -53 105 -93 122v4h223v-4c-41 -12 -58 -24 -58 -59c0 -21 12 -69 33 -129l92 -261
l94 269c20 57 31 93 31 120c0 35 -21 49 -66 60v4h206v-4c-57 -19 -81 -37 -139 -192zM463 690l92 -122h-8l-108 69l-107 -69h-8l90 122h49z" />
    <glyph glyph-name="wgrave" unicode="&#x1e81;" horiz-adv-x="879" 
d="M730 314l-121 -321h-58l-124 339l-128 -339h-58l-117 321c-55 150 -71 171 -120 192v4h223v-4c-41 -12 -58 -24 -58 -59c0 -21 12 -69 33 -129l92 -261l94 269c8 23 14 41 19 58c-35 87 -53 105 -93 122v4h223v-4c-41 -12 -58 -24 -58 -59c0 -21 12 -69 33 -129l92 -261
l94 269c20 57 31 93 31 120c0 35 -21 49 -66 60v4h206v-4c-57 -19 -81 -37 -139 -192zM357 690h84c13 -44 40 -91 81 -122h-5c-69 30 -123 71 -160 122z" />
    <glyph glyph-name="wacute" unicode="&#x1e83;" horiz-adv-x="879" 
d="M730 314l-121 -321h-58l-124 339l-128 -339h-58l-117 321c-55 150 -71 171 -120 192v4h223v-4c-41 -12 -58 -24 -58 -59c0 -21 12 -69 33 -129l92 -261l94 269c8 23 14 41 19 58c-35 87 -53 105 -93 122v4h223v-4c-41 -12 -58 -24 -58 -59c0 -21 12 -69 33 -129l92 -261
l94 269c20 57 31 93 31 120c0 35 -21 49 -66 60v4h206v-4c-57 -19 -81 -37 -139 -192zM438 690h84c-37 -51 -91 -92 -160 -122h-5c41 31 68 78 81 122z" />
    <glyph glyph-name="wdieresis" unicode="&#x1e85;" horiz-adv-x="879" 
d="M730 314l-121 -321h-58l-124 339l-128 -339h-58l-117 321c-55 150 -71 171 -120 192v4h223v-4c-41 -12 -58 -24 -58 -59c0 -21 12 -69 33 -129l92 -261l94 269c8 23 14 41 19 58c-35 87 -53 105 -93 122v4h223v-4c-41 -12 -58 -24 -58 -59c0 -21 12 -69 33 -129l92 -261
l94 269c20 57 31 93 31 120c0 35 -21 49 -66 60v4h206v-4c-57 -19 -81 -37 -139 -192zM558 650c0 -25 -21 -47 -47 -47c-25 0 -47 22 -47 47s22 47 47 47c26 0 47 -22 47 -47zM414 650c0 -25 -22 -47 -47 -47c-26 0 -47 22 -47 47s21 47 47 47c25 0 47 -22 47 -47z" />
    <glyph glyph-name="yacute" unicode="&#xfd;" horiz-adv-x="554" 
d="M267 -45l16 45h-47l-104 295c-60 171 -69 192 -124 211v4h225v-5c-41 -9 -59 -22 -59 -55c0 -28 12 -68 34 -134l90 -273l81 242c24 71 40 125 40 156c0 37 -18 54 -63 64v5h195v-4c-53 -23 -79 -54 -135 -211l-131 -366c-39 -110 -92 -169 -153 -169
c-40 0 -70 30 -70 58c0 27 21 53 52 53c37 0 52 -22 52 -59c0 -4 0 -7 -1 -10c28 8 64 45 102 153zM275 690h84c-37 -51 -91 -92 -160 -122h-5c41 31 68 78 81 122z" />
    <glyph glyph-name="ydieresis" unicode="&#xff;" horiz-adv-x="554" 
d="M267 -45l16 45h-47l-104 295c-60 171 -69 192 -124 211v4h225v-5c-41 -9 -59 -22 -59 -55c0 -28 12 -68 34 -134l90 -273l81 242c24 71 40 125 40 156c0 37 -18 54 -63 64v5h195v-4c-53 -23 -79 -54 -135 -211l-131 -366c-39 -110 -92 -169 -153 -169
c-40 0 -70 30 -70 58c0 27 21 53 52 53c37 0 52 -22 52 -59c0 -4 0 -7 -1 -10c28 8 64 45 102 153zM396 650c0 -25 -21 -47 -47 -47c-25 0 -47 22 -47 47s22 47 47 47c26 0 47 -22 47 -47zM252 650c0 -25 -22 -47 -47 -47c-26 0 -47 22 -47 47s21 47 47 47
c25 0 47 -22 47 -47z" />
    <glyph glyph-name="ycircumflex" unicode="&#x177;" horiz-adv-x="554" 
d="M267 -45l16 45h-47l-104 295c-60 171 -69 192 -124 211v4h225v-5c-41 -9 -59 -22 -59 -55c0 -28 12 -68 34 -134l16 -49c24 -75 50 -149 74 -224l81 242c26 70 40 125 40 156c0 37 -18 54 -63 64v5h195v-4c-53 -23 -78 -54 -135 -211l-7 -22c-42 -115 -83 -229 -124 -344
c-40 -110 -92 -169 -153 -169c-40 0 -70 30 -70 58c0 27 21 53 52 53c15 0 30 -11 30 -28c14 -3 22 -16 22 -31c0 -4 0 -7 -1 -10c28 8 64 45 102 153zM302 690l90 -122h-8c-36 21 -72 42 -108 64l-107 -64h-8l88 122h53z" />
    <glyph glyph-name="ygrave" unicode="&#x1ef3;" horiz-adv-x="554" 
d="M267 -45l16 45h-47l-104 295c-60 171 -69 192 -124 211v4h225v-5c-41 -9 -59 -22 -59 -55c0 -28 12 -68 34 -134l16 -49c24 -75 50 -149 74 -224l81 242c26 70 40 125 40 156c0 37 -18 54 -63 64v5h195v-4c-53 -23 -78 -54 -135 -211l-7 -22c-42 -115 -83 -229 -124 -344
c-40 -110 -92 -169 -153 -169c-40 0 -70 30 -70 58c0 27 21 53 52 53c15 0 30 -11 30 -28c14 -3 22 -16 22 -31c0 -4 0 -7 -1 -10c28 8 64 45 102 153zM193 690h93c13 -44 39 -88 72 -122h-5c-69 30 -123 71 -160 122z" />
    <glyph glyph-name="zacute" unicode="&#x17a;" horiz-adv-x="476" 
d="M456 138l-20 -138h-406v4l306 478h-165c-40 0 -55 -26 -123 -110h-4l20 138h372v-4l-302 -479h186c41 0 56 20 132 111h4zM227 690h93c-37 -51 -91 -92 -160 -122h-5c32 34 59 78 72 122z" />
    <glyph glyph-name="zdotaccent" unicode="&#x17c;" horiz-adv-x="476" 
d="M456 138l-20 -138h-406v4l306 478h-165c-40 0 -55 -26 -123 -110h-4l20 138h372v-4l-302 -479h186c41 0 56 20 132 111h4zM292 643c0 -30 -25 -54 -54 -54c-30 0 -54 24 -54 54c0 29 24 54 54 54c29 0 54 -25 54 -54z" />
    <glyph glyph-name="zcaron" unicode="&#x17e;" horiz-adv-x="476" 
d="M456 138l-20 -138h-406v4l306 478h-165c-40 0 -55 -26 -123 -110h-4l20 138h372v-4l-302 -479h186c41 0 56 20 132 111h4zM237 626l108 64h8l-90 -122h-53l-88 122h8z" />
    <glyph glyph-name="zero" unicode="0" 
d="M285 -15c-162 0 -231 201 -231 354s76 365 231 365c154 0 231 -212 231 -365s-70 -354 -231 -354zM285 4c120 0 141 228 141 335c0 108 -26 345 -141 345s-141 -237 -141 -345c0 -107 21 -335 141 -335z" />
    <glyph glyph-name="one" unicode="1" 
d="M347 702h4v-566c0 -92 16 -114 85 -132v-4h-269v4c89 18 105 40 105 132v443c-35 -20 -91 -41 -129 -54l-3 17c92 33 152 92 207 160z" />
    <glyph glyph-name="two" unicode="2" 
d="M289 704c118 0 202 -67 202 -173c0 -98 -72 -163 -167 -269l-170 -190h335v-72h-420v16l204 240c84 99 129 180 129 256c0 99 -74 152 -155 152c-65 0 -114 -34 -139 -68c7 1 13 2 20 2c40 0 68 -25 68 -60s-26 -61 -60 -61c-35 0 -65 28 -65 67c0 59 74 160 218 160z
" />
    <glyph glyph-name="three" unicode="3" 
d="M58 96c0 39 30 63 65 63c34 0 60 -23 60 -58c0 -34 -26 -60 -55 -67c21 -14 54 -25 93 -25c92 0 185 64 185 179c0 126 -94 177 -204 177h-12l-2 3l172 246h-290v76h377v-4l-177 -252c110 -13 226 -82 226 -211c0 -142 -125 -238 -264 -238c-107 0 -174 57 -174 111z" />
    <glyph glyph-name="four" unicode="4" 
d="M104 251h250v356zM354 136v64h-319v4l352 496h46v-449h86v-51h-86v-64c0 -92 16 -114 85 -132v-4h-269v4c89 18 105 40 105 132z" />
    <glyph glyph-name="five" unicode="5" 
d="M492 231c0 -160 -149 -246 -267 -246c-93 0 -167 53 -167 112c0 37 29 63 65 63c33 0 59 -23 59 -58c0 -34 -25 -58 -50 -68c21 -14 52 -28 91 -28c107 0 183 95 183 210c0 116 -78 165 -154 165c-56 0 -106 -27 -139 -55l-3 1l47 363h298v-76h-282l-34 -247
c27 25 83 66 159 66c106 0 194 -79 194 -202z" />
    <glyph glyph-name="six" unicode="6" 
d="M460 704v-16c-116 -28 -249 -150 -294 -310c33 32 85 57 148 57c108 0 202 -73 202 -208c0 -136 -97 -242 -223 -242c-136 0 -235 121 -235 271c0 205 185 417 402 448zM273 396c-41 0 -82 -14 -112 -39c-7 -29 -11 -58 -11 -97c0 -123 36 -254 148 -254
c96 0 135 96 135 191c0 120 -62 199 -160 199z" />
    <glyph glyph-name="seven" unicode="7" 
d="M241 0h-93c54 173 186 415 309 614h-405v76h464v-4c-124 -209 -226 -492 -275 -686z" />
    <glyph glyph-name="eight" unicode="8" 
d="M54 160c0 102 108 161 172 190c-88 47 -156 93 -156 185s85 169 218 169c138 0 208 -80 208 -158c0 -90 -102 -141 -155 -164l10 -5c81 -41 169 -92 169 -197c0 -121 -119 -195 -238 -195c-114 0 -228 59 -228 175zM253 337l-9 4c-48 -30 -105 -80 -105 -174
c0 -89 59 -159 151 -159c87 0 150 67 150 150c0 86 -81 128 -187 179zM148 550c0 -75 73 -112 175 -160c67 39 88 96 88 152c0 80 -50 138 -130 138c-93 0 -133 -67 -133 -130z" />
    <glyph glyph-name="nine" unicode="9" 
d="M120 -15v15c121 30 259 135 292 318c-30 -22 -81 -50 -152 -50c-109 0 -206 65 -206 199c0 138 103 237 221 237c140 0 237 -137 237 -293c0 -208 -175 -395 -392 -426zM298 305c42 0 87 13 117 34c3 19 5 39 5 66c0 137 -41 275 -152 275c-87 0 -131 -88 -131 -185
c0 -115 61 -190 161 -190z" />
    <glyph glyph-name="Euro" unicode="&#x20ac;" 
d="M123 390h-81v32h85c24 137 106 282 242 282c83 0 126 -48 126 -99c0 -40 -28 -65 -59 -65s-56 25 -56 56s21 54 56 54c8 0 17 -1 27 -4c-24 21 -52 35 -93 35c-96 0 -143 -124 -156 -259h193v-32h-195c-1 -18 -1 -35 -1 -51c0 -13 0 -25 1 -37h195v-32h-194
c10 -134 53 -243 156 -243c75 0 131 107 131 169h12c0 -68 -48 -211 -163 -211c-141 0 -210 139 -226 285h-81v32h79c-1 12 -1 25 -1 37c0 16 1 33 3 51z" />
    <glyph glyph-name="dollar" unicode="$" 
d="M82 25v166h4c47 -131 116 -184 185 -184v298c-90 50 -188 101 -188 204s89 167 188 174v71h32v-71c57 -2 103 -17 157 -39v-137h-4c-38 88 -96 141 -153 152v-276c89 -50 186 -102 186 -208c0 -113 -92 -175 -186 -187v-72h-32v69c-76 0 -148 21 -189 40zM157 542
c0 -65 51 -104 114 -141v260c-62 -4 -114 -44 -114 -119zM414 142c0 68 -50 109 -111 144v-276c59 12 111 58 111 132z" />
    <glyph glyph-name="cent" unicode="&#xa2;" 
d="M377 571c-20 5 -44 8 -59 8v-447c8 0 16 -1 24 -1c62 0 111 32 136 51l7 -5c-21 -26 -78 -92 -167 -106v-118h-32v116c-113 0 -228 95 -228 252c0 152 102 266 228 280v94h32v-92c64 -9 141 -25 141 -80c0 -29 -25 -60 -57 -60c-30 0 -55 20 -55 52c0 21 13 45 30 56z
M143 353c0 -124 60 -195 143 -215v437c-89 -17 -143 -106 -143 -222z" />
    <glyph glyph-name="sterling" unicode="&#xa3;" horiz-adv-x="542" 
d="M150 345h-97v29h87c-11 39 -20 78 -20 120c0 136 110 209 198 209c104 0 155 -46 155 -91c0 -35 -26 -58 -56 -58c-31 0 -53 21 -53 51c0 28 20 51 53 51c-22 15 -54 25 -84 25c-85 0 -131 -59 -131 -144c0 -59 18 -110 32 -163h184v-29h-177c5 -24 9 -50 9 -76
c0 -75 -60 -155 -112 -196h241c72 0 83 12 93 51h4c1 -8 1 -25 1 -32c0 -74 -51 -92 -90 -92h-342v4c60 46 132 124 132 204c0 47 -14 92 -27 137z" />
    <glyph glyph-name="yen" unicode="&#xa5;" 
d="M248 302h-146v32h130c-156 312 -173 338 -235 352v4h223v-4c-32 -7 -48 -16 -48 -40c0 -28 21 -73 63 -158l75 -153h3l74 159c33 71 51 114 51 142c0 29 -20 40 -59 50v4h195v-4c-46 -7 -78 -45 -152 -195l-78 -157h123v-32h-138v-88h138v-32h-138v-46
c0 -82 16 -114 85 -132v-4h-251v4c69 18 85 50 85 132v46h-146v32h146v88z" />
    <glyph glyph-name="florin" unicode="&#x192;" 
d="M445 322h-142v-346c0 -156 -68 -216 -173 -216c-52 0 -96 30 -96 70c0 30 22 51 50 51c26 0 50 -16 50 -46c0 -25 -15 -42 -33 -54c12 -3 23 -4 33 -4c47 2 88 31 88 159v386h-118c2 11 4 23 5 35h113v157c0 136 80 190 173 190c52 0 96 -30 96 -70
c0 -30 -22 -51 -50 -51c-26 0 -50 16 -50 46c0 25 15 42 33 54c-12 3 -23 4 -33 4c-47 -2 -88 -31 -88 -159v-171h142v-35z" />
    <glyph glyph-name="percent" unicode="%" horiz-adv-x="821" 
d="M666 732l-483 -779h-43l428 689l-3 2c-37 -21 -71 -46 -117 -46c-26 0 -52 6 -75 16c5 -13 9 -37 9 -61c0 -96 -67 -238 -182 -238c-86 0 -145 68 -145 156c0 106 85 233 198 233c92 0 95 -74 193 -74c74 0 131 47 180 102h40zM206 341c92 0 144 134 144 219
c0 52 -27 119 -84 119c-84 0 -134 -130 -134 -231c0 -59 26 -107 74 -107zM764 231c0 -101 -63 -243 -183 -243c-86 0 -145 67 -145 154c0 108 85 234 200 234c79 0 128 -60 128 -145zM588 14c90 0 144 127 144 218c0 57 -29 120 -84 120c-84 0 -135 -130 -135 -231
c0 -58 28 -107 75 -107z" />
    <glyph glyph-name="perthousand" unicode="&#x2030;" horiz-adv-x="1191" 
d="M666 732l-483 -779h-43l428 689l-3 2c-37 -21 -71 -46 -117 -46c-26 0 -52 6 -75 16c5 -13 9 -37 9 -61c0 -96 -67 -238 -182 -238c-86 0 -145 68 -145 156c0 106 85 233 198 233c92 0 95 -74 193 -74c74 0 131 47 180 102h40zM206 341c92 0 144 134 144 219
c0 52 -27 119 -84 119c-84 0 -135 -132 -135 -231c0 -59 26 -107 75 -107zM764 231c0 -101 -63 -243 -183 -243c-86 0 -145 67 -145 154c0 108 85 234 200 234c79 0 128 -60 128 -145zM588 14c90 0 144 127 144 218c0 57 -29 120 -84 120c-84 0 -135 -132 -135 -231
c0 -58 26 -107 75 -107zM1139 231c0 -101 -63 -243 -183 -243c-86 0 -145 67 -145 154c0 108 85 234 200 234c79 0 128 -60 128 -145zM963 14c90 0 144 127 144 218c0 57 -29 120 -84 120c-84 0 -135 -132 -135 -231c0 -58 26 -107 75 -107z" />
    <glyph glyph-name="numbersign" unicode="#" 
d="M325 0h-38l41 234h-126l-41 -234h-38l41 234h-104v38h110l26 146h-136v38h143l41 234h38l-41 -234h126l41 234h38l-41 -234h105v-38h-112l-26 -146h138v-38h-144zM360 418h-126l-26 -146h126z" />
    <glyph glyph-name="ordfeminine" unicode="&#xaa;" horiz-adv-x="368" 
d="M214 539v47c0 53 -34 79 -82 79c-15 0 -31 -3 -44 -13c17 -7 29 -20 29 -39c0 -23 -18 -33 -39 -33s-37 15 -37 36c0 39 74 74 135 74c60 0 102 -29 102 -90v-166c0 -50 27 -55 62 -59v-4c-4 -2 -51 -19 -78 -19c-22 0 -39 16 -46 37c-21 -14 -52 -39 -99 -39
s-84 33 -84 77c0 47 13 98 181 112zM162 387c17 0 38 4 52 12v121h-9c-95 0 -105 -45 -105 -77c0 -37 25 -56 62 -56zM335 259h-302v35h302v-35z" />
    <glyph glyph-name="ordmasculine" unicode="&#xba;" horiz-adv-x="405" 
d="M203 350c-96 0 -169 76 -169 171c0 98 76 169 169 169c90 0 168 -71 168 -169c0 -95 -75 -171 -168 -171zM203 368c71 0 91 84 91 153c0 76 -26 151 -91 151c-68 0 -95 -75 -95 -151c0 -69 21 -153 95 -153zM361 263h-317v31h317v-31z" />
    <glyph glyph-name="exclam" unicode="!" horiz-adv-x="254" 
d="M130 182h-7c-14 168 -46 410 -46 474c0 32 25 48 49 48c25 0 50 -16 50 -48c0 -64 -32 -306 -46 -474zM185 44c0 -31 -27 -58 -58 -58c-32 0 -58 27 -58 58c0 32 26 58 58 58c31 0 58 -26 58 -58z" />
    <glyph glyph-name="question" unicode="?" horiz-adv-x="471" 
d="M430 535c0 -150 -184 -228 -192 -359h-7c0 157 116 225 116 352c0 98 -68 141 -133 141c-41 0 -83 -17 -115 -58c4 1 11 1 15 1c39 0 67 -26 67 -61c0 -34 -26 -60 -60 -60c-35 0 -62 26 -62 64c0 61 71 149 189 149c106 0 182 -62 182 -169zM293 47
c0 -33 -27 -61 -60 -61s-60 28 -60 61c0 32 27 60 60 60s60 -28 60 -60z" />
    <glyph glyph-name="exclamdown" unicode="&#xa1;" horiz-adv-x="254" 
d="M123 326h7c14 -168 46 -410 46 -474c0 -32 -25 -48 -50 -48c-24 0 -49 16 -49 48c0 64 32 306 46 474zM185 464c0 -32 -27 -58 -58 -58c-32 0 -58 26 -58 58c0 31 26 58 58 58c31 0 58 -27 58 -58z" />
    <glyph glyph-name="questiondown" unicode="&#xbf;" horiz-adv-x="471" 
d="M59 -28c0 150 184 228 192 359h7c0 -157 -116 -225 -116 -352c0 -98 68 -141 133 -141c41 0 83 17 115 58c-4 -1 -11 -1 -15 -1c-39 0 -67 26 -67 61c0 34 26 60 60 60c35 0 62 -26 62 -64c0 -61 -71 -149 -189 -149c-106 0 -182 62 -182 169zM196 460c0 33 27 61 60 61
s60 -28 60 -61c0 -32 -27 -60 -60 -60s-60 28 -60 60z" />
    <glyph glyph-name="parenleft" unicode="(" horiz-adv-x="347" 
d="M331 -140h-18c-70 66 -216 241 -216 458c0 214 160 382 216 438h18c-77 -117 -149 -260 -149 -448c0 -195 69 -332 149 -448z" />
    <glyph glyph-name="parenright" unicode=")" horiz-adv-x="347" 
d="M34 -140h-18c78 117 149 256 149 448c0 191 -71 331 -149 448h18c63 -61 216 -233 216 -448c0 -216 -153 -387 -216 -448z" />
    <glyph glyph-name="bracketleft" unicode="[" horiz-adv-x="379" 
d="M296 -112v-28h-198v896h198v-28h-124v-840h124z" />
    <glyph glyph-name="bracketright" unicode="]" horiz-adv-x="379" 
d="M281 756v-896h-198v28h124v840h-124v28h198z" />
    <glyph glyph-name="braceleft" unicode="{" horiz-adv-x="317" 
d="M81 305c75 -25 128 -87 128 -188v-78c0 -110 30 -165 95 -179v-4c-106 10 -171 47 -171 187v82c0 93 -12 166 -95 176v8c83 10 95 83 95 176v82c0 140 65 177 171 187v-4c-65 -14 -95 -69 -95 -179v-78c0 -101 -53 -163 -128 -188z" />
    <glyph glyph-name="braceright" unicode="}" horiz-adv-x="317" 
d="M236 305c-75 25 -129 87 -129 188v78c0 110 -29 165 -94 179v4c106 -10 171 -47 171 -187v-82c0 -93 12 -166 95 -176v-8c-83 -10 -95 -83 -95 -176v-82c0 -140 -65 -177 -171 -187v4c65 14 94 69 94 179v78c0 101 54 163 129 188z" />
    <glyph glyph-name="ampersand" unicode="&#x26;" horiz-adv-x="717" 
d="M737 415v-4c-87 -25 -130 -143 -223 -254c94 -114 163 -145 225 -153v-4h-205c-21 17 -49 45 -84 89c-59 -56 -132 -104 -212 -104c-120 0 -189 110 -189 201c0 90 68 123 185 187c-42 61 -64 113 -64 161c0 84 58 170 173 170c83 0 137 -45 137 -121
c0 -81 -64 -136 -155 -186c1 -1 1 -2 2 -2l171 -217c64 84 138 221 -6 233v4h245zM435 108l-173 227c-5 6 -10 12 -14 18c-73 -38 -113 -68 -113 -120c0 -93 81 -194 164 -194c42 0 91 26 136 69zM237 583c0 -46 25 -102 74 -167c69 38 98 86 98 151c0 71 -35 111 -86 111
s-86 -40 -86 -95z" />
    <glyph glyph-name="at" unicode="@" horiz-adv-x="758" 
d="M468 265l28 166c-7 2 -15 4 -30 4c-119 0 -188 -140 -188 -261c0 -66 23 -105 47 -105c44 0 107 141 143 196zM516 44c48 0 166 93 166 237c0 154 -121 282 -279 282c-180 0 -298 -156 -298 -335c0 -189 130 -311 295 -311c59 0 128 17 180 45l3 -5
c-55 -43 -127 -69 -207 -69c-177 0 -345 129 -345 340c0 201 152 374 363 374c180 0 337 -127 337 -309s-157 -273 -256 -273c-18 0 -41 2 -41 25c0 12 1 23 4 36l22 119h-8c-78 -154 -117 -180 -152 -180c-56 0 -97 54 -97 149c0 154 115 296 253 296c29 0 49 -5 71 -11
l34 11h10l-44 -225l-22 -166c0 -5 -1 -11 -1 -18c0 -9 2 -12 12 -12z" />
    <glyph glyph-name="slash" unicode="/" horiz-adv-x="396" 
d="M389 704l-338 -719h-44l338 719h44z" />
    <glyph glyph-name="backslash" unicode="\" horiz-adv-x="396" 
d="M51 704l338 -719h-44l-338 719h44z" />
    <glyph glyph-name="asterisk" unicode="*" horiz-adv-x="389" 
d="M209 517l111 -101l-59 -42l-66 136l-67 -136l-58 41l113 102l-155 26l24 67l136 -75l-27 155h72l-29 -155l135 75l22 -67z" />
    <glyph glyph-name="quoteleft" unicode="&#x2018;" horiz-adv-x="207" 
d="M155 704l3 -2c-32 -41 -46 -85 -46 -110c0 -29 29 -38 29 -77c0 -31 -24 -53 -52 -53c-35 0 -56 28 -56 61c0 59 63 140 122 181z" />
    <glyph glyph-name="quoteright" unicode="&#x2019;" horiz-adv-x="207" 
d="M36 462l-3 2c32 41 46 85 46 110c0 29 -29 38 -29 77c0 31 24 53 52 53c35 0 56 -28 56 -61c0 -59 -63 -140 -122 -181z" />
    <glyph glyph-name="quotedblleft" unicode="&#x201c;" horiz-adv-x="392" 
d="M155 704l3 -2c-32 -41 -46 -85 -46 -110c0 -29 29 -38 29 -77c0 -31 -24 -53 -52 -53c-35 0 -56 28 -56 61c0 59 63 140 122 181zM324 704l3 -2c-32 -41 -46 -85 -46 -110c0 -29 29 -38 29 -77c0 -31 -24 -53 -52 -53c-35 0 -56 28 -56 61c0 59 63 140 122 181z" />
    <glyph glyph-name="quotedblright" unicode="&#x201d;" horiz-adv-x="392" 
d="M36 462l-3 2c32 41 46 85 46 110c0 29 -29 38 -29 77c0 31 24 53 52 53c35 0 56 -28 56 -61c0 -59 -63 -140 -122 -181zM205 462l-3 2c32 41 46 85 46 110c0 29 -29 38 -29 77c0 31 24 53 52 53c35 0 56 -28 56 -61c0 -59 -63 -140 -122 -181z" />
    <glyph glyph-name="agrave.smcp" horiz-adv-x="576" 
d="M145 196l120 320h65c41 -107 82 -213 124 -320c53 -138 73 -175 122 -192v-4h-224v4c37 8 58 19 58 51c0 24 -11 66 -33 127h-200v-1l-6 -21c-16 -42 -25 -71 -25 -93c0 -40 21 -54 65 -63v-4h-207v4c56 16 83 38 141 192zM368 209l-94 247l-87 -247h181zM200 690h93
c13 -44 39 -88 72 -122h-5c-69 30 -123 71 -160 122z" />
    <glyph glyph-name="aacute.smcp" horiz-adv-x="576" 
d="M145 196l120 320h65c41 -107 82 -213 124 -320c53 -138 73 -175 122 -192v-4h-224v4c37 8 58 19 58 51c0 24 -11 66 -33 127h-200v-1l-6 -21c-16 -42 -25 -71 -25 -93c0 -40 21 -54 65 -63v-4h-207v4c56 16 83 38 141 192zM368 209l-94 247l-87 -247h181zM295 690h93
c-37 -51 -91 -92 -160 -122h-5c32 34 59 78 72 122z" />
    <glyph glyph-name="acircumflex.smcp" horiz-adv-x="576" 
d="M145 196l120 320h65c41 -107 82 -213 124 -320c53 -138 73 -175 122 -192v-4h-224v4c37 8 58 19 58 51c0 24 -11 66 -33 127h-200v-1l-6 -21c-16 -42 -25 -71 -25 -93c0 -40 21 -54 65 -63v-4h-207v4c56 16 83 38 141 192zM368 209l-94 247l-87 -247h181zM314 690
l90 -122h-8c-36 21 -72 42 -108 64l-107 -64h-8l88 122h53z" />
    <glyph glyph-name="atilde.smcp" horiz-adv-x="576" 
d="M145 196l120 320h65c41 -107 82 -213 124 -320c53 -138 73 -175 122 -192v-4h-224v4c37 8 58 19 58 51c0 24 -11 66 -33 127h-200v-1l-6 -21c-16 -42 -25 -71 -25 -93c0 -40 21 -54 65 -63v-4h-207v4c56 16 83 38 141 192zM368 209l-94 247l-87 -247h181zM340 613
c-49 0 -96 34 -129 34c-30 0 -51 -19 -59 -39l-8 2c5 16 33 84 94 84c47 0 94 -31 129 -31c29 0 50 16 58 36l8 -2c-6 -18 -33 -84 -93 -84z" />
    <glyph glyph-name="adieresis.smcp" horiz-adv-x="576" 
d="M145 196l120 320h65c41 -107 82 -213 124 -320c53 -138 73 -175 122 -192v-4h-224v4c37 8 58 19 58 51c0 24 -11 66 -33 127h-200v-1l-6 -21c-16 -42 -25 -71 -25 -93c0 -40 21 -54 65 -63v-4h-207v4c56 16 83 38 141 192zM368 209l-94 247l-87 -247h181zM266 650
c0 -27 -23 -51 -50 -51c-28 0 -51 24 -51 51s23 50 51 50c27 0 50 -23 50 -50zM410 650c0 -27 -22 -51 -50 -51c-27 0 -51 24 -51 51s24 50 51 50c28 0 50 -23 50 -50z" />
    <glyph glyph-name="aring.smcp" horiz-adv-x="576" 
d="M189 588c0 57 47 104 104 104s104 -47 104 -104c0 -41 -24 -77 -59 -94l116 -298c53 -138 73 -175 122 -192v-4h-224v4c37 8 58 19 58 51c0 24 -11 66 -33 127h-200c-10 -29 -31 -76 -31 -115c0 -40 21 -54 65 -63v-4h-207v4c56 16 83 38 141 192l110 295
c-38 15 -66 53 -66 97zM368 209l-94 247l-87 -247h181zM227 588c0 -37 29 -66 66 -66s67 29 67 66s-30 67 -67 67s-66 -30 -66 -67z" />
    <glyph glyph-name="amacron.smcp" horiz-adv-x="576" 
d="M145 196l120 320h65c41 -107 82 -213 124 -320c53 -138 73 -175 122 -192v-4h-224v4c37 8 58 19 58 51c0 24 -11 66 -33 127h-200v-1l-6 -21c-16 -42 -25 -71 -25 -93c0 -40 21 -54 65 -63v-4h-207v4c56 16 83 38 141 192zM368 209l-94 247l-87 -247h181zM413 652v-45
h-250v45h250z" />
    <glyph glyph-name="abreve.smcp" horiz-adv-x="576" 
d="M145 196l120 320h65c41 -107 82 -213 124 -320c53 -138 73 -175 122 -192v-4h-224v4c37 8 58 19 58 51c0 24 -11 66 -33 127h-200v-1l-6 -21c-16 -42 -25 -71 -25 -93c0 -40 21 -54 65 -63v-4h-207v4c56 16 83 38 141 192zM368 209l-94 247l-87 -247h181zM288 627
c40 0 93 22 113 63h4c-10 -55 -46 -120 -117 -120s-107 65 -117 120h4c20 -41 72 -63 113 -63z" />
    <glyph glyph-name="aogonek.smcp" horiz-adv-x="576" 
d="M564 -171v-4c-12 -15 -38 -34 -71 -34c-48 0 -74 33 -74 66c0 56 84 109 140 143h-207v4c34 8 58 18 58 47c0 26 -9 64 -33 131h-200v-1l-6 -21c-16 -44 -26 -73 -26 -96c0 -38 23 -52 66 -60v-4h-207v4c56 16 83 38 141 192l120 320h65c41 -107 82 -213 124 -320
c53 -138 73 -175 122 -192v-4c-46 -36 -87 -87 -87 -132c0 -24 16 -43 47 -43c8 0 18 2 28 4zM368 209l-94 247l-87 -247h181z" />
    <glyph glyph-name="ccedilla.smcp" horiz-adv-x="547" 
d="M220 -183l12 11c23 -10 46 -14 66 -14c23 0 58 13 58 47c0 38 -61 53 -96 54l56 74c-156 5 -274 108 -274 258c0 167 149 274 292 274c61 0 130 -18 161 -32v-114h-6c-39 83 -92 125 -162 125c-119 0 -192 -107 -192 -243c0 -143 82 -248 200 -248c73 0 131 46 172 133h4
l-9 -119c-30 -17 -96 -32 -156 -34l-26 -40c38 -4 95 -29 95 -80c0 -58 -64 -78 -104 -78c-41 0 -72 12 -91 26z" />
    <glyph glyph-name="cacute.smcp" horiz-adv-x="547" 
d="M330 -12c-162 0 -288 105 -288 259c0 167 149 275 292 275c61 0 130 -18 161 -32v-114h-6c-39 83 -92 124 -162 124c-119 0 -192 -107 -192 -243c0 -143 82 -248 200 -248c73 0 131 46 172 133h4l-9 -119c-32 -18 -108 -35 -172 -35zM326 690h93
c-37 -51 -91 -92 -160 -122h-5c32 34 59 78 72 122z" />
    <glyph glyph-name="ccircumflex.smcp" horiz-adv-x="547" 
d="M330 -12c-162 0 -288 105 -288 259c0 167 149 275 292 275c61 0 130 -18 161 -32v-114h-6c-39 83 -92 124 -162 124c-119 0 -192 -107 -192 -243c0 -143 82 -248 200 -248c73 0 131 46 172 133h4l-9 -119c-32 -18 -108 -35 -172 -35zM350 690l90 -122h-8l-108 64
l-107 -64h-8l88 122h53z" />
    <glyph glyph-name="cdotaccent.smcp" horiz-adv-x="547" 
d="M330 -12c-162 0 -288 105 -288 259c0 167 149 275 292 275c61 0 130 -18 161 -32v-114h-6c-39 83 -92 124 -162 124c-119 0 -192 -107 -192 -243c0 -143 82 -248 200 -248c73 0 131 46 172 133h4l-9 -119c-32 -18 -108 -35 -172 -35zM374 643c0 -30 -25 -54 -54 -54
c-30 0 -54 24 -54 54c0 29 24 54 54 54c29 0 54 -25 54 -54z" />
    <glyph glyph-name="ccaron.smcp" horiz-adv-x="547" 
d="M330 -12c-162 0 -288 105 -288 259c0 167 149 275 292 275c61 0 130 -18 161 -32v-114h-6c-39 83 -92 124 -162 124c-119 0 -192 -107 -192 -243c0 -143 82 -248 200 -248c73 0 131 46 172 133h4l-9 -119c-32 -18 -108 -35 -172 -35zM319 626l108 64h8l-90 -122h-53
l-88 122h8z" />
    <glyph glyph-name="dcaron.smcp" horiz-adv-x="618" 
d="M288 0h-248v4c59 18 73 35 73 132v238c0 97 -14 114 -73 132v4h255c160 0 292 -84 292 -243c0 -173 -123 -267 -299 -267zM192 485v-460h98c134 0 204 105 204 239c0 121 -81 221 -195 221h-107zM309 626l108 64h8l-90 -122h-53l-88 122h8z" />
    <glyph glyph-name="dcroat.smcp" horiz-adv-x="618" 
d="M113 249h-72v27h72v98c0 97 -14 114 -73 132v4h255c160 0 292 -84 292 -243c0 -173 -123 -267 -299 -267h-248v4c59 18 73 35 73 132v113zM192 249v-224h98c134 0 204 105 204 239c0 121 -81 221 -195 221h-107v-209h114v-27h-114z" />
    <glyph glyph-name="egrave.smcp" horiz-adv-x="480" 
d="M192 485v-210h77c53 0 74 14 102 61h4v-146h-4c-28 47 -49 60 -102 60h-77v-225h94c68 0 84 4 161 108h4l-19 -133h-392v4c59 18 73 35 73 132v238c0 97 -14 114 -73 132v4h371v-122h-4c-47 93 -72 97 -142 97h-73zM147 690h93c13 -44 39 -88 72 -122h-5
c-69 30 -123 71 -160 122z" />
    <glyph glyph-name="eacute.smcp" horiz-adv-x="480" 
d="M192 485v-210h77c53 0 74 14 102 61h4v-146h-4c-28 47 -49 60 -102 60h-77v-225h94c68 0 84 4 161 108h4l-19 -133h-392v4c59 18 73 35 73 132v238c0 97 -14 114 -73 132v4h371v-122h-4c-47 93 -72 97 -142 97h-73zM266 690h93c-37 -51 -91 -92 -160 -122h-5
c32 34 59 78 72 122z" />
    <glyph glyph-name="ecircumflex.smcp" horiz-adv-x="480" 
d="M192 485v-210h77c53 0 74 14 102 61h4v-146h-4c-28 47 -49 60 -102 60h-77v-225h94c68 0 84 4 161 108h4l-19 -133h-392v4c59 18 73 35 73 132v238c0 97 -14 114 -73 132v4h371v-122h-4c-47 93 -72 97 -142 97h-73zM262 690l90 -122h-8l-108 64l-107 -64h-8l88 122h53z
" />
    <glyph glyph-name="edieresis.smcp" horiz-adv-x="480" 
d="M192 485v-210h77c53 0 74 14 102 61h4v-146h-4c-28 47 -49 60 -102 60h-77v-225h94c68 0 84 4 161 108h4l-19 -133h-392v4c59 18 73 35 73 132v238c0 97 -14 114 -73 132v4h371v-122h-4c-47 93 -72 97 -142 97h-73zM371 650c0 -27 -22 -51 -50 -51c-27 0 -51 24 -51 51
s24 50 51 50c28 0 50 -23 50 -50zM227 650c0 -27 -23 -51 -50 -51c-28 0 -51 24 -51 51s23 50 51 50c27 0 50 -23 50 -50z" />
    <glyph glyph-name="emacron.smcp" horiz-adv-x="480" 
d="M192 485v-210h77c53 0 74 14 102 61h4v-146h-4c-28 47 -49 60 -102 60h-77v-225h94c68 0 84 4 161 108h4l-19 -133h-392v4c59 18 73 35 73 132v238c0 97 -14 114 -73 132v4h371v-122h-4c-47 93 -72 97 -142 97h-73zM370 652v-45h-250v45h250z" />
    <glyph glyph-name="ebreve.smcp" horiz-adv-x="480" 
d="M192 485v-210h77c53 0 74 14 102 61h4v-146h-4c-28 47 -49 60 -102 60h-77v-225h94c68 0 84 4 161 108h4l-19 -133h-392v4c59 18 73 35 73 132v238c0 97 -14 114 -73 132v4h371v-122h-4c-47 93 -72 97 -142 97h-73zM251 627c40 0 93 22 113 63h4
c-10 -55 -46 -120 -117 -120s-107 65 -117 120h4c20 -41 72 -63 113 -63z" />
    <glyph glyph-name="edotaccent.smcp" horiz-adv-x="480" 
d="M192 485v-210h77c53 0 74 14 102 61h4v-146h-4c-28 47 -49 60 -102 60h-77v-225h94c68 0 84 4 161 108h4l-19 -133h-392v4c59 18 73 35 73 132v238c0 97 -14 114 -73 132v4h371v-122h-4c-47 93 -72 97 -142 97h-73zM306 643c0 -30 -25 -54 -54 -54c-30 0 -54 24 -54 54
c0 29 24 54 54 54c29 0 54 -25 54 -54z" />
    <glyph glyph-name="eogonek.smcp" horiz-adv-x="480" 
d="M418 -171v-4c-12 -15 -38 -34 -71 -34c-48 0 -74 32 -74 66c0 55 84 108 140 143h-373v4c59 18 73 35 73 132v238c0 97 -14 114 -73 132v4h371v-122h-4c-47 93 -72 97 -142 97h-73v-210h77c53 0 74 14 102 61h4v-146h-4c-28 47 -49 60 -102 60h-77v-225h94
c68 0 84 4 161 108h4l-19 -133c-48 -37 -89 -88 -89 -133c0 -23 16 -42 47 -42c8 0 18 1 28 4z" />
    <glyph glyph-name="ecaron.smcp" horiz-adv-x="480" 
d="M192 485v-210h77c53 0 74 14 102 61h4v-146h-4c-28 47 -49 60 -102 60h-77v-225h94c68 0 84 4 161 108h4l-19 -133h-392v4c59 18 73 35 73 132v238c0 97 -14 114 -73 132v4h371v-122h-4c-47 93 -72 97 -142 97h-73zM244 626l108 64h8l-90 -122h-53l-88 122h8z" />
    <glyph glyph-name="gcircumflex.smcp" horiz-adv-x="596" 
d="M346 500c-119 0 -211 -101 -211 -244c0 -142 89 -242 213 -242c42 0 84 12 101 19v123c0 59 -11 78 -58 93v4h179v-5c-34 -12 -43 -25 -43 -92v-136c-68 -18 -133 -32 -192 -32c-158 0 -295 110 -295 264c0 171 170 269 312 269c62 0 130 -18 161 -32v-114h-6
c-40 86 -93 125 -161 125zM367 690l90 -122h-8l-108 64l-107 -64h-8l88 122h53z" />
    <glyph glyph-name="gbreve.smcp" horiz-adv-x="596" 
d="M346 500c-119 0 -211 -101 -211 -244c0 -142 89 -242 213 -242c42 0 84 12 101 19v123c0 59 -11 78 -58 93v4h179v-5c-34 -12 -43 -25 -43 -92v-136c-68 -18 -133 -32 -192 -32c-158 0 -295 110 -295 264c0 171 170 269 312 269c62 0 130 -18 161 -32v-114h-6
c-40 86 -93 125 -161 125zM323 627c40 0 93 22 113 63h4c-10 -55 -46 -120 -117 -120s-107 65 -117 120h4c20 -41 72 -63 113 -63z" />
    <glyph glyph-name="gdotaccent.smcp" horiz-adv-x="596" 
d="M346 500c-119 0 -211 -101 -211 -244c0 -142 89 -242 213 -242c42 0 84 12 101 19v123c0 59 -11 78 -58 93v4h179v-5c-34 -12 -43 -25 -43 -92v-136c-68 -18 -133 -32 -192 -32c-158 0 -295 110 -295 264c0 171 170 269 312 269c62 0 130 -18 161 -32v-114h-6
c-40 86 -93 125 -161 125zM382 643c0 -30 -25 -54 -54 -54c-30 0 -54 24 -54 54c0 29 24 54 54 54c29 0 54 -25 54 -54z" />
    <glyph glyph-name="gcommaaccent.smcp" horiz-adv-x="596" 
d="M346 500c-119 0 -211 -101 -211 -244c0 -142 89 -242 213 -242c42 0 84 12 101 19v123c0 59 -11 78 -58 93v4h179v-5c-34 -12 -43 -25 -43 -92v-136c-68 -18 -133 -32 -192 -32c-158 0 -295 110 -295 264c0 171 170 269 312 269c62 0 130 -18 161 -32v-114h-6
c-40 86 -93 125 -161 125zM267 -254l-3 2c29 37 39 68 39 90c0 27 -27 33 -27 67c0 29 22 49 49 49c30 0 50 -26 50 -55c0 -54 -55 -116 -108 -153z" />
    <glyph glyph-name="hcircumflex.smcp" horiz-adv-x="670" 
d="M463 136v113h-271v-113c0 -97 14 -115 73 -132v-4h-225v4c59 17 73 35 73 132v238c0 97 -14 114 -73 132v4h225v-4c-59 -18 -73 -35 -73 -132v-98h271v98c0 97 -14 114 -73 132v4h225v-4c-59 -18 -73 -35 -73 -132v-238c0 -97 14 -115 73 -132v-4h-225v4
c59 17 73 35 73 132zM361 690l90 -122h-8l-108 64l-107 -64h-8l88 122h53z" />
    <glyph glyph-name="hbar.smcp" horiz-adv-x="655" 
d="M463 136v113h-271v-113c0 -97 14 -115 73 -132v-4h-225v4c59 17 73 35 73 132v218h-71v27h71c-1 90 -16 107 -73 125v4h225v-4c-58 -18 -73 -35 -73 -125h271c-1 90 -15 107 -73 125v4h225v-4c-57 -18 -72 -35 -73 -125h72v-27h-72v-218c0 -97 14 -115 73 -132v-4h-225v4
c59 17 73 35 73 132zM463 354h-271v-78h271v78z" />
    <glyph glyph-name="igrave.smcp" horiz-adv-x="325" 
d="M113 136v238c0 97 -14 114 -73 132v4h225v-4c-59 -18 -73 -35 -73 -132v-238c0 -97 14 -115 73 -132v-4h-225v4c59 17 73 35 73 132zM68 690h93c13 -44 39 -88 72 -122h-5c-69 30 -123 71 -160 122z" />
    <glyph glyph-name="iacute.smcp" horiz-adv-x="325" 
d="M113 136v238c0 97 -14 114 -73 132v4h225v-4c-59 -18 -73 -35 -73 -132v-238c0 -97 14 -115 73 -132v-4h-225v4c59 17 73 35 73 132zM184 690h93c-37 -51 -91 -92 -160 -122h-5c32 34 59 78 72 122z" />
    <glyph glyph-name="icircumflex.smcp" horiz-adv-x="325" 
d="M113 136v238c0 97 -14 114 -73 132v4h225v-4c-59 -18 -73 -35 -73 -132v-238c0 -97 14 -115 73 -132v-4h-225v4c59 17 73 35 73 132zM188 690l90 -122h-8l-108 64l-107 -64h-8l88 122h53z" />
    <glyph glyph-name="idieresis.smcp" horiz-adv-x="325" 
d="M113 136v238c0 97 -14 114 -73 132v4h225v-4c-59 -18 -73 -35 -73 -132v-238c0 -97 14 -115 73 -132v-4h-225v4c59 17 73 35 73 132zM284 650c0 -27 -22 -51 -50 -51c-27 0 -51 24 -51 51s24 50 51 50c28 0 50 -23 50 -50zM140 650c0 -27 -23 -51 -50 -51
c-28 0 -51 24 -51 51s23 50 51 50c27 0 50 -23 50 -50z" />
    <glyph glyph-name="itilde.smcp" horiz-adv-x="325" 
d="M113 136v238c0 97 -14 114 -73 132v4h225v-4c-59 -18 -73 -35 -73 -132v-238c0 -97 14 -115 73 -132v-4h-225v4c59 17 73 35 73 132zM214 613c-49 0 -96 34 -129 34c-30 0 -51 -19 -59 -39l-8 2c5 16 33 84 94 84c47 0 94 -31 129 -31c29 0 50 16 58 36l8 -2
c-6 -18 -33 -84 -93 -84z" />
    <glyph glyph-name="imacron.smcp" horiz-adv-x="325" 
d="M113 136v238c0 97 -14 114 -73 132v4h225v-4c-59 -18 -73 -35 -73 -132v-238c0 -97 14 -115 73 -132v-4h-225v4c59 17 73 35 73 132zM287 652v-45h-250v45h250z" />
    <glyph glyph-name="ibreve.smcp" horiz-adv-x="325" 
d="M113 136v238c0 97 -14 114 -73 132v4h225v-4c-59 -18 -73 -35 -73 -132v-238c0 -97 14 -115 73 -132v-4h-225v4c59 17 73 35 73 132zM162 627c40 0 93 22 113 63h4c-10 -55 -46 -120 -117 -120s-107 65 -117 120h4c20 -41 72 -63 113 -63z" />
    <glyph glyph-name="iogonek.smcp" horiz-adv-x="305" 
d="M259 -171v-4c-12 -15 -38 -34 -71 -34c-48 0 -74 32 -74 66c0 55 84 108 140 143h-214v4c59 17 73 35 73 132v238c0 97 -14 114 -73 132v4h225v-4c-59 -18 -73 -35 -73 -132v-238c0 -97 14 -115 73 -132v-4c-40 -37 -81 -88 -81 -133c0 -23 16 -42 47 -42c8 0 18 1 28 4z
" />
    <glyph glyph-name="idotaccent.smcp" horiz-adv-x="325" 
d="M113 136v238c0 97 -14 114 -73 132v4h225v-4c-59 -18 -73 -35 -73 -132v-238c0 -97 14 -115 73 -132v-4h-225v4c59 17 73 35 73 132zM216 643c0 -30 -25 -54 -54 -54c-30 0 -54 24 -54 54c0 29 24 54 54 54c29 0 54 -25 54 -54z" />
    <glyph glyph-name="ij.smcp" horiz-adv-x="585" 
d="M113 136v238c0 97 -14 114 -73 132v4h225v-4c-59 -18 -73 -35 -73 -132v-238c0 -97 14 -115 73 -132v-4h-225v4c59 17 73 35 73 132zM475 374v-348c0 -108 -73 -156 -140 -188l-5 11c43 29 66 69 66 145v380c0 97 -14 114 -73 132v4h225v-4c-59 -18 -73 -35 -73 -132z
" />
    <glyph glyph-name="jcircumflex.smcp" horiz-adv-x="323" 
d="M192 374v-348c0 -108 -73 -156 -140 -188l-5 11c43 29 66 69 66 145v380c0 97 -14 114 -73 132v4h225v-4c-59 -18 -73 -35 -73 -132zM187 690l90 -122h-8l-108 64l-107 -64h-8l88 122h53z" />
    <glyph glyph-name="kcommaaccent.smcp" horiz-adv-x="575" 
d="M113 131v248c0 87 -15 109 -79 127v4h239v-4c-64 -18 -79 -40 -79 -127v-144l151 150c33 33 48 64 49 83c0 17 -16 28 -49 36v6h215v-4c-52 -15 -87 -43 -176 -125l-70 -65c45 -66 93 -130 139 -194c66 -92 92 -105 135 -118v-4h-79c-67 0 -88 1 -148 53c11 6 19 6 19 16
s-16 35 -34 62l-90 132c-20 -20 -41 -39 -62 -59v-73c0 -87 15 -109 79 -127v-4h-239v4c64 18 79 40 79 127zM238 -254l-3 2c29 37 39 68 39 90c0 27 -27 33 -27 68c0 28 22 48 49 48c30 0 50 -26 50 -55c0 -53 -55 -116 -108 -153z" />
    <glyph glyph-name="kgreenlandic.smcp" horiz-adv-x="617" 
d="M633 522l3 -2c-29 -37 -39 -68 -39 -90c0 -27 26 -33 26 -68c0 -28 -21 -48 -48 -48c-31 0 -51 26 -51 55c0 53 56 116 109 153zM113 131v248c0 87 -15 109 -79 127v4h239v-4c-64 -18 -79 -40 -79 -127v-144l151 150c33 33 48 64 49 83c0 17 -16 28 -49 36v6h215v-4
c-52 -15 -87 -43 -176 -125l-70 -65l139 -194c66 -92 92 -105 135 -118v-4h-250v4c55 14 73 32 8 127l-90 132l-62 -59v-73c0 -87 15 -109 79 -127v-4h-239v4c64 18 79 40 79 127z" />
    <glyph glyph-name="lacute.smcp" horiz-adv-x="459" 
d="M40 510h225v-4c-59 -18 -73 -35 -73 -132v-349h84c68 0 84 4 161 108h4l-19 -133h-382v4c59 18 73 35 73 132v238c0 97 -14 114 -73 132v4zM171 690h93c-37 -51 -91 -92 -160 -122h-5c32 34 59 78 72 122z" />
    <glyph glyph-name="lcommaaccent.smcp" horiz-adv-x="459" 
d="M40 510h225v-4c-59 -18 -73 -35 -73 -132v-349h84c68 0 84 4 161 108h4l-19 -133h-382v4c59 18 73 35 73 132v238c0 97 -14 114 -73 132v4zM201 -254l-3 2c29 37 39 68 39 90c0 27 -27 33 -27 67c0 29 22 49 49 49c30 0 50 -26 50 -55c0 -54 -55 -116 -108 -153z" />
    <glyph glyph-name="lcaron.smcp" horiz-adv-x="459" 
d="M40 510h225v-4c-59 -18 -73 -35 -73 -132v-349h84c68 0 84 4 161 108h4l-19 -133h-382v4c59 18 73 35 73 132v238c0 97 -14 114 -73 132v4zM313 340l-3 2c29 37 39 68 39 90c0 27 -27 33 -27 67c0 29 22 49 49 49c30 0 50 -26 50 -55c0 -54 -55 -116 -108 -153z" />
    <glyph glyph-name="ldot.smcp" horiz-adv-x="325" 
d="M113 136v238c0 97 -14 114 -73 132v4h225v-4c-59 -18 -73 -35 -73 -132v-238c0 -97 14 -115 73 -132v-4h-225v4c59 17 73 35 73 132zM216 643c0 -30 -25 -54 -54 -54c-30 0 -54 24 -54 54c0 29 24 54 54 54c29 0 54 -25 54 -54z" />
    <glyph glyph-name="lslash.smcp" horiz-adv-x="459" 
d="M40 510h225v-4c-59 -18 -73 -35 -73 -132v-108l98 39v-38l-98 -39v-203h84c68 0 84 4 161 108h4l-19 -133h-382v4c59 18 73 35 73 132v61l-67 -27v38l67 27v139c0 97 -14 114 -73 132v4z" />
    <glyph glyph-name="ntilde.smcp" horiz-adv-x="629" 
d="M210 4v-4h-198v4c65 21 79 37 79 204v217c0 37 -26 67 -72 81v4h140l339 -395v187c0 164 -14 183 -79 204v4h198v-4c-65 -21 -79 -37 -79 -204v-309h-42l-365 426v-211c0 -164 14 -183 79 -204zM377 613c-49 0 -96 34 -129 34c-30 0 -51 -19 -59 -39l-8 2
c5 16 33 84 94 84c47 0 94 -31 129 -31c29 0 50 16 58 36l8 -2c-6 -18 -33 -84 -93 -84z" />
    <glyph glyph-name="nacute.smcp" horiz-adv-x="629" 
d="M210 4v-4h-198v4c65 21 79 37 79 204v217c0 37 -26 67 -72 81v4h140l339 -395v187c0 164 -14 183 -79 204v4h198v-4c-65 -21 -79 -37 -79 -204v-309h-42l-365 426v-211c0 -164 14 -183 79 -204zM323 690h93c-37 -51 -91 -92 -160 -122h-5c32 34 59 78 72 122z" />
    <glyph glyph-name="ncommaaccent.smcp" horiz-adv-x="629" 
d="M210 4v-4h-198v4c65 21 79 37 79 204v217c0 37 -26 67 -72 81v4h140l339 -395v187c0 164 -14 183 -79 204v4h198v-4c-65 -21 -79 -37 -79 -204v-309h-42l-365 426v-211c0 -164 14 -183 79 -204zM260 -254l-3 2c29 37 39 68 39 90c0 27 -27 33 -27 67c0 29 22 49 49 49
c30 0 50 -26 50 -55c0 -54 -55 -116 -108 -153z" />
    <glyph glyph-name="ncaron.smcp" horiz-adv-x="629" 
d="M210 4v-4h-198v4c65 21 79 37 79 204v217c0 37 -26 67 -72 81v4h140l339 -395v187c0 164 -14 183 -79 204v4h198v-4c-65 -21 -79 -37 -79 -204v-309h-42l-365 426v-211c0 -164 14 -183 79 -204zM326 626l108 64h8l-90 -122h-53l-88 122h8z" />
    <glyph glyph-name="napostrophe.smcp" horiz-adv-x="629" 
d="M210 4v-4h-198v4c65 21 79 37 79 204v217c0 37 -26 67 -72 81v4h140l339 -395v187c0 164 -14 183 -79 204v4h198v-4c-65 -21 -79 -37 -79 -204v-309h-42l-365 426v-211c0 -164 14 -183 79 -204zM53 590l-3 2c29 37 39 68 39 90c0 27 -27 33 -27 67c0 29 22 49 49 49
c30 0 50 -26 50 -55c0 -54 -55 -116 -108 -153z" />
    <glyph glyph-name="ograve.smcp" horiz-adv-x="636" 
d="M318 -12c-141 0 -272 114 -272 268c0 153 137 265 272 265c134 0 272 -112 272 -265c0 -154 -132 -268 -272 -268zM318 10c112 0 179 122 179 246c0 129 -72 244 -179 244c-108 0 -180 -115 -180 -244c0 -124 67 -246 180 -246zM214 690h93c13 -44 39 -88 72 -122h-5
c-69 30 -123 71 -160 122z" />
    <glyph glyph-name="oacute.smcp" horiz-adv-x="636" 
d="M318 -12c-141 0 -272 114 -272 268c0 153 137 265 272 265c134 0 272 -112 272 -265c0 -154 -132 -268 -272 -268zM318 10c112 0 179 122 179 246c0 129 -72 244 -179 244c-108 0 -180 -115 -180 -244c0 -124 67 -246 180 -246zM323 690h93c-37 -51 -91 -92 -160 -122h-5
c32 34 59 78 72 122z" />
    <glyph glyph-name="ocircumflex.smcp" horiz-adv-x="636" 
d="M318 -12c-141 0 -272 114 -272 268c0 153 137 265 272 265c134 0 272 -112 272 -265c0 -154 -132 -268 -272 -268zM318 10c112 0 179 122 179 246c0 129 -72 244 -179 244c-108 0 -180 -115 -180 -244c0 -124 67 -246 180 -246zM344 690l90 -122h-8l-108 64l-107 -64h-8
l88 122h53z" />
    <glyph glyph-name="otilde.smcp" horiz-adv-x="636" 
d="M318 -12c-141 0 -272 114 -272 268c0 153 137 265 272 265c134 0 272 -112 272 -265c0 -154 -132 -268 -272 -268zM318 10c112 0 179 122 179 246c0 129 -72 244 -179 244c-108 0 -180 -115 -180 -244c0 -124 67 -246 180 -246zM370 613c-49 0 -96 34 -129 34
c-30 0 -51 -19 -59 -39l-8 2c5 16 33 84 94 84c47 0 94 -31 129 -31c29 0 50 16 58 36l8 -2c-6 -18 -33 -84 -93 -84z" />
    <glyph glyph-name="odieresis.smcp" horiz-adv-x="636" 
d="M318 -12c-141 0 -272 114 -272 268c0 153 137 265 272 265c134 0 272 -112 272 -265c0 -154 -132 -268 -272 -268zM318 10c112 0 179 122 179 246c0 129 -72 244 -179 244c-108 0 -180 -115 -180 -244c0 -124 67 -246 180 -246zM440 650c0 -27 -22 -51 -50 -51
c-27 0 -51 24 -51 51s24 50 51 50c28 0 50 -23 50 -50zM296 650c0 -27 -23 -51 -50 -51c-28 0 -51 24 -51 51s23 50 51 50c27 0 50 -23 50 -50z" />
    <glyph glyph-name="oslash.smcp" horiz-adv-x="636" 
d="M179 26l-41 -58l-29 20l41 58c-62 48 -104 122 -104 210c0 153 137 265 272 265c47 0 95 -14 137 -39l44 62l29 -20l-44 -62c62 -48 106 -121 106 -206c0 -154 -132 -268 -272 -268c-49 0 -97 14 -139 38zM318 10c112 0 179 122 179 246c0 60 -16 117 -45 161l-247 -355
c29 -32 67 -52 113 -52zM138 256c0 -60 15 -119 45 -164l247 354c-30 33 -68 54 -112 54c-108 0 -180 -115 -180 -244z" />
    <glyph glyph-name="omacron.smcp" horiz-adv-x="636" 
d="M318 -12c-141 0 -272 114 -272 268c0 153 137 265 272 265c134 0 272 -112 272 -265c0 -154 -132 -268 -272 -268zM318 10c112 0 179 122 179 246c0 129 -72 244 -179 244c-108 0 -180 -115 -180 -244c0 -124 67 -246 180 -246zM443 652v-45h-250v45h250z" />
    <glyph glyph-name="obreve.smcp" horiz-adv-x="636" 
d="M318 -12c-141 0 -272 114 -272 268c0 153 137 265 272 265c134 0 272 -112 272 -265c0 -154 -132 -268 -272 -268zM318 10c112 0 179 122 179 246c0 129 -72 244 -179 244c-108 0 -180 -115 -180 -244c0 -124 67 -246 180 -246zM318 627c40 0 93 22 113 63h4
c-10 -55 -46 -120 -117 -120s-107 65 -117 120h4c20 -41 72 -63 113 -63z" />
    <glyph glyph-name="ohungarumlaut.smcp" horiz-adv-x="636" 
d="M318 -12c-141 0 -272 114 -272 268c0 153 137 265 272 265c134 0 272 -112 272 -265c0 -154 -132 -268 -272 -268zM318 10c112 0 179 122 179 246c0 129 -72 244 -179 244c-108 0 -180 -115 -180 -244c0 -124 67 -246 180 -246zM259 690h76c-22 -46 -53 -86 -91 -122h-9
c12 40 22 79 24 122zM378 690h76c-22 -46 -53 -86 -91 -122h-9c12 40 22 79 24 122z" />
    <glyph glyph-name="racute.smcp" horiz-adv-x="554" 
d="M40 506v4h247c110 0 179 -42 179 -129c0 -76 -64 -116 -127 -134l102 -139c64 -86 97 -98 143 -104v-4h-59c-113 0 -113 4 -167 89l-92 142h-74v-95c0 -97 14 -114 73 -132v-4h-225v4c59 18 73 35 73 132v238c0 97 -14 114 -73 132zM192 485v-230h71c65 0 115 41 115 117
c0 65 -38 113 -103 113h-83zM289 690h93c-37 -51 -91 -92 -160 -122h-5c32 34 59 78 72 122z" />
    <glyph glyph-name="rcommaaccent.smcp" horiz-adv-x="554" 
d="M40 506v4h247c110 0 179 -42 179 -129c0 -76 -64 -116 -127 -134l102 -139c64 -86 97 -98 143 -104v-4h-59c-113 0 -113 4 -167 89l-92 142h-74v-95c0 -97 14 -114 73 -132v-4h-225v4c59 18 73 35 73 132v238c0 97 -14 114 -73 132zM192 485v-230h71c65 0 115 41 115 117
c0 65 -38 113 -103 113h-83zM209 -254l-3 2c29 37 39 68 39 90c0 27 -27 33 -27 67c0 29 22 49 49 49c30 0 50 -26 50 -55c0 -54 -55 -116 -108 -153z" />
    <glyph glyph-name="rcaron.smcp" horiz-adv-x="554" 
d="M40 506v4h247c110 0 179 -42 179 -129c0 -76 -64 -116 -127 -134l102 -139c64 -86 97 -98 143 -104v-4h-59c-113 0 -113 4 -167 89l-92 142h-74v-95c0 -97 14 -114 73 -132v-4h-225v4c59 18 73 35 73 132v238c0 97 -14 114 -73 132zM192 485v-230h71c65 0 115 41 115 117
c0 65 -38 113 -103 113h-83zM273 626l108 64h8l-90 -122h-53l-88 122h8z" />
    <glyph glyph-name="sacute.smcp" horiz-adv-x="431" 
d="M50 29v132h4c45 -103 101 -153 165 -153c57 0 103 41 103 92c0 126 -267 108 -267 283c0 88 76 139 165 139c40 0 84 -10 130 -29v-121h-5c-39 90 -90 130 -141 130c-47 0 -91 -35 -91 -87c0 -123 270 -100 270 -279c0 -86 -70 -148 -177 -148c-47 0 -103 12 -156 41z
M220 690h93c-37 -51 -91 -92 -160 -122h-5c32 34 59 78 72 122z" />
    <glyph glyph-name="scircumflex.smcp" horiz-adv-x="431" 
d="M50 29v132h4c45 -103 101 -153 165 -153c57 0 103 41 103 92c0 126 -267 108 -267 283c0 88 76 139 165 139c40 0 84 -10 130 -29v-121h-5c-39 90 -90 130 -141 130c-47 0 -91 -35 -91 -87c0 -123 270 -100 270 -279c0 -86 -70 -148 -177 -148c-47 0 -103 12 -156 41z
M241 690l90 -122h-8l-108 64l-107 -64h-8l88 122h53z" />
    <glyph glyph-name="scedilla.smcp" horiz-adv-x="431" 
d="M110 -183l12 11c23 -10 46 -13 66 -13c23 0 58 13 58 46c0 38 -61 53 -96 54c18 25 37 49 55 73c-48 0 -104 13 -155 41v132h4c45 -103 101 -153 165 -153c57 0 103 41 103 92c0 126 -267 108 -267 283c0 88 76 139 165 139c40 0 84 -10 130 -29v-121h-5
c-39 90 -90 130 -141 130c-47 0 -91 -35 -91 -87c0 -123 270 -100 270 -279c0 -78 -58 -136 -147 -145l-26 -42c38 -4 95 -29 95 -80c0 -58 -64 -78 -104 -78c-41 0 -72 12 -91 26z" />
    <glyph glyph-name="scaron.smcp" horiz-adv-x="431" 
d="M50 29v132h4c45 -103 101 -153 165 -153c57 0 103 41 103 92c0 126 -267 108 -267 283c0 88 76 139 165 139c40 0 84 -10 130 -29v-121h-5c-39 90 -90 130 -141 130c-47 0 -91 -35 -91 -87c0 -123 270 -100 270 -279c0 -86 -70 -148 -177 -148c-47 0 -103 12 -156 41z
M209 626l108 64h8l-90 -122h-53l-88 122h8z" />
    <glyph glyph-name="scommaaccent.smcp" horiz-adv-x="431" 
d="M50 29v132h4c45 -103 101 -153 165 -153c57 0 103 41 103 92c0 126 -267 108 -267 283c0 88 76 139 165 139c40 0 84 -10 130 -29v-121h-5c-39 90 -90 130 -141 130c-47 0 -91 -35 -91 -87c0 -123 270 -100 270 -279c0 -86 -70 -148 -177 -148c-47 0 -103 12 -156 41z
M161 -254l-3 2c29 37 39 68 39 90c0 27 -27 33 -27 67c0 29 22 49 49 49c30 0 50 -26 50 -55c0 -54 -55 -116 -108 -153z" />
    <glyph glyph-name="tcommaaccent.smcp" horiz-adv-x="521" 
d="M344 485h-44v-349c0 -97 14 -114 73 -132v-4h-225v4c59 18 73 35 73 132v349h-45c-70 0 -87 -12 -142 -96h-4l10 121h440l10 -121h-4c-55 84 -72 96 -142 96zM197 -254l-3 2c29 37 39 68 39 90c0 27 -27 33 -27 67c0 29 22 49 49 49c30 0 50 -26 50 -55
c0 -54 -55 -116 -108 -153z" />
    <glyph glyph-name="uni021B.smcp" horiz-adv-x="521" 
d="M344 485h-44v-349c0 -97 14 -114 73 -132v-4h-225v4c59 18 73 35 73 132v349h-45c-70 0 -87 -12 -142 -96h-4l10 121h440l10 -121h-4c-55 84 -72 96 -142 96zM197 -254l-3 2c29 37 39 68 39 90c0 27 -27 33 -27 67c0 29 22 49 49 49c30 0 50 -26 50 -55
c0 -54 -55 -116 -108 -153z" />
    <glyph glyph-name="tcaron.smcp" horiz-adv-x="521" 
d="M344 485h-44v-349c0 -97 14 -114 73 -132v-4h-225v4c59 18 73 35 73 132v349h-45c-70 0 -87 -12 -142 -96h-4l10 121h440l10 -121h-4c-55 84 -72 96 -142 96zM260 626l108 64h8l-90 -122h-53l-88 122h8z" />
    <glyph glyph-name="tbar.smcp" horiz-adv-x="521" 
d="M344 485h-44v-209h90v-27h-90v-113c0 -97 14 -114 73 -132v-4h-225v4c59 18 73 35 73 132v113h-90v27h90v209h-45c-70 0 -87 -12 -142 -96h-4l10 121h440l10 -121h-4c-55 84 -72 96 -142 96z" />
    <glyph glyph-name="ugrave.smcp" horiz-adv-x="633" 
d="M185 374v-246c0 -58 44 -108 141 -108c95 0 156 46 156 121v161c0 164 -14 183 -79 204v4h197v-4c-65 -21 -79 -37 -79 -204v-163c0 -91 -82 -150 -206 -150c-119 0 -209 56 -209 150v235c0 97 -14 114 -73 132v4h225v-4c-59 -18 -73 -35 -73 -132zM227 690h93
c13 -44 39 -88 72 -122h-5c-69 30 -123 71 -160 122z" />
    <glyph glyph-name="uacute.smcp" horiz-adv-x="633" 
d="M185 374v-246c0 -58 44 -108 141 -108c95 0 156 46 156 121v161c0 164 -14 183 -79 204v4h197v-4c-65 -21 -79 -37 -79 -204v-163c0 -91 -82 -150 -206 -150c-119 0 -209 56 -209 150v235c0 97 -14 114 -73 132v4h225v-4c-59 -18 -73 -35 -73 -132zM348 690h93
c-37 -51 -91 -92 -160 -122h-5c32 34 59 78 72 122z" />
    <glyph glyph-name="ucircumflex.smcp" horiz-adv-x="633" 
d="M185 374v-246c0 -58 44 -108 141 -108c95 0 156 46 156 121v161c0 164 -14 183 -79 204v4h197v-4c-65 -21 -79 -37 -79 -204v-163c0 -91 -82 -150 -206 -150c-119 0 -209 56 -209 150v235c0 97 -14 114 -73 132v4h225v-4c-59 -18 -73 -35 -73 -132zM351 690l90 -122h-8
l-108 64l-107 -64h-8l88 122h53z" />
    <glyph glyph-name="udieresis.smcp" horiz-adv-x="633" 
d="M185 374v-246c0 -58 44 -108 141 -108c95 0 156 46 156 121v161c0 164 -14 183 -79 204v4h197v-4c-65 -21 -79 -37 -79 -204v-163c0 -91 -82 -150 -206 -150c-119 0 -209 56 -209 150v235c0 97 -14 114 -73 132v4h225v-4c-59 -18 -73 -35 -73 -132zM449 650
c0 -27 -22 -51 -50 -51c-27 0 -51 24 -51 51s24 50 51 50c28 0 50 -23 50 -50zM305 650c0 -27 -23 -51 -50 -51c-28 0 -51 24 -51 51s23 50 51 50c27 0 50 -23 50 -50z" />
    <glyph glyph-name="utilde.smcp" horiz-adv-x="633" 
d="M185 374v-246c0 -58 44 -108 141 -108c95 0 156 46 156 121v161c0 164 -14 183 -79 204v4h197v-4c-65 -21 -79 -37 -79 -204v-163c0 -91 -82 -150 -206 -150c-119 0 -209 56 -209 150v235c0 97 -14 114 -73 132v4h225v-4c-59 -18 -73 -35 -73 -132zM385 613
c-49 0 -96 34 -129 34c-30 0 -51 -19 -59 -39l-8 2c5 16 33 84 94 84c47 0 94 -31 129 -31c29 0 50 16 58 36l8 -2c-6 -18 -33 -84 -93 -84z" />
    <glyph glyph-name="umacron.smcp" horiz-adv-x="633" 
d="M185 374v-246c0 -58 44 -108 141 -108c95 0 156 46 156 121v161c0 164 -14 183 -79 204v4h197v-4c-65 -21 -79 -37 -79 -204v-163c0 -91 -82 -150 -206 -150c-119 0 -209 56 -209 150v235c0 97 -14 114 -73 132v4h225v-4c-59 -18 -73 -35 -73 -132zM440 652v-45h-250v45
h250z" />
    <glyph glyph-name="ubreve.smcp" horiz-adv-x="633" 
d="M185 374v-246c0 -58 44 -108 141 -108c95 0 156 46 156 121v161c0 164 -14 183 -79 204v4h197v-4c-65 -21 -79 -37 -79 -204v-163c0 -91 -82 -150 -206 -150c-119 0 -209 56 -209 150v235c0 97 -14 114 -73 132v4h225v-4c-59 -18 -73 -35 -73 -132zM331 627
c40 0 93 22 113 63h4c-10 -55 -46 -120 -117 -120s-107 65 -117 120h4c20 -41 72 -63 113 -63z" />
    <glyph glyph-name="uring.smcp" horiz-adv-x="633" 
d="M185 374v-246c0 -58 44 -108 141 -108c95 0 156 46 156 121v161c0 164 -14 183 -79 204v4h197v-4c-65 -21 -79 -37 -79 -204v-163c0 -91 -82 -150 -206 -150c-119 0 -209 56 -209 150v235c0 97 -14 114 -73 132v4h225v-4c-59 -18 -73 -35 -73 -132zM433 667
c0 -56 -48 -102 -104 -102s-104 46 -104 102s48 102 104 102s104 -46 104 -102zM329 596c39 0 68 32 68 71s-29 71 -68 71s-69 -32 -69 -71s30 -71 69 -71z" />
    <glyph glyph-name="uhungarumlaut.smcp" horiz-adv-x="633" 
d="M185 374v-246c0 -58 44 -108 141 -108c95 0 156 46 156 121v161c0 164 -14 183 -79 204v4h197v-4c-65 -21 -79 -37 -79 -204v-163c0 -91 -82 -150 -206 -150c-119 0 -209 56 -209 150v235c0 97 -14 114 -73 132v4h225v-4c-59 -18 -73 -35 -73 -132zM268 690h76
c-22 -46 -53 -86 -91 -122h-9c12 40 22 79 24 122zM387 690h76c-22 -46 -53 -86 -91 -122h-9c12 40 22 79 24 122z" />
    <glyph glyph-name="uogonek.smcp" horiz-adv-x="633" 
d="M378 -171v-4c-12 -15 -38 -34 -71 -34c-48 0 -74 32 -74 66c0 52 72 101 127 135c-14 -1 -29 -3 -45 -3c-119 0 -209 56 -209 150v235c0 97 -14 114 -73 132v4h225v-4c-59 -18 -73 -35 -73 -132v-246c0 -58 44 -108 141 -108c95 0 156 46 156 121v161
c0 164 -14 183 -79 204v4h197v-4c-65 -21 -79 -37 -79 -204v-163c0 -77 -58 -130 -149 -145c-32 -36 -69 -84 -69 -127c0 -23 16 -42 47 -42c8 0 18 1 28 4z" />
    <glyph glyph-name="wcircumflex.smcp" horiz-adv-x="837" 
d="M593 -7h-48l-132 390l-135 -390h-47c-35 107 -71 213 -106 321c-50 151 -68 170 -117 192v4h228v-4c-40 -11 -58 -24 -58 -60s59 -219 102 -362l84 242c15 44 24 78 23 105c0 42 -20 64 -63 75v4h222v-4c-40 -11 -57 -24 -57 -59c0 -30 12 -77 36 -153l71 -209l84 241
c19 56 26 93 27 117c0 37 -20 51 -66 63v4h205v-4c-58 -21 -81 -37 -137 -192c-39 -108 -78 -214 -116 -321zM444 690l90 -122h-8c-36 21 -72 42 -108 64l-107 -64h-8l88 122h53z" />
    <glyph glyph-name="wgrave.smcp" horiz-adv-x="837" 
d="M593 -7h-48l-132 390l-135 -390h-47c-35 107 -71 213 -106 321c-50 151 -68 170 -117 192v4h228v-4c-40 -11 -58 -24 -58 -60s59 -219 102 -362l84 242c15 44 24 78 23 105c0 42 -20 64 -63 75v4h222v-4c-40 -11 -57 -24 -57 -59c0 -30 12 -77 36 -153l71 -209l84 241
c19 56 26 93 27 117c0 37 -20 51 -66 63v4h205v-4c-58 -21 -81 -37 -137 -192c-39 -108 -78 -214 -116 -321zM329 690h93c13 -44 39 -88 72 -122h-5c-69 30 -123 71 -160 122z" />
    <glyph glyph-name="wacute.smcp" horiz-adv-x="837" 
d="M593 -7h-48l-132 390l-135 -390h-47c-35 107 -71 213 -106 321c-50 151 -68 170 -117 192v4h228v-4c-40 -11 -58 -24 -58 -60s59 -219 102 -362l84 242c15 44 24 78 23 105c0 42 -20 64 -63 75v4h222v-4c-40 -11 -57 -24 -57 -59c0 -30 12 -77 36 -153l71 -209l84 241
c19 56 26 93 27 117c0 37 -20 51 -66 63v4h205v-4c-58 -21 -81 -37 -137 -192c-39 -108 -78 -214 -116 -321zM430 690h93c-37 -51 -91 -92 -160 -122h-5c32 34 59 78 72 122z" />
    <glyph glyph-name="wdieresis.smcp" horiz-adv-x="837" 
d="M593 -7h-48l-132 390l-135 -390h-47c-35 107 -71 213 -106 321c-50 151 -68 170 -117 192v4h228v-4c-40 -11 -58 -24 -58 -60s59 -219 102 -362l84 242c15 44 24 78 23 105c0 42 -20 64 -63 75v4h222v-4c-40 -11 -57 -24 -57 -59c0 -30 12 -77 36 -153l71 -209l84 241
c19 56 26 93 27 117c0 37 -20 51 -66 63v4h205v-4c-58 -21 -81 -37 -137 -192c-39 -108 -78 -214 -116 -321zM540 650c0 -27 -22 -51 -50 -51c-27 0 -51 24 -51 51s24 50 51 50c28 0 50 -23 50 -50zM396 650c0 -27 -23 -51 -50 -51c-28 0 -51 24 -51 51s23 50 51 50
c27 0 50 -23 50 -50z" />
    <glyph glyph-name="yacute.smcp" horiz-adv-x="476" 
d="M2 506v4h191v-4c-23 -5 -42 -15 -42 -36c0 -23 14 -56 43 -105l66 -114l59 115c25 47 39 80 39 102c0 21 -20 29 -45 38v4h161v-4c-38 -12 -74 -52 -123 -145l-77 -148v-77c0 -97 14 -114 73 -132v-4h-225v4c59 18 73 35 73 132v86l-77 139c-58 105 -87 135 -116 145z
M252 690h93c-37 -51 -91 -92 -160 -122h-5c32 34 59 78 72 122z" />
    <glyph glyph-name="ydieresis.smcp" horiz-adv-x="476" 
d="M2 506v4h191v-4c-23 -5 -42 -15 -42 -36c0 -23 14 -56 43 -105l66 -114l59 115c25 47 39 80 39 102c0 21 -20 29 -45 38v4h161v-4c-38 -12 -74 -52 -123 -145l-77 -148v-77c0 -97 14 -114 73 -132v-4h-225v4c59 18 73 35 73 132v86l-77 139c-58 105 -87 135 -116 145z
M360 650c0 -27 -22 -51 -50 -51c-27 0 -51 24 -51 51s24 50 51 50c28 0 50 -23 50 -50zM216 650c0 -27 -23 -51 -50 -51c-28 0 -51 24 -51 51s23 50 51 50c27 0 50 -23 50 -50z" />
    <glyph glyph-name="ycircumflex.smcp" horiz-adv-x="476" 
d="M2 506v4h191v-4c-23 -5 -42 -15 -42 -36c0 -23 14 -56 43 -105l66 -114l59 115c25 47 39 80 39 102c0 21 -20 29 -45 38v4h161v-4c-38 -12 -74 -52 -123 -145l-77 -148v-77c0 -97 14 -114 73 -132v-4h-225v4c59 18 73 35 73 132v86l-77 139c-58 105 -87 135 -116 145z
M264 690l90 -122h-8l-108 64l-107 -64h-8l88 122h53z" />
    <glyph glyph-name="ygrave.smcp" horiz-adv-x="476" 
d="M2 506v4h191v-4c-23 -5 -42 -15 -42 -36c0 -23 14 -56 43 -105l66 -114l59 115c25 47 39 80 39 102c0 21 -20 29 -45 38v4h161v-4c-38 -12 -74 -52 -123 -145l-77 -148v-77c0 -97 14 -114 73 -132v-4h-225v4c59 18 73 35 73 132v86l-77 139c-58 105 -87 135 -116 145z
M150 690h93c13 -44 39 -88 72 -122h-5c-69 30 -123 71 -160 122z" />
    <glyph glyph-name="zacute.smcp" horiz-adv-x="481" 
d="M435 0h-412v4l315 481h-163c-56 0 -74 -21 -135 -107h-4l15 132h388v-4l-313 -481h176c56 0 73 12 149 113h4zM248 690h93c-37 -51 -91 -92 -160 -122h-5c32 34 59 78 72 122z" />
    <glyph glyph-name="zdotaccent.smcp" horiz-adv-x="481" 
d="M435 0h-412v4l315 481h-163c-56 0 -74 -21 -135 -107h-4l15 132h388v-4l-313 -481h176c56 0 73 12 149 113h4zM290 643c0 -30 -25 -54 -54 -54c-30 0 -54 24 -54 54c0 29 24 54 54 54c29 0 54 -25 54 -54z" />
    <glyph glyph-name="zcaron.smcp" horiz-adv-x="481" 
d="M435 0h-412v4l315 481h-163c-56 0 -74 -21 -135 -107h-4l15 132h388v-4l-313 -481h176c56 0 73 12 149 113h4zM348 690h8l-90 -122h-53l-88 122h8l107 -64c36 21 72 42 108 64z" />
    <glyph glyph-name="zero.tscf" 
d="M285 -12c-142 0 -236 120 -236 269c0 152 99 265 236 265s236 -113 236 -265c0 -149 -94 -269 -236 -269zM285 9c116 0 142 131 142 246c0 131 -36 246 -142 246s-143 -115 -143 -246c0 -115 27 -246 143 -246z" />
    <glyph glyph-name="one.tscf" horiz-adv-x="386" 
d="M242 528h4v-392c0 -92 16 -114 85 -132v-4h-269v4c89 18 105 40 105 132v272c-34 -21 -91 -42 -129 -55l-3 15c92 33 152 92 207 160z" />
    <glyph glyph-name="two.tscf" horiz-adv-x="489" 
d="M229 522c107 0 190 -61 190 -154c0 -123 -127 -165 -270 -297h278v-71h-391v5c177 146 292 257 292 359c0 76 -52 124 -135 124c-41 0 -81 -18 -112 -45c6 1 10 1 16 1c39 0 64 -23 64 -58c0 -34 -26 -57 -58 -57c-35 0 -63 25 -63 64c0 57 79 129 189 129z" />
    <glyph glyph-name="three.tscf" horiz-adv-x="511" 
d="M37 82c0 37 30 61 64 61c33 0 59 -23 59 -57c0 -36 -26 -59 -40 -68c17 -6 52 -11 75 -11c100 0 169 52 169 136c0 78 -71 113 -159 113c-11 0 -22 0 -34 -1v23c116 0 160 49 160 108c0 78 -70 105 -136 105c-29 0 -59 -7 -81 -18c35 -4 63 -24 63 -60
c0 -34 -25 -56 -56 -56c-32 0 -60 21 -60 58c0 62 81 107 184 107c100 0 171 -40 171 -112c0 -63 -48 -94 -112 -111c80 -10 149 -57 149 -138c0 -119 -122 -176 -238 -176c-102 0 -178 40 -178 97z" />
    <glyph glyph-name="four.tscf" horiz-adv-x="508" 
d="M85 201h212v245zM297 136v17h-286v4l333 393h33v-349h78v-48h-78v-17c0 -97 4 -114 65 -132v-4h-230v4c79 18 85 35 85 132z" />
    <glyph glyph-name="five.tscf" horiz-adv-x="471" 
d="M95 245l-21 4l44 261h265v-76h-249l-29 -161c20 18 68 50 136 50c93 0 177 -55 177 -156c0 -129 -132 -182 -233 -182c-83 0 -161 36 -161 97c0 33 25 58 59 58c32 0 63 -22 63 -57c0 -32 -25 -52 -50 -62c22 -11 60 -16 81 -16c85 0 154 61 154 148
c0 86 -61 129 -131 129c-36 0 -76 -17 -105 -37z" />
    <glyph glyph-name="six.tscf" horiz-adv-x="519" 
d="M435 552v-14c-129 -26 -247 -117 -279 -251c31 23 81 49 142 49c83 0 172 -56 172 -158c0 -100 -81 -194 -200 -194c-134 0 -212 111 -212 227c0 174 152 314 377 341zM246 300c-32 0 -66 -10 -93 -27c-3 -18 -5 -37 -5 -60c0 -118 50 -208 133 -208c79 0 108 76 108 145
c0 94 -61 150 -143 150z" />
    <glyph glyph-name="seven.tscf" horiz-adv-x="484" 
d="M456 506l-333 -551l-35 22l293 459h-349v74h424v-4z" />
    <glyph glyph-name="eight.tscf" horiz-adv-x="537" 
d="M56 123c0 57 39 98 149 151l-13 6c-69 31 -120 70 -120 137c0 87 89 136 197 136c118 0 188 -56 188 -121c0 -66 -81 -109 -134 -131l13 -5c86 -34 145 -76 145 -153c0 -110 -118 -158 -220 -158c-99 0 -205 44 -205 138zM234 261c-3 2 -7 3 -10 4
c-44 -27 -86 -67 -86 -132c0 -69 46 -126 131 -126c79 0 133 51 133 112c0 74 -66 103 -168 142zM148 435c0 -57 36 -77 126 -114l29 -12c52 35 70 80 70 112c0 71 -49 110 -115 110c-71 0 -110 -44 -110 -96z" />
    <glyph glyph-name="nine.tscf" horiz-adv-x="518" 
d="M81 -36v14c130 25 250 115 279 251c-31 -24 -81 -49 -143 -49c-82 0 -171 52 -171 154c0 100 81 188 199 188c133 0 213 -105 213 -222c0 -174 -153 -309 -377 -336zM270 216c31 0 66 9 93 26c3 18 5 34 5 56c0 118 -51 202 -133 202c-79 0 -108 -69 -108 -138
c0 -94 60 -146 143 -146z" />
    <glyph glyph-name="euro.smcp" 
d="M113 289h-68v26h74c27 101 116 207 250 207c83 0 123 -43 123 -89c0 -36 -24 -58 -53 -58c-28 0 -50 22 -50 49c0 28 19 49 49 49c8 0 16 -1 25 -4c-21 20 -53 30 -94 30c-94 0 -147 -87 -162 -184h200v-26h-203c-2 -14 -2 -27 -2 -39c0 -11 0 -20 1 -30h204v-27h-202
c13 -97 64 -177 164 -177c75 0 131 80 131 127h12c0 -51 -48 -158 -163 -158c-141 0 -216 101 -234 208h-70v27h66c-1 10 -1 20 -1 30c0 12 1 25 3 39z" />
    <glyph glyph-name="dollar.smcp" horiz-adv-x="500" 
d="M267 -94h-32v82c-47 2 -110 13 -160 41v132h4c40 -93 98 -143 156 -152v209c-76 34 -155 72 -155 165c0 81 73 130 155 138v91h32v-90c38 -2 86 -12 128 -29v-121h-5c-32 74 -79 114 -123 126v-194c77 -34 161 -72 161 -168c0 -79 -68 -137 -161 -146v-84zM367 100
c0 50 -46 78 -100 103v-195c52 5 100 44 100 92zM138 415c0 -48 43 -73 97 -97v184c-47 -3 -97 -37 -97 -87z" />
    <glyph glyph-name="cent.smcp" horiz-adv-x="558" 
d="M347 -94h-32v83c-153 8 -268 110 -268 258c0 157 132 261 268 273v92h32v-91c58 -1 123 -19 153 -32v-114h-6c-36 77 -85 118 -147 124v-490c69 2 125 48 165 133h4l-9 -119c-31 -17 -99 -32 -160 -35v-82zM140 257c0 -133 69 -232 175 -246v487
c-110 -10 -175 -112 -175 -241z" />
    <glyph glyph-name="sterling.smcp" horiz-adv-x="542" 
d="M154 249h-105v27h94c-9 23 -15 46 -15 78c0 128 101 168 189 168c100 0 144 -43 144 -86c0 -35 -25 -58 -55 -58c-31 0 -54 21 -54 51c0 28 21 51 54 51c-17 10 -47 20 -74 20c-85 0 -122 -29 -122 -103c0 -49 16 -84 27 -121h165v-27h-158c3 -11 4 -23 4 -35
c0 -56 -21 -104 -73 -145h207c72 0 83 12 93 51h4c1 -8 1 -25 1 -32c0 -74 -51 -88 -90 -88h-312v4c56 43 97 92 97 149c0 39 -10 68 -21 96z" />
    <glyph glyph-name="yen.smcp" horiz-adv-x="476" 
d="M404 176v-27h-130v-13c0 -97 14 -114 73 -132v-4h-225v4c59 18 73 35 73 132v13h-130v27h130v46l-15 27h-115v27h100l-47 85c-58 105 -87 135 -116 145v4h191v-4c-23 -5 -42 -15 -42 -36c0 -24 14 -56 43 -105l66 -114l59 115c24 47 39 80 39 102c0 21 -20 29 -45 38v4
h161v-4c-38 -12 -75 -52 -123 -145l-45 -85h98v-27h-112l-18 -36v-37h130z" />
    <glyph glyph-name="florin.smcp" 
d="M433 241h-130v-179c0 -135 -77 -190 -173 -190c-52 0 -96 30 -96 70c0 30 22 51 50 51c26 0 50 -16 50 -46c0 -25 -15 -42 -33 -54c12 -3 23 -4 33 -4c47 2 88 31 88 159v193h-117c2 9 4 19 5 28h112v63c0 135 77 190 173 190c52 0 96 -30 96 -70c0 -30 -22 -51 -50 -51
c-26 0 -50 16 -50 46c0 25 15 42 33 54c-12 3 -23 4 -33 4c-47 -2 -88 -30 -88 -159v-77h130v-28z" />
    <glyph glyph-name="percent.smcp" horiz-adv-x="923" 
d="M662 549l-372 -596h-43l317 506l-3 2c-37 -20 -70 -46 -117 -46c-25 0 -52 6 -75 16c5 -13 9 -37 9 -60c0 -97 -66 -239 -181 -239c-87 0 -146 68 -146 157c0 105 86 232 198 232c92 0 95 -74 193 -74c74 0 132 48 180 102h40zM203 158c91 0 144 134 144 220
c0 52 -28 118 -85 118c-84 0 -134 -130 -134 -230c0 -59 26 -108 75 -108zM871 231c0 -101 -63 -243 -183 -243c-86 0 -145 67 -145 154c0 108 85 234 200 234c79 0 128 -60 128 -145zM695 14c90 0 144 127 144 218c0 57 -29 120 -84 120c-84 0 -135 -130 -135 -231
c0 -58 28 -107 75 -107z" />
    <glyph glyph-name="perthousand.smcp" horiz-adv-x="1293" 
d="M662 549l-372 -596h-43l317 506l-3 2c-37 -20 -70 -46 -117 -46c-25 0 -52 6 -75 16c5 -13 9 -37 9 -60c0 -97 -66 -239 -181 -239c-87 0 -146 68 -146 157c0 105 86 232 198 232c92 0 95 -74 193 -74c74 0 132 48 180 102h40zM203 158c91 0 144 134 144 220
c0 52 -28 118 -85 118c-84 0 -134 -130 -134 -230c0 -59 26 -108 75 -108zM871 231c0 -101 -63 -243 -183 -243c-86 0 -145 67 -145 154c0 108 85 234 200 234c79 0 128 -60 128 -145zM695 14c90 0 144 127 144 218c0 57 -29 120 -84 120c-84 0 -135 -130 -135 -231
c0 -58 28 -107 75 -107zM1249 231c0 -101 -63 -243 -183 -243c-86 0 -145 67 -145 154c0 108 85 234 200 234c79 0 128 -60 128 -145zM1073 14c90 0 144 127 144 218c0 57 -29 120 -84 120c-84 0 -135 -130 -135 -231c0 -58 28 -107 75 -107z" />
    <glyph glyph-name="ordfeminine.smcp" horiz-adv-x="378" 
d="M94 445l77 205h49l75 -205c35 -97 47 -109 79 -122v-5h-155v5c26 6 37 15 37 32s-7 40 -20 79h-114c-13 -36 -20 -59 -20 -75c0 -21 12 -30 41 -36v-5h-140v5c34 10 56 29 91 122zM229 457l-49 139l-50 -139h99zM370 218h-366v37h366v-37z" />
    <glyph glyph-name="ordmasculine.smcp" horiz-adv-x="403" 
d="M202 311c-92 0 -173 74 -173 172s84 170 173 170c87 0 172 -72 172 -170s-82 -172 -172 -172zM202 329c69 0 101 80 101 154c0 77 -35 152 -101 152c-67 0 -103 -75 -103 -152c0 -74 33 -154 103 -154zM364 222h-325v33h325v-33z" />
    <glyph glyph-name="exclam.smcp" horiz-adv-x="254" 
d="M130 167h-7c-14 158 -48 244 -48 303c0 34 28 52 51 52c22 0 51 -18 51 -52c0 -59 -33 -145 -47 -303zM185 44c0 -31 -27 -58 -58 -58c-32 0 -58 27 -58 58c0 32 26 58 58 58c31 0 58 -26 58 -58z" />
    <glyph glyph-name="question.smcp" horiz-adv-x="451" 
d="M382 403c0 -114 -145 -145 -153 -251h-7c0 127 80 151 80 244c0 57 -44 94 -106 94c-35 0 -68 -12 -96 -34c4 1 10 1 14 1c37 0 64 -24 64 -57c0 -32 -25 -57 -57 -57c-33 0 -58 25 -58 61c0 58 65 118 170 118c90 0 149 -47 149 -119zM284 47c0 -33 -27 -61 -60 -61
s-60 28 -60 61c0 32 27 60 60 60s60 -28 60 -60z" />
    <glyph glyph-name="exclamdown.smcp" horiz-adv-x="254" 
d="M123 341h7c14 -158 47 -244 47 -303c0 -34 -29 -52 -51 -52c-23 0 -51 18 -51 52c0 59 34 145 48 303zM185 464c0 -32 -27 -58 -58 -58c-32 0 -58 26 -58 58c0 31 26 58 58 58c31 0 58 -27 58 -58z" />
    <glyph glyph-name="questiondown.smcp" horiz-adv-x="431" 
d="M68 107c0 114 146 144 154 250h7c0 -127 -80 -150 -80 -243c0 -58 43 -94 105 -94c36 0 68 12 96 33c-3 -1 -10 -1 -14 -1c-37 0 -63 25 -63 57c0 33 24 57 57 57c32 0 58 -24 58 -61c0 -57 -66 -117 -171 -117c-89 0 -149 47 -149 119zM166 463c0 33 28 60 61 60
c32 0 60 -27 60 -60s-28 -60 -60 -60c-33 0 -61 27 -61 60z" />
    <glyph glyph-name="parenleft.smcp" horiz-adv-x="336" 
d="M336 -142h-18c-70 66 -212 211 -212 408c0 188 154 335 212 388h18c-77 -117 -149 -230 -149 -398c0 -175 69 -282 149 -398z" />
    <glyph glyph-name="parenright.smcp" horiz-adv-x="336" 
d="M18 -142h-18c80 116 149 223 149 398c0 168 -72 281 -149 398h18c58 -53 212 -200 212 -388c0 -197 -142 -342 -212 -408z" />
    <glyph glyph-name="bracketleft.smcp" horiz-adv-x="304" 
d="M296 -112v-28h-203v796h203v-28h-129v-740h129z" />
    <glyph glyph-name="bracketright.smcp" horiz-adv-x="304" 
d="M211 656v-796h-203v28h129v740h-129v28h203z" />
    <glyph glyph-name="braceleft.smcp" horiz-adv-x="317" 
d="M81 266c75 -25 129 -87 129 -188v-34c0 -110 29 -165 94 -179v-4c-106 10 -170 42 -170 182v43c0 93 -13 166 -96 176v8c83 10 96 83 96 176v27c0 140 64 172 170 182v-4c-65 -14 -94 -69 -94 -179v-18c0 -101 -54 -163 -129 -188z" />
    <glyph glyph-name="braceright.smcp" horiz-adv-x="317" 
d="M236 266c-75 25 -130 87 -130 188v18c0 110 -28 165 -93 179v4c106 -10 169 -42 169 -182v-27c0 -93 14 -166 97 -176v-8c-83 -10 -97 -83 -97 -176v-43c0 -140 -63 -172 -169 -182v4c65 14 93 69 93 179v34c0 101 55 163 130 188z" />
    <glyph glyph-name="ampersand.smcp" horiz-adv-x="717" 
d="M634 252c0 -62 -43 -125 -105 -173c66 -43 137 -70 209 -75v-4c-27 -5 -111 -12 -143 -12c-43 0 -88 19 -133 49c-62 -32 -135 -52 -204 -52c-142 0 -203 77 -203 154c0 89 76 129 160 171c-27 40 -52 105 -52 149c0 77 58 135 158 135c86 0 156 -40 156 -111
c0 -73 -98 -126 -183 -161c47 -75 123 -163 213 -228c39 36 62 82 62 131c0 53 -37 90 -92 109v3c16 4 33 7 49 7c59 0 108 -31 108 -92zM308 26c50 0 95 9 134 26c-91 69 -176 175 -218 244c-48 -36 -97 -74 -97 -124c0 -63 59 -146 181 -146zM279 350c1 -3 3 -6 5 -9
c49 23 123 74 123 142c0 50 -36 86 -88 86c-50 0 -83 -42 -83 -88c0 -43 22 -92 43 -131z" />
    <glyph glyph-name="at.smcp" horiz-adv-x="711" 
d="M409 135l17 84h-5c-67 -118 -104 -140 -133 -140c-50 0 -86 42 -86 116c0 120 87 231 208 231c25 0 48 -4 67 -9l33 9h9l-28 -161l-19 -144c0 -3 -1 -6 -1 -8c0 -8 3 -11 12 -11c39 0 128 71 128 176c0 125 -90 234 -233 234c-154 0 -254 -121 -254 -266
c0 -154 103 -253 252 -253c54 0 119 19 167 48c2 -1 3 -4 4 -5c-44 -40 -120 -71 -193 -71c-160 0 -297 109 -297 281c0 162 132 298 313 298c164 0 285 -108 285 -255c0 -137 -125 -210 -211 -210c-22 0 -37 7 -37 32c0 7 0 16 2 24zM312 117c35 0 86 100 117 144
c7 45 15 91 23 136c-7 3 -21 6 -34 6c-104 0 -147 -109 -147 -205c0 -51 19 -81 41 -81z" />
    <glyph glyph-name="slash.smcp" horiz-adv-x="406" 
d="M399 523l-346 -538h-46l346 538h46z" />
    <glyph glyph-name="backslash.smcp" horiz-adv-x="406" 
d="M53 523l346 -538h-46l-346 538h46z" />
    <glyph glyph-name="asterisk.smcp" horiz-adv-x="389" 
d="M209 382l111 -101l-59 -42l-66 136l-67 -136l-58 41l113 102l-155 26l24 67l136 -75l-27 155h72l-29 -155l135 75l22 -67z" />
    <glyph glyph-name="quoteleft.smcp" horiz-adv-x="223" 
d="M167 545l3 -2c-25 -36 -39 -74 -39 -94c0 -25 27 -36 27 -70c0 -29 -22 -49 -49 -49c-32 0 -52 25 -52 57c0 55 54 119 110 158z" />
    <glyph glyph-name="quoteright.smcp" horiz-adv-x="223" 
d="M53 306l-3 2c25 37 39 75 39 94c0 25 -27 37 -27 70c0 29 22 50 49 50c32 0 52 -26 52 -57c0 -55 -54 -119 -110 -159z" />
    <glyph glyph-name="quotedblleft.smcp" horiz-adv-x="392" 
d="M167 545l3 -2c-25 -36 -39 -74 -39 -94c0 -25 27 -36 27 -70c0 -29 -22 -49 -49 -49c-32 0 -52 25 -52 57c0 55 54 119 110 158zM336 545l3 -2c-25 -36 -39 -74 -39 -94c0 -25 27 -36 27 -70c0 -29 -22 -49 -49 -49c-32 0 -52 25 -52 57c0 55 54 119 110 158z" />
    <glyph glyph-name="quotedblright.smcp" horiz-adv-x="392" 
d="M53 306l-3 2c25 37 39 75 39 94c0 25 -27 37 -27 70c0 29 22 50 49 50c32 0 52 -26 52 -57c0 -55 -54 -119 -110 -159zM222 306l-3 2c25 37 39 75 39 94c0 25 -27 37 -27 70c0 29 22 50 49 50c32 0 52 -26 52 -57c0 -55 -54 -119 -110 -159z" />
    <glyph glyph-name="zero.alt" 
d="M285 -15c-162 0 -231 201 -231 354s76 365 231 365c154 0 231 -212 231 -365s-70 -354 -231 -354zM285 4c120 0 141 228 141 335c0 108 -26 345 -141 345s-141 -237 -141 -345c0 -107 21 -335 141 -335z" />
    <glyph glyph-name="one.alt" horiz-adv-x="416" 
d="M258 702h4v-566c0 -92 16 -114 85 -132v-4h-269v4c89 18 105 40 105 132v446c-34 -21 -91 -42 -129 -55l-3 15c92 33 152 92 207 160z" />
    <glyph glyph-name="two.alt" horiz-adv-x="492" 
d="M247 704c118 0 202 -67 202 -173c0 -98 -72 -163 -167 -269l-170 -190h335v-72h-420v16l204 240c84 99 129 180 129 256c0 99 -74 152 -155 152c-65 0 -114 -34 -139 -68c7 1 13 2 20 2c40 0 68 -25 68 -60s-26 -61 -60 -61c-35 0 -65 28 -65 67c0 59 74 160 218 160z
" />
    <glyph glyph-name="three.alt" horiz-adv-x="504" 
d="M32 96c0 39 30 63 65 63c34 0 60 -23 60 -58c0 -34 -26 -60 -55 -67c21 -14 54 -25 93 -25c92 0 185 64 185 179c0 126 -94 177 -204 177h-12l-2 3l172 246h-290v76h377v-4l-177 -252c110 -13 226 -82 226 -211c0 -142 -125 -238 -264 -238c-107 0 -174 57 -174 111z" />
    <glyph glyph-name="four.alt" horiz-adv-x="560" 
d="M94 251h250v356zM344 136v64h-319v4l352 496h46v-449h86v-51h-86v-64c0 -92 16 -114 85 -132v-4h-269v4c89 18 105 40 105 132z" />
    <glyph glyph-name="five.alt" horiz-adv-x="514" 
d="M453 231c0 -160 -149 -246 -267 -246c-93 0 -167 53 -167 112c0 37 29 63 65 63c33 0 59 -23 59 -58c0 -34 -25 -58 -50 -68c21 -14 52 -28 91 -28c107 0 183 95 183 210c0 116 -78 165 -154 165c-56 0 -106 -27 -139 -55l-3 1l47 363h298v-76h-282l-34 -247
c27 25 83 66 159 66c106 0 194 -79 194 -202z" />
    <glyph glyph-name="six.alt" 
d="M460 704v-16c-116 -28 -249 -150 -294 -310c33 32 85 57 148 57c108 0 202 -73 202 -208c0 -136 -97 -242 -223 -242c-136 0 -235 121 -235 271c0 205 185 417 402 448zM273 396c-41 0 -82 -14 -112 -39c-7 -29 -11 -58 -11 -97c0 -123 36 -254 148 -254
c96 0 135 96 135 191c0 120 -62 199 -160 199z" />
    <glyph glyph-name="seven.alt" horiz-adv-x="508" 
d="M203 0h-93c54 173 186 415 309 614h-405v76h464v-4c-124 -209 -226 -492 -275 -686z" />
    <glyph glyph-name="eight.alt" 
d="M54 160c0 102 108 161 172 190c-88 47 -156 93 -156 185s85 169 218 169c138 0 208 -80 208 -158c0 -90 -102 -141 -155 -164l10 -5c81 -41 169 -92 169 -197c0 -121 -119 -195 -238 -195c-114 0 -228 59 -228 175zM253 337l-9 4c-48 -30 -105 -80 -105 -174
c0 -89 59 -159 151 -159c87 0 150 67 150 150c0 86 -81 128 -187 179zM148 550c0 -75 73 -112 175 -160c67 39 88 96 88 152c0 80 -50 138 -130 138c-93 0 -133 -67 -133 -130z" />
    <glyph glyph-name="nine.alt" 
d="M120 -15v15c121 30 259 135 292 318c-30 -22 -81 -50 -152 -50c-109 0 -206 65 -206 199c0 138 103 237 221 237c140 0 237 -137 237 -293c0 -208 -175 -395 -392 -426zM298 305c42 0 87 13 117 34c3 19 5 39 5 66c0 137 -41 275 -152 275c-87 0 -131 -88 -131 -185
c0 -115 61 -190 161 -190z" />
    <glyph glyph-name="zero.tosf" 
d="M285 -12c-142 0 -246 120 -246 268c0 153 109 266 246 266s246 -113 246 -266c0 -148 -104 -268 -246 -268zM285 9c116 0 152 131 152 247c0 130 -46 245 -152 245s-153 -115 -153 -245c0 -116 37 -247 153 -247z" />
    <glyph glyph-name="one.tosf" 
d="M347 521h4v-385c0 -92 16 -114 85 -132v-4h-269v4c89 18 105 40 105 132v265c-35 -20 -91 -41 -129 -54l-3 14c92 33 152 92 207 160z" />
    <glyph glyph-name="two.tosf" 
d="M282 522c109 0 191 -60 191 -157c0 -119 -150 -166 -289 -294h294v-71h-419v5c165 123 322 246 322 358c0 78 -68 125 -146 125c-46 0 -86 -18 -116 -45c6 1 10 1 16 1c39 0 64 -23 64 -58c0 -34 -26 -57 -59 -57c-34 0 -62 25 -62 64c0 58 74 129 204 129z" />
    <glyph glyph-name="three.tosf" 
d="M54 -96c0 35 32 62 67 62s62 -24 62 -59c0 -38 -27 -63 -41 -72c23 -8 47 -11 70 -11c97 0 186 66 186 180c0 115 -89 160 -193 160c-19 0 -38 -1 -57 -4l-2 21c124 6 218 78 218 172c0 90 -71 138 -142 138c-36 0 -71 -12 -99 -36c36 -1 67 -22 67 -62
c0 -33 -25 -57 -57 -57c-33 0 -62 20 -62 63c0 59 81 123 193 123c107 0 184 -68 184 -152c0 -82 -79 -128 -133 -156c94 -19 171 -79 171 -185c0 -130 -129 -227 -263 -227c-98 0 -169 40 -169 102z" />
    <glyph glyph-name="four.tosf" 
d="M112 49h254v348zM446 -190h-80v190h-326v4l375 506h31v-461h78v-49h-78v-190z" />
    <glyph glyph-name="five.tosf" 
d="M492 51c0 -160 -149 -246 -267 -246c-93 0 -167 53 -167 112c0 37 29 63 65 63c33 0 59 -23 59 -58c0 -34 -25 -58 -50 -68c21 -14 52 -28 91 -28c107 0 183 95 183 210c0 116 -78 165 -154 165c-56 0 -106 -27 -139 -55l-3 1l47 363h298v-76h-282l-34 -247
c27 25 83 66 159 66c106 0 194 -79 194 -202z" />
    <glyph glyph-name="six.tosf" 
d="M460 704v-16c-116 -28 -249 -150 -294 -310c33 32 85 57 148 57c108 0 202 -73 202 -208c0 -136 -97 -242 -223 -242c-136 0 -235 121 -235 271c0 205 185 417 402 448zM273 396c-41 0 -82 -14 -112 -39c-7 -29 -11 -58 -11 -97c0 -123 36 -254 148 -254
c96 0 135 96 135 191c0 120 -62 199 -160 199z" />
    <glyph glyph-name="seven.tosf" 
d="M516 506l-372 -692h-60l364 618h-396v78h464v-4z" />
    <glyph glyph-name="eight.tosf" 
d="M54 160c0 102 108 161 172 190c-88 47 -156 93 -156 185s85 169 218 169c138 0 208 -80 208 -158c0 -90 -102 -141 -155 -164l10 -5c81 -41 169 -92 169 -197c0 -121 -119 -195 -238 -195c-114 0 -228 59 -228 175zM253 337l-9 4c-48 -30 -105 -80 -105 -174
c0 -89 59 -159 151 -159c87 0 150 67 150 150c0 86 -81 128 -187 179zM148 550c0 -75 73 -112 175 -160c67 39 88 96 88 152c0 80 -50 138 -130 138c-93 0 -133 -67 -133 -130z" />
    <glyph glyph-name="nine.tosf" 
d="M120 -197v15c121 30 259 135 292 318c-30 -22 -81 -50 -152 -50c-109 0 -206 65 -206 199c0 138 103 237 221 237c140 0 237 -137 237 -293c0 -208 -175 -395 -392 -426zM298 123c42 0 87 13 117 34c3 19 5 39 5 66c0 137 -41 275 -152 275c-87 0 -131 -88 -131 -185
c0 -115 61 -190 161 -190z" />
    <glyph glyph-name="Euro.taboldstyle" 
d="M120 289h-68v26h74c27 101 116 207 250 207c83 0 123 -43 123 -89c0 -36 -24 -58 -53 -58c-28 0 -50 22 -50 49c0 28 19 49 49 49c8 0 16 -1 25 -4c-21 20 -53 30 -94 30c-94 0 -147 -87 -162 -184h200v-26h-203c-2 -14 -2 -27 -2 -39c0 -11 0 -20 1 -30h204v-27h-202
c13 -97 64 -177 164 -177c75 0 131 80 131 127h12c0 -51 -48 -158 -163 -158c-141 0 -216 101 -234 208h-70v27h66c-1 10 -1 20 -1 30c0 12 1 25 3 39z" />
    <glyph glyph-name="dollar.taboldstyle" 
d="M301 -94h-32v82c-47 2 -110 13 -160 41v132h4c40 -93 98 -143 156 -152v209c-76 34 -155 72 -155 165c0 81 73 130 155 138v91h32v-90c38 -2 86 -12 128 -29v-121h-5c-32 74 -79 114 -123 126v-194c77 -34 161 -72 161 -168c0 -79 -68 -137 -161 -146v-84zM401 100
c0 50 -46 78 -100 103v-195c52 5 100 44 100 92zM172 415c0 -48 43 -73 97 -97v184c-47 -3 -97 -37 -97 -87z" />
    <glyph glyph-name="cent.taboldstyle" 
d="M347 -94h-32v83c-153 8 -268 110 -268 258c0 157 132 261 268 273v92h32v-91c58 -1 123 -19 153 -32v-114h-6c-36 77 -85 118 -147 124v-490c69 2 125 48 165 133h4l-9 -119c-31 -17 -99 -32 -160 -35v-82zM140 257c0 -133 69 -232 175 -246v487
c-110 -10 -175 -112 -175 -241z" />
    <glyph glyph-name="sterling.taboldstyle" horiz-adv-x="542" 
d="M154 249h-105v27h94c-9 23 -15 46 -15 78c0 128 101 168 189 168c100 0 144 -43 144 -86c0 -35 -25 -58 -55 -58c-31 0 -54 21 -54 51c0 28 21 51 54 51c-17 10 -47 20 -74 20c-85 0 -122 -29 -122 -103c0 -49 16 -84 27 -121h165v-27h-158c3 -11 4 -23 4 -35
c0 -56 -21 -104 -73 -145h207c72 0 83 12 93 51h4c1 -8 1 -25 1 -32c0 -74 -51 -88 -90 -88h-312v4c56 43 97 92 97 149c0 39 -10 68 -21 96z" />
    <glyph glyph-name="yen.taboldstyle" 
d="M451 176v-27h-130v-13c0 -97 14 -114 73 -132v-4h-225v4c59 18 73 35 73 132v13h-130v27h130v46l-15 27h-115v27h100l-47 85c-58 105 -87 135 -116 145v4h191v-4c-23 -5 -42 -15 -42 -36c0 -24 14 -56 43 -105l66 -114l59 115c24 47 39 80 39 102c0 21 -20 29 -45 38v4
h161v-4c-38 -12 -75 -52 -123 -145l-45 -85h98v-27h-112l-18 -36v-37h130z" />
    <glyph glyph-name="florin.taboldstyle" 
d="M433 241h-130v-179c0 -135 -77 -190 -173 -190c-52 0 -96 30 -96 70c0 30 22 51 50 51c26 0 50 -16 50 -46c0 -25 -15 -42 -33 -54c12 -3 23 -4 33 -4c47 2 88 31 88 159v193h-117c2 9 4 19 5 28h112v63c0 135 77 190 173 190c52 0 96 -30 96 -70c0 -30 -22 -51 -50 -51
c-26 0 -50 16 -50 46c0 25 15 42 33 54c-12 3 -23 4 -33 4c-47 -2 -88 -30 -88 -159v-77h130v-28z" />
    <glyph glyph-name="percent.oldstyle" horiz-adv-x="923" 
d="M662 549l-372 -596h-43l317 506l-3 2c-37 -20 -70 -46 -117 -46c-25 0 -52 6 -75 16c5 -13 9 -37 9 -60c0 -97 -66 -239 -181 -239c-87 0 -146 68 -146 157c0 105 86 232 198 232c92 0 95 -74 193 -74c74 0 132 48 180 102h40zM203 158c91 0 144 134 144 220
c0 52 -28 118 -85 118c-84 0 -134 -130 -134 -230c0 -59 26 -108 75 -108zM871 231c0 -101 -63 -243 -183 -243c-86 0 -145 67 -145 154c0 108 85 234 200 234c79 0 128 -60 128 -145zM695 14c90 0 144 127 144 218c0 57 -29 120 -84 120c-84 0 -135 -130 -135 -231
c0 -58 28 -107 75 -107z" />
    </font>
</defs>
</svg>
